<svg width="613" height="115" viewBox="0 0 613 115" fill="none" xmlns="http://www.w3.org/2000/svg">
<mask id="path-1-outside-1_431_211" maskUnits="userSpaceOnUse" x="26.5" y="19" width="560" height="77" fill="black">
<rect fill="white" x="26.5" y="19" width="560" height="77"/>
<path d="M41.4983 80.3118C41.4983 83.8611 39.6442 85.6357 35.936 85.6357C34.1349 85.6357 32.7046 85.1854 31.6452 84.2849C30.5857 83.3843 30.0559 82.0599 30.0559 80.3118V48.8453C30.0559 41.5349 31.5392 36.317 34.5057 33.1915C37.4723 30.066 42.1075 28.5033 48.4114 28.5033C54.8742 28.5033 59.6419 30.0925 62.7144 33.271C65.7868 36.4494 67.3231 41.6408 67.3231 48.8453V80.3118C67.3231 83.8611 65.469 85.6357 61.7608 85.6357C59.9597 85.6357 58.5294 85.1854 57.4699 84.2849C56.4105 83.3843 55.8807 82.0599 55.8807 80.3118V61.1617C54.8742 62.0623 53.7618 62.8304 52.5434 63.4661C51.3779 64.1018 50.0006 64.4196 48.4114 64.4196C46.0805 64.4196 44.3324 64.8434 43.167 65.691C42.0545 66.5386 41.4983 68.0483 41.4983 70.2203V80.3118ZM41.0215 57.0298C41.8691 56.1822 42.8756 55.52 44.041 55.0432C45.2594 54.5665 46.7162 54.3281 48.4114 54.3281C50.4244 54.3281 51.9607 54.1692 53.0201 53.8513C54.1326 53.5335 54.9007 52.9243 55.3245 52.0237C55.7483 51.1232 55.9602 49.7988 55.9602 48.0507C55.9602 44.1306 55.404 41.4554 54.2915 40.0251C53.1791 38.5419 51.1925 37.8002 48.3319 37.8002C45.6832 37.8002 43.8556 38.5684 42.8491 40.1046C41.8956 41.5879 41.4188 44.3425 41.4188 48.3685C41.4188 50.4345 41.3924 52.1827 41.3394 53.613C41.2864 55.0432 41.1805 56.1822 41.0215 57.0298ZM85.483 85C84.4765 85 83.6289 84.6027 82.9403 83.8081C82.2516 83.0135 81.9073 82.007 81.9073 80.7886V45.0312C81.9073 43.283 82.1456 41.4554 82.6224 39.5484C83.1521 37.6413 84.1057 35.8667 85.483 34.2245C86.9133 32.5293 88.9263 31.152 91.522 30.0925C94.1177 29.0331 97.5081 28.5033 101.693 28.5033C107.255 28.5033 111.573 29.8806 114.645 32.6353C117.718 35.3899 119.254 39.5219 119.254 45.0312C119.254 47.2561 118.83 49.2956 117.983 51.1497C117.188 53.0038 115.969 54.4076 114.327 55.3611C116.923 56.5265 118.777 58.1422 119.89 60.2082C121.055 62.2742 121.638 65.1348 121.638 68.79C121.638 74.0874 119.996 78.1134 116.711 80.868C113.48 83.6227 108.474 85 101.693 85H85.483ZM92.7934 53.9308C93.4821 53.0832 94.5945 52.421 96.1308 51.9443C97.72 51.4675 99.5741 51.2291 101.693 51.2291C104.183 51.2291 105.878 50.7788 106.779 49.8783C107.732 48.9248 108.209 47.3091 108.209 45.0312C108.209 42.3825 107.653 40.5019 106.54 39.3895C105.481 38.224 103.865 37.6413 101.693 37.6413C98.6205 37.6413 96.4486 38.1975 95.1772 39.31C93.9588 40.4224 93.3496 42.3295 93.3496 45.0312C93.3496 46.6734 93.3231 47.9977 93.2702 49.0042C93.2702 49.9578 93.2172 50.8053 93.1112 51.547C93.0583 52.2886 92.9523 53.0832 92.7934 53.9308ZM93.3496 75.7825H101.693C104.871 75.7825 107.07 75.2263 108.288 74.1139C109.56 73.0014 110.195 71.2268 110.195 68.79C110.195 65.3467 109.533 62.8834 108.209 61.4001C106.937 59.9168 104.766 59.1752 101.693 59.1752C99.5211 59.1752 97.8259 59.4666 96.6075 60.0493C95.3891 60.579 94.5415 61.5326 94.0648 62.9099C93.588 64.2872 93.3496 66.2472 93.3496 68.79V75.7825ZM154.25 85.6357C149.641 85.6357 145.721 84.7351 142.49 82.934C139.259 81.0799 136.795 78.0604 135.1 73.8755C133.458 69.6905 132.637 64.0223 132.637 56.8708C132.637 49.7194 133.458 44.0776 135.1 39.9457C136.795 35.8137 139.259 32.8737 142.49 31.1255C145.721 29.3774 149.641 28.5033 154.25 28.5033C158.912 28.5033 162.832 29.3774 166.01 31.1255C169.242 32.8737 171.679 35.8137 173.321 39.9457C175.016 44.0776 175.864 49.7194 175.864 56.8708C175.864 64.0223 175.016 69.6905 173.321 73.8755C171.679 78.0604 169.242 81.0799 166.01 82.934C162.832 84.7351 158.912 85.6357 154.25 85.6357ZM154.25 75.1469C156.369 75.1469 158.17 74.6436 159.654 73.6371C161.19 72.6306 162.355 70.803 163.15 68.1543C163.997 65.5056 164.421 61.7444 164.421 56.8708C164.421 51.9443 163.997 48.2096 163.15 45.6669C162.355 43.0711 161.19 41.323 159.654 40.4224C158.17 39.4689 156.369 38.9921 154.25 38.9921C152.184 38.9921 150.383 39.4689 148.847 40.4224C147.311 41.323 146.119 43.0711 145.271 45.6669C144.476 48.2096 144.079 51.9443 144.079 56.8708C144.079 61.7444 144.476 65.5056 145.271 68.1543C146.119 70.803 147.311 72.6306 148.847 73.6371C150.383 74.6436 152.184 75.1469 154.25 75.1469ZM208.653 85.6357C202.243 85.6357 197.343 84.0465 193.953 80.868C190.615 77.6366 188.947 72.7895 188.947 66.3267V34.7013C188.947 30.5693 190.854 28.5033 194.668 28.5033C198.482 28.5033 200.389 30.5693 200.389 34.7013V66.3267C200.389 69.6641 201.104 72.1009 202.534 73.6371C204.018 75.1733 206.057 75.9415 208.653 75.9415C215.01 75.9415 218.188 72.7365 218.188 66.3267V34.7013C218.188 30.5693 220.095 28.5033 223.909 28.5033C227.724 28.5033 229.631 30.5693 229.631 34.7013V66.3267C229.631 72.7365 227.856 77.5572 224.307 80.7886C220.757 84.02 215.54 85.6357 208.653 85.6357ZM259.97 85.6357C258.645 85.6357 257.295 85.3443 255.917 84.7616C254.593 84.1259 253.931 83.1194 253.931 81.7421V44.5544C253.931 42.8592 254.355 41.6938 255.202 41.0581C256.05 40.4224 256.738 40.0251 257.268 39.8662H241.932C240.661 39.8662 239.707 39.31 239.072 38.1975C238.489 37.0321 238.197 35.8402 238.197 34.6218C238.197 33.2975 238.515 32.1055 239.151 31.0461C239.787 29.9336 240.714 29.3774 241.932 29.3774H277.451C278.67 29.3774 279.597 29.9336 280.232 31.0461C280.868 32.1055 281.186 33.2975 281.186 34.6218C281.186 35.8402 280.868 37.0321 280.232 38.1975C279.65 39.31 278.723 39.8662 277.451 39.8662H265.373V81.7421C265.373 83.0665 264.817 84.0465 263.704 84.6822C262.645 85.3178 261.4 85.6357 259.97 85.6357ZM332.724 86.1919C332.724 88.1519 332.38 89.6617 331.691 90.7212C331.056 91.8336 330.129 92.3899 328.91 92.3899C326.314 92.3899 325.017 90.7212 325.017 87.3838V85.6357C323.057 85.5827 321.017 85.3973 318.898 85.0795C316.832 84.8146 315.163 84.4173 313.892 83.8875C311.667 82.987 310.555 81.4772 310.555 79.3583C310.555 77.822 311.005 76.6036 311.906 75.7031C312.859 74.7495 314.342 74.2728 316.355 74.2728C317.733 74.2728 319.401 74.4582 321.361 74.829C323.321 75.1998 325.043 75.3852 326.526 75.3852C329.811 75.3852 332.168 74.9614 333.598 74.1139C335.029 73.2663 335.744 71.5446 335.744 68.9489C335.744 67.4127 335.188 66.1148 334.075 65.0553C333.016 63.9958 330.87 62.9893 327.639 62.0358C321.759 60.2877 317.494 58.1157 314.846 55.52C312.25 52.9243 310.952 49.5604 310.952 45.4285C310.952 40.8727 312.223 37.191 314.766 34.3834C317.362 31.5228 320.779 29.6952 325.017 28.9006V28.7417C325.017 24.5038 326.314 22.3848 328.91 22.3848C331.453 22.3848 332.724 24.4508 332.724 28.5828C335.797 28.8476 338.392 29.4039 340.511 30.2515C342.736 31.099 343.849 32.6088 343.849 34.7807C343.849 36.317 343.372 37.5619 342.419 38.5154C341.518 39.4159 340.061 39.8662 338.048 39.8662C336.724 39.8662 335.294 39.7338 333.757 39.4689C332.221 39.1511 330.711 38.9921 329.228 38.9921C326.95 38.9921 325.228 39.3895 324.063 40.1841C322.898 40.9787 322.315 42.303 322.315 44.1571C322.315 45.8523 323.136 47.3885 324.778 48.7658C326.42 50.1432 329.44 51.494 333.837 52.8183C338.869 54.3016 342.339 56.3146 344.246 58.8574C346.153 61.3471 347.107 64.5256 347.107 68.3927C347.107 72.9484 345.862 76.6301 343.372 79.4377C340.882 82.2454 337.333 84.0994 332.724 85V86.1919ZM363.767 85C362.76 85 361.913 84.6027 361.224 83.8081C360.535 83.0135 360.191 82.007 360.191 80.7886V45.0312C360.191 43.283 360.429 41.4554 360.906 39.5484C361.436 37.6413 362.389 35.8667 363.767 34.2245C365.197 32.5293 367.21 31.152 369.806 30.0925C372.402 29.0331 375.792 28.5033 379.977 28.5033C385.539 28.5033 389.856 29.8806 392.929 32.6353C396.001 35.3899 397.538 39.5219 397.538 45.0312C397.538 47.2561 397.114 49.2956 396.266 51.1497C395.472 53.0038 394.253 54.4076 392.611 55.3611C395.207 56.5265 397.061 58.1422 398.173 60.2082C399.339 62.2742 399.921 65.1348 399.921 68.79C399.921 74.0874 398.279 78.1134 394.995 80.868C391.763 83.6227 386.757 85 379.977 85H363.767ZM371.077 53.9308C371.766 53.0832 372.878 52.421 374.415 51.9443C376.004 51.4675 377.858 51.2291 379.977 51.2291C382.467 51.2291 384.162 50.7788 385.062 49.8783C386.016 48.9248 386.493 47.3091 386.493 45.0312C386.493 42.3825 385.936 40.5019 384.824 39.3895C383.764 38.224 382.149 37.6413 379.977 37.6413C376.904 37.6413 374.732 38.1975 373.461 39.31C372.243 40.4224 371.633 42.3295 371.633 45.0312C371.633 46.6734 371.607 47.9977 371.554 49.0042C371.554 49.9578 371.501 50.8053 371.395 51.547C371.342 52.2886 371.236 53.0832 371.077 53.9308ZM371.633 75.7825H379.977C383.155 75.7825 385.354 75.2263 386.572 74.1139C387.843 73.0014 388.479 71.2268 388.479 68.79C388.479 65.3467 387.817 62.8834 386.493 61.4001C385.221 59.9168 383.049 59.1752 379.977 59.1752C377.805 59.1752 376.11 59.4666 374.891 60.0493C373.673 60.579 372.825 61.5326 372.349 62.9099C371.872 64.2872 371.633 66.2472 371.633 68.79V75.7825ZM418.31 85.4768C416.509 85.4768 415.079 85.0795 414.02 84.2849C412.96 83.4373 412.43 82.2454 412.43 80.7091V46.382C412.43 40.237 414.046 35.7343 417.277 32.8737C420.562 29.9601 425.674 28.5033 432.613 28.5033C438.282 28.5033 442.599 29.9336 445.566 32.7942C448.585 35.6018 450.095 39.6808 450.095 45.0312C450.095 46.8853 450.042 48.6864 449.936 50.4345C449.83 52.1297 449.671 53.3216 449.459 54.0103C448.665 56.9238 447.208 59.1487 445.089 60.685C447.949 63.0688 449.38 65.8234 449.38 68.9489V80.7091C449.38 83.9935 447.552 85.6357 443.897 85.6357C442.096 85.6357 440.665 85.2384 439.606 84.4438C438.546 83.5962 438.017 82.3513 438.017 80.7091V70.2203C438.017 67.3597 437.566 65.3467 436.666 64.1812C435.818 63.0158 434.07 62.4331 431.422 62.4331C428.561 62.4331 426.574 63.0688 425.462 64.3402C424.402 65.5586 423.873 67.8364 423.873 71.1738V80.7091C423.873 83.8875 422.019 85.4768 418.31 85.4768ZM423.237 55.9173C424.561 54.8049 425.727 54.0897 426.733 53.7719C427.793 53.4011 429.303 53.2156 431.263 53.2156C433.911 53.2156 435.845 53.0832 437.063 52.8183C438.335 52.5535 439.156 51.9972 439.527 51.1497C439.897 50.3021 440.083 48.9777 440.083 47.1766C440.083 43.5744 439.527 41.0846 438.414 39.7073C437.355 38.277 435.421 37.5619 432.613 37.5619C429.488 37.5619 427.263 38.277 425.939 39.7073C424.667 41.1376 424.032 43.6274 424.032 47.1766C424.032 48.9248 423.952 50.4875 423.793 51.8648C423.687 53.1892 423.502 54.54 423.237 55.9173ZM475.181 80.3118C475.181 83.8611 473.327 85.6357 469.619 85.6357C467.817 85.6357 466.387 85.1854 465.328 84.2849C464.268 83.3843 463.738 82.0599 463.738 80.3118V48.8453C463.738 41.5349 465.222 36.317 468.188 33.1915C471.155 30.066 475.79 28.5033 482.094 28.5033C488.557 28.5033 493.324 30.0925 496.397 33.271C499.469 36.4494 501.006 41.6408 501.006 48.8453V80.3118C501.006 83.8611 499.152 85.6357 495.443 85.6357C493.642 85.6357 492.212 85.1854 491.152 84.2849C490.093 83.3843 489.563 82.0599 489.563 80.3118V61.1617C488.557 62.0623 487.444 62.8304 486.226 63.4661C485.06 64.1018 483.683 64.4196 482.094 64.4196C479.763 64.4196 478.015 64.8434 476.85 65.691C475.737 66.5386 475.181 68.0483 475.181 70.2203V80.3118ZM474.704 57.0298C475.552 56.1822 476.558 55.52 477.724 55.0432C478.942 54.5665 480.399 54.3281 482.094 54.3281C484.107 54.3281 485.643 54.1692 486.703 53.8513C487.815 53.5335 488.583 52.9243 489.007 52.0237C489.431 51.1232 489.643 49.7988 489.643 48.0507C489.643 44.1306 489.087 41.4554 487.974 40.0251C486.862 38.5419 484.875 37.8002 482.014 37.8002C479.366 37.8002 477.538 38.5684 476.532 40.1046C475.578 41.5879 475.101 44.3425 475.101 48.3685C475.101 50.4345 475.075 52.1827 475.022 53.613C474.969 55.0432 474.863 56.1822 474.704 57.0298ZM521.634 85.6357C517.714 85.6357 515.754 83.8611 515.754 80.3118V33.8272C515.754 31.9731 516.205 30.6223 517.105 29.7747C518.006 28.9271 519.436 28.5033 521.396 28.5033C525.263 28.5033 527.197 30.2779 527.197 33.8272V80.3118C527.197 82.1129 526.746 83.4638 525.846 84.3643C524.998 85.2119 523.594 85.6357 521.634 85.6357ZM553.509 80.3118C553.509 83.8611 551.655 85.6357 547.947 85.6357C546.145 85.6357 544.715 85.1854 543.656 84.2849C542.596 83.3843 542.066 82.0599 542.066 80.3118V49.0837C542.066 44.1041 542.729 40.1311 544.053 37.1645C545.377 34.145 547.549 31.9466 550.569 30.5693C553.588 29.192 557.614 28.5033 562.647 28.5033C569.322 28.5033 574.354 30.066 577.744 33.1915C581.188 36.264 582.909 41.5614 582.909 49.0837V80.3118C582.909 83.8611 581.055 85.6357 577.347 85.6357C575.546 85.6357 574.116 85.1854 573.056 84.2849C571.997 83.3843 571.467 82.0599 571.467 80.3118V49.0837C571.467 45.1636 570.778 42.3825 569.401 40.7403C568.077 39.0451 565.825 38.1975 562.647 38.1975C560.157 38.1975 558.25 38.5684 556.926 39.31C555.601 40.0516 554.701 41.2171 554.224 42.8063C553.747 44.3955 553.509 46.488 553.509 49.0837V80.3118Z"/>
</mask>
<path d="M41.4983 80.3118C41.4983 83.8611 39.6442 85.6357 35.936 85.6357C34.1349 85.6357 32.7046 85.1854 31.6452 84.2849C30.5857 83.3843 30.0559 82.0599 30.0559 80.3118V48.8453C30.0559 41.5349 31.5392 36.317 34.5057 33.1915C37.4723 30.066 42.1075 28.5033 48.4114 28.5033C54.8742 28.5033 59.6419 30.0925 62.7144 33.271C65.7868 36.4494 67.3231 41.6408 67.3231 48.8453V80.3118C67.3231 83.8611 65.469 85.6357 61.7608 85.6357C59.9597 85.6357 58.5294 85.1854 57.4699 84.2849C56.4105 83.3843 55.8807 82.0599 55.8807 80.3118V61.1617C54.8742 62.0623 53.7618 62.8304 52.5434 63.4661C51.3779 64.1018 50.0006 64.4196 48.4114 64.4196C46.0805 64.4196 44.3324 64.8434 43.167 65.691C42.0545 66.5386 41.4983 68.0483 41.4983 70.2203V80.3118ZM41.0215 57.0298C41.8691 56.1822 42.8756 55.52 44.041 55.0432C45.2594 54.5665 46.7162 54.3281 48.4114 54.3281C50.4244 54.3281 51.9607 54.1692 53.0201 53.8513C54.1326 53.5335 54.9007 52.9243 55.3245 52.0237C55.7483 51.1232 55.9602 49.7988 55.9602 48.0507C55.9602 44.1306 55.404 41.4554 54.2915 40.0251C53.1791 38.5419 51.1925 37.8002 48.3319 37.8002C45.6832 37.8002 43.8556 38.5684 42.8491 40.1046C41.8956 41.5879 41.4188 44.3425 41.4188 48.3685C41.4188 50.4345 41.3924 52.1827 41.3394 53.613C41.2864 55.0432 41.1805 56.1822 41.0215 57.0298ZM85.483 85C84.4765 85 83.6289 84.6027 82.9403 83.8081C82.2516 83.0135 81.9073 82.007 81.9073 80.7886V45.0312C81.9073 43.283 82.1456 41.4554 82.6224 39.5484C83.1521 37.6413 84.1057 35.8667 85.483 34.2245C86.9133 32.5293 88.9263 31.152 91.522 30.0925C94.1177 29.0331 97.5081 28.5033 101.693 28.5033C107.255 28.5033 111.573 29.8806 114.645 32.6353C117.718 35.3899 119.254 39.5219 119.254 45.0312C119.254 47.2561 118.83 49.2956 117.983 51.1497C117.188 53.0038 115.969 54.4076 114.327 55.3611C116.923 56.5265 118.777 58.1422 119.89 60.2082C121.055 62.2742 121.638 65.1348 121.638 68.79C121.638 74.0874 119.996 78.1134 116.711 80.868C113.48 83.6227 108.474 85 101.693 85H85.483ZM92.7934 53.9308C93.4821 53.0832 94.5945 52.421 96.1308 51.9443C97.72 51.4675 99.5741 51.2291 101.693 51.2291C104.183 51.2291 105.878 50.7788 106.779 49.8783C107.732 48.9248 108.209 47.3091 108.209 45.0312C108.209 42.3825 107.653 40.5019 106.54 39.3895C105.481 38.224 103.865 37.6413 101.693 37.6413C98.6205 37.6413 96.4486 38.1975 95.1772 39.31C93.9588 40.4224 93.3496 42.3295 93.3496 45.0312C93.3496 46.6734 93.3231 47.9977 93.2702 49.0042C93.2702 49.9578 93.2172 50.8053 93.1112 51.547C93.0583 52.2886 92.9523 53.0832 92.7934 53.9308ZM93.3496 75.7825H101.693C104.871 75.7825 107.07 75.2263 108.288 74.1139C109.56 73.0014 110.195 71.2268 110.195 68.79C110.195 65.3467 109.533 62.8834 108.209 61.4001C106.937 59.9168 104.766 59.1752 101.693 59.1752C99.5211 59.1752 97.8259 59.4666 96.6075 60.0493C95.3891 60.579 94.5415 61.5326 94.0648 62.9099C93.588 64.2872 93.3496 66.2472 93.3496 68.79V75.7825ZM154.25 85.6357C149.641 85.6357 145.721 84.7351 142.49 82.934C139.259 81.0799 136.795 78.0604 135.1 73.8755C133.458 69.6905 132.637 64.0223 132.637 56.8708C132.637 49.7194 133.458 44.0776 135.1 39.9457C136.795 35.8137 139.259 32.8737 142.49 31.1255C145.721 29.3774 149.641 28.5033 154.25 28.5033C158.912 28.5033 162.832 29.3774 166.01 31.1255C169.242 32.8737 171.679 35.8137 173.321 39.9457C175.016 44.0776 175.864 49.7194 175.864 56.8708C175.864 64.0223 175.016 69.6905 173.321 73.8755C171.679 78.0604 169.242 81.0799 166.01 82.934C162.832 84.7351 158.912 85.6357 154.25 85.6357ZM154.25 75.1469C156.369 75.1469 158.17 74.6436 159.654 73.6371C161.19 72.6306 162.355 70.803 163.15 68.1543C163.997 65.5056 164.421 61.7444 164.421 56.8708C164.421 51.9443 163.997 48.2096 163.15 45.6669C162.355 43.0711 161.19 41.323 159.654 40.4224C158.17 39.4689 156.369 38.9921 154.25 38.9921C152.184 38.9921 150.383 39.4689 148.847 40.4224C147.311 41.323 146.119 43.0711 145.271 45.6669C144.476 48.2096 144.079 51.9443 144.079 56.8708C144.079 61.7444 144.476 65.5056 145.271 68.1543C146.119 70.803 147.311 72.6306 148.847 73.6371C150.383 74.6436 152.184 75.1469 154.25 75.1469ZM208.653 85.6357C202.243 85.6357 197.343 84.0465 193.953 80.868C190.615 77.6366 188.947 72.7895 188.947 66.3267V34.7013C188.947 30.5693 190.854 28.5033 194.668 28.5033C198.482 28.5033 200.389 30.5693 200.389 34.7013V66.3267C200.389 69.6641 201.104 72.1009 202.534 73.6371C204.018 75.1733 206.057 75.9415 208.653 75.9415C215.01 75.9415 218.188 72.7365 218.188 66.3267V34.7013C218.188 30.5693 220.095 28.5033 223.909 28.5033C227.724 28.5033 229.631 30.5693 229.631 34.7013V66.3267C229.631 72.7365 227.856 77.5572 224.307 80.7886C220.757 84.02 215.54 85.6357 208.653 85.6357ZM259.97 85.6357C258.645 85.6357 257.295 85.3443 255.917 84.7616C254.593 84.1259 253.931 83.1194 253.931 81.7421V44.5544C253.931 42.8592 254.355 41.6938 255.202 41.0581C256.05 40.4224 256.738 40.0251 257.268 39.8662H241.932C240.661 39.8662 239.707 39.31 239.072 38.1975C238.489 37.0321 238.197 35.8402 238.197 34.6218C238.197 33.2975 238.515 32.1055 239.151 31.0461C239.787 29.9336 240.714 29.3774 241.932 29.3774H277.451C278.67 29.3774 279.597 29.9336 280.232 31.0461C280.868 32.1055 281.186 33.2975 281.186 34.6218C281.186 35.8402 280.868 37.0321 280.232 38.1975C279.65 39.31 278.723 39.8662 277.451 39.8662H265.373V81.7421C265.373 83.0665 264.817 84.0465 263.704 84.6822C262.645 85.3178 261.4 85.6357 259.97 85.6357ZM332.724 86.1919C332.724 88.1519 332.38 89.6617 331.691 90.7212C331.056 91.8336 330.129 92.3899 328.91 92.3899C326.314 92.3899 325.017 90.7212 325.017 87.3838V85.6357C323.057 85.5827 321.017 85.3973 318.898 85.0795C316.832 84.8146 315.163 84.4173 313.892 83.8875C311.667 82.987 310.555 81.4772 310.555 79.3583C310.555 77.822 311.005 76.6036 311.906 75.7031C312.859 74.7495 314.342 74.2728 316.355 74.2728C317.733 74.2728 319.401 74.4582 321.361 74.829C323.321 75.1998 325.043 75.3852 326.526 75.3852C329.811 75.3852 332.168 74.9614 333.598 74.1139C335.029 73.2663 335.744 71.5446 335.744 68.9489C335.744 67.4127 335.188 66.1148 334.075 65.0553C333.016 63.9958 330.87 62.9893 327.639 62.0358C321.759 60.2877 317.494 58.1157 314.846 55.52C312.25 52.9243 310.952 49.5604 310.952 45.4285C310.952 40.8727 312.223 37.191 314.766 34.3834C317.362 31.5228 320.779 29.6952 325.017 28.9006V28.7417C325.017 24.5038 326.314 22.3848 328.91 22.3848C331.453 22.3848 332.724 24.4508 332.724 28.5828C335.797 28.8476 338.392 29.4039 340.511 30.2515C342.736 31.099 343.849 32.6088 343.849 34.7807C343.849 36.317 343.372 37.5619 342.419 38.5154C341.518 39.4159 340.061 39.8662 338.048 39.8662C336.724 39.8662 335.294 39.7338 333.757 39.4689C332.221 39.1511 330.711 38.9921 329.228 38.9921C326.95 38.9921 325.228 39.3895 324.063 40.1841C322.898 40.9787 322.315 42.303 322.315 44.1571C322.315 45.8523 323.136 47.3885 324.778 48.7658C326.42 50.1432 329.44 51.494 333.837 52.8183C338.869 54.3016 342.339 56.3146 344.246 58.8574C346.153 61.3471 347.107 64.5256 347.107 68.3927C347.107 72.9484 345.862 76.6301 343.372 79.4377C340.882 82.2454 337.333 84.0994 332.724 85V86.1919ZM363.767 85C362.76 85 361.913 84.6027 361.224 83.8081C360.535 83.0135 360.191 82.007 360.191 80.7886V45.0312C360.191 43.283 360.429 41.4554 360.906 39.5484C361.436 37.6413 362.389 35.8667 363.767 34.2245C365.197 32.5293 367.21 31.152 369.806 30.0925C372.402 29.0331 375.792 28.5033 379.977 28.5033C385.539 28.5033 389.856 29.8806 392.929 32.6353C396.001 35.3899 397.538 39.5219 397.538 45.0312C397.538 47.2561 397.114 49.2956 396.266 51.1497C395.472 53.0038 394.253 54.4076 392.611 55.3611C395.207 56.5265 397.061 58.1422 398.173 60.2082C399.339 62.2742 399.921 65.1348 399.921 68.79C399.921 74.0874 398.279 78.1134 394.995 80.868C391.763 83.6227 386.757 85 379.977 85H363.767ZM371.077 53.9308C371.766 53.0832 372.878 52.421 374.415 51.9443C376.004 51.4675 377.858 51.2291 379.977 51.2291C382.467 51.2291 384.162 50.7788 385.062 49.8783C386.016 48.9248 386.493 47.3091 386.493 45.0312C386.493 42.3825 385.936 40.5019 384.824 39.3895C383.764 38.224 382.149 37.6413 379.977 37.6413C376.904 37.6413 374.732 38.1975 373.461 39.31C372.243 40.4224 371.633 42.3295 371.633 45.0312C371.633 46.6734 371.607 47.9977 371.554 49.0042C371.554 49.9578 371.501 50.8053 371.395 51.547C371.342 52.2886 371.236 53.0832 371.077 53.9308ZM371.633 75.7825H379.977C383.155 75.7825 385.354 75.2263 386.572 74.1139C387.843 73.0014 388.479 71.2268 388.479 68.79C388.479 65.3467 387.817 62.8834 386.493 61.4001C385.221 59.9168 383.049 59.1752 379.977 59.1752C377.805 59.1752 376.11 59.4666 374.891 60.0493C373.673 60.579 372.825 61.5326 372.349 62.9099C371.872 64.2872 371.633 66.2472 371.633 68.79V75.7825ZM418.31 85.4768C416.509 85.4768 415.079 85.0795 414.02 84.2849C412.96 83.4373 412.43 82.2454 412.43 80.7091V46.382C412.43 40.237 414.046 35.7343 417.277 32.8737C420.562 29.9601 425.674 28.5033 432.613 28.5033C438.282 28.5033 442.599 29.9336 445.566 32.7942C448.585 35.6018 450.095 39.6808 450.095 45.0312C450.095 46.8853 450.042 48.6864 449.936 50.4345C449.83 52.1297 449.671 53.3216 449.459 54.0103C448.665 56.9238 447.208 59.1487 445.089 60.685C447.949 63.0688 449.38 65.8234 449.38 68.9489V80.7091C449.38 83.9935 447.552 85.6357 443.897 85.6357C442.096 85.6357 440.665 85.2384 439.606 84.4438C438.546 83.5962 438.017 82.3513 438.017 80.7091V70.2203C438.017 67.3597 437.566 65.3467 436.666 64.1812C435.818 63.0158 434.07 62.4331 431.422 62.4331C428.561 62.4331 426.574 63.0688 425.462 64.3402C424.402 65.5586 423.873 67.8364 423.873 71.1738V80.7091C423.873 83.8875 422.019 85.4768 418.31 85.4768ZM423.237 55.9173C424.561 54.8049 425.727 54.0897 426.733 53.7719C427.793 53.4011 429.303 53.2156 431.263 53.2156C433.911 53.2156 435.845 53.0832 437.063 52.8183C438.335 52.5535 439.156 51.9972 439.527 51.1497C439.897 50.3021 440.083 48.9777 440.083 47.1766C440.083 43.5744 439.527 41.0846 438.414 39.7073C437.355 38.277 435.421 37.5619 432.613 37.5619C429.488 37.5619 427.263 38.277 425.939 39.7073C424.667 41.1376 424.032 43.6274 424.032 47.1766C424.032 48.9248 423.952 50.4875 423.793 51.8648C423.687 53.1892 423.502 54.54 423.237 55.9173ZM475.181 80.3118C475.181 83.8611 473.327 85.6357 469.619 85.6357C467.817 85.6357 466.387 85.1854 465.328 84.2849C464.268 83.3843 463.738 82.0599 463.738 80.3118V48.8453C463.738 41.5349 465.222 36.317 468.188 33.1915C471.155 30.066 475.79 28.5033 482.094 28.5033C488.557 28.5033 493.324 30.0925 496.397 33.271C499.469 36.4494 501.006 41.6408 501.006 48.8453V80.3118C501.006 83.8611 499.152 85.6357 495.443 85.6357C493.642 85.6357 492.212 85.1854 491.152 84.2849C490.093 83.3843 489.563 82.0599 489.563 80.3118V61.1617C488.557 62.0623 487.444 62.8304 486.226 63.4661C485.06 64.1018 483.683 64.4196 482.094 64.4196C479.763 64.4196 478.015 64.8434 476.85 65.691C475.737 66.5386 475.181 68.0483 475.181 70.2203V80.3118ZM474.704 57.0298C475.552 56.1822 476.558 55.52 477.724 55.0432C478.942 54.5665 480.399 54.3281 482.094 54.3281C484.107 54.3281 485.643 54.1692 486.703 53.8513C487.815 53.5335 488.583 52.9243 489.007 52.0237C489.431 51.1232 489.643 49.7988 489.643 48.0507C489.643 44.1306 489.087 41.4554 487.974 40.0251C486.862 38.5419 484.875 37.8002 482.014 37.8002C479.366 37.8002 477.538 38.5684 476.532 40.1046C475.578 41.5879 475.101 44.3425 475.101 48.3685C475.101 50.4345 475.075 52.1827 475.022 53.613C474.969 55.0432 474.863 56.1822 474.704 57.0298ZM521.634 85.6357C517.714 85.6357 515.754 83.8611 515.754 80.3118V33.8272C515.754 31.9731 516.205 30.6223 517.105 29.7747C518.006 28.9271 519.436 28.5033 521.396 28.5033C525.263 28.5033 527.197 30.2779 527.197 33.8272V80.3118C527.197 82.1129 526.746 83.4638 525.846 84.3643C524.998 85.2119 523.594 85.6357 521.634 85.6357ZM553.509 80.3118C553.509 83.8611 551.655 85.6357 547.947 85.6357C546.145 85.6357 544.715 85.1854 543.656 84.2849C542.596 83.3843 542.066 82.0599 542.066 80.3118V49.0837C542.066 44.1041 542.729 40.1311 544.053 37.1645C545.377 34.145 547.549 31.9466 550.569 30.5693C553.588 29.192 557.614 28.5033 562.647 28.5033C569.322 28.5033 574.354 30.066 577.744 33.1915C581.188 36.264 582.909 41.5614 582.909 49.0837V80.3118C582.909 83.8611 581.055 85.6357 577.347 85.6357C575.546 85.6357 574.116 85.1854 573.056 84.2849C571.997 83.3843 571.467 82.0599 571.467 80.3118V49.0837C571.467 45.1636 570.778 42.3825 569.401 40.7403C568.077 39.0451 565.825 38.1975 562.647 38.1975C560.157 38.1975 558.25 38.5684 556.926 39.31C555.601 40.0516 554.701 41.2171 554.224 42.8063C553.747 44.3955 553.509 46.488 553.509 49.0837V80.3118Z" fill="#8C5A52"/>
<path d="M31.6452 84.2849L33.5881 81.999L33.5881 81.999L31.6452 84.2849ZM34.5057 33.1915L36.6817 35.2568L36.6817 35.2568L34.5057 33.1915ZM57.4699 84.2849L59.4129 81.999L59.4129 81.999L57.4699 84.2849ZM55.8807 61.1617H58.8807V54.452L53.8803 58.926L55.8807 61.1617ZM52.5434 63.4661L51.1557 60.8063L51.1311 60.8192L51.1068 60.8324L52.5434 63.4661ZM43.167 65.691L41.4025 63.2648L41.3754 63.2845L41.3488 63.3047L43.167 65.691ZM41.0215 57.0298L38.0729 56.4769L36.2858 66.0081L43.1429 59.1511L41.0215 57.0298ZM44.041 55.0432L42.9479 52.2495L42.9264 52.2579L42.9052 52.2666L44.041 55.0432ZM53.0201 53.8513L52.196 50.9668L52.177 50.9722L52.1581 50.9779L53.0201 53.8513ZM55.3245 52.0237L58.0389 53.3011L58.039 53.3011L55.3245 52.0237ZM54.2915 40.0251L51.8915 41.8251L51.9073 41.8462L51.9234 41.867L54.2915 40.0251ZM42.8491 40.1046L40.3398 38.4605L40.3326 38.4714L40.3256 38.4823L42.8491 40.1046ZM41.3394 53.613L44.3373 53.724L44.3373 53.724L41.3394 53.613ZM38.4983 80.3118C38.4983 81.5897 38.1713 82.0055 38.0334 82.1375C37.8709 82.293 37.3597 82.6357 35.936 82.6357V88.6357C38.2205 88.6357 40.4905 88.0911 42.1821 86.472C43.8983 84.8293 44.4983 82.5832 44.4983 80.3118H38.4983ZM35.936 82.6357C34.6325 82.6357 33.9617 82.3166 33.5881 81.999L29.7022 86.5707C31.4476 88.0543 33.6373 88.6357 35.936 88.6357V82.6357ZM33.5881 81.999C33.3658 81.8101 33.0559 81.4249 33.0559 80.3118H27.0559C27.0559 82.695 27.8055 84.9585 29.7022 86.5707L33.5881 81.999ZM33.0559 80.3118V48.8453H27.0559V80.3118H33.0559ZM33.0559 48.8453C33.0559 41.8051 34.509 37.5458 36.6817 35.2568L32.3298 31.1262C28.5694 35.0881 27.0559 41.2647 27.0559 48.8453H33.0559ZM36.6817 35.2568C38.8632 32.9584 42.5471 31.5033 48.4114 31.5033V25.5033C41.6679 25.5033 36.0814 27.1737 32.3298 31.1262L36.6817 35.2568ZM48.4114 31.5033C54.4379 31.5033 58.2673 32.987 60.5574 35.356L64.8713 31.1859C61.0164 27.1981 55.3105 25.5033 48.4114 25.5033V31.5033ZM60.5574 35.356C62.8347 37.7118 64.3231 41.9534 64.3231 48.8453H70.3231C70.3231 41.3283 68.739 35.187 64.8713 31.1859L60.5574 35.356ZM64.3231 48.8453V80.3118H70.3231V48.8453H64.3231ZM64.3231 80.3118C64.3231 81.5897 63.9961 82.0055 63.8582 82.1375C63.6957 82.293 63.1845 82.6357 61.7608 82.6357V88.6357C64.0453 88.6357 66.3153 88.0911 68.0069 86.472C69.7231 84.8293 70.3231 82.5832 70.3231 80.3118H64.3231ZM61.7608 82.6357C60.4573 82.6357 59.7864 82.3166 59.4129 81.999L55.527 86.5707C57.2724 88.0543 59.4621 88.6357 61.7608 88.6357V82.6357ZM59.4129 81.999C59.1906 81.8101 58.8807 81.4249 58.8807 80.3118H52.8807C52.8807 82.695 53.6303 84.9585 55.527 86.5707L59.4129 81.999ZM58.8807 80.3118V61.1617H52.8807V80.3118H58.8807ZM53.8803 58.926C53.0629 59.6574 52.1569 60.284 51.1557 60.8063L53.9311 66.1259C55.3666 65.3769 56.6855 64.4672 57.8811 63.3975L53.8803 58.926ZM51.1068 60.8324C50.4612 61.1846 49.5973 61.4196 48.4114 61.4196V67.4196C50.4039 67.4196 52.2947 67.019 53.9799 66.0998L51.1068 60.8324ZM48.4114 61.4196C45.8061 61.4196 43.3102 61.8774 41.4025 63.2648L44.9315 68.1172C45.3546 67.8095 46.355 67.4196 48.4114 67.4196V61.4196ZM41.3488 63.3047C39.1538 64.9771 38.4983 67.6396 38.4983 70.2203H44.4983C44.4983 68.4571 44.9552 68.1001 44.9851 68.0773L41.3488 63.3047ZM38.4983 70.2203V80.3118H44.4983V70.2203H38.4983ZM43.1429 59.1511C43.6946 58.5993 44.3613 58.1536 45.1769 57.8199L42.9052 52.2666C41.3899 52.8865 40.0436 53.765 38.9002 54.9084L43.1429 59.1511ZM45.1342 57.837C45.9181 57.5302 46.9851 57.3281 48.4114 57.3281V51.3281C46.4474 51.3281 44.6008 51.6027 42.9479 52.2495L45.1342 57.837ZM48.4114 57.3281C50.519 57.3281 52.4019 57.1689 53.8822 56.7248L52.1581 50.9779C51.5194 51.1695 50.3298 51.3281 48.4114 51.3281V57.3281ZM53.8443 56.7359C55.6398 56.2229 57.1851 55.1155 58.0389 53.3011L52.61 50.7463C52.592 50.7848 52.5824 50.7928 52.5664 50.8056C52.5409 50.8258 52.4409 50.8968 52.196 50.9668L53.8443 56.7359ZM58.039 53.3011C58.743 51.805 58.9602 49.9551 58.9602 48.0507H52.9602C52.9602 49.6426 52.7536 50.4413 52.61 50.7463L58.039 53.3011ZM58.9602 48.0507C58.9602 45.9659 58.8138 44.0979 58.4802 42.4935C58.1521 40.9154 57.6034 39.3968 56.6596 38.1833L51.9234 41.867C52.0921 42.0838 52.3777 42.6179 52.6058 43.715C52.8285 44.7858 52.9602 46.2154 52.9602 48.0507H58.9602ZM56.6915 38.2251C54.758 35.6471 51.6116 34.8002 48.3319 34.8002V40.8002C50.7734 40.8002 51.6001 41.4366 51.8915 41.8251L56.6915 38.2251ZM48.3319 34.8002C45.1543 34.8002 42.1213 35.7413 40.3398 38.4605L45.3585 41.7487C45.59 41.3954 46.2121 40.8002 48.3319 40.8002V34.8002ZM40.3256 38.4823C39.5421 39.7011 39.0917 41.2039 38.8204 42.7714C38.5431 44.3735 38.4188 46.2518 38.4188 48.3685H44.4188C44.4188 46.4592 44.533 44.9473 44.7325 43.7947C44.9379 42.6075 45.2026 41.9914 45.3727 41.7269L40.3256 38.4823ZM38.4188 48.3685C38.4188 50.4122 38.3926 52.1208 38.3414 53.5019L44.3373 53.724C44.3921 52.2445 44.4188 50.4569 44.4188 48.3685H38.4188ZM38.3414 53.5019C38.2909 54.8669 38.1926 55.8388 38.0729 56.4769L43.9702 57.5826C44.1684 56.5256 44.2819 55.2196 44.3373 53.724L38.3414 53.5019ZM82.9403 83.8081L85.2073 81.8433L85.2073 81.8433L82.9403 83.8081ZM82.6224 39.5484L79.7319 38.7454L79.7214 38.783L79.712 38.8208L82.6224 39.5484ZM85.483 34.2245L83.1901 32.2899L83.1844 32.2967L85.483 34.2245ZM91.522 30.0925L90.3883 27.315L90.3883 27.315L91.522 30.0925ZM114.645 32.6353L116.648 30.4016L116.648 30.4016L114.645 32.6353ZM117.983 51.1497L115.254 49.9024L115.239 49.935L115.225 49.9679L117.983 51.1497ZM114.327 55.3611L112.821 52.7667L107.764 55.7029L113.099 58.0979L114.327 55.3611ZM119.89 60.2082L117.248 61.6305L117.262 61.6565L117.277 61.6822L119.89 60.2082ZM116.711 80.868L114.783 78.5695L114.774 78.5772L114.765 78.585L116.711 80.868ZM92.7934 53.9308L89.8448 53.3779L95.1217 55.8226L92.7934 53.9308ZM96.1308 51.9443L95.2687 49.0708L95.2551 49.0749L95.2416 49.0791L96.1308 51.9443ZM106.779 49.8783L104.657 47.757L104.657 47.757L106.779 49.8783ZM106.54 39.3895L104.32 41.4075L104.368 41.4603L104.419 41.5108L106.54 39.3895ZM95.1772 39.31L93.2017 37.0523L93.1778 37.0731L93.1544 37.0945L95.1772 39.31ZM93.2702 49.0042L90.2743 48.8465L90.2702 48.9253V49.0042H93.2702ZM93.1112 51.547L90.1414 51.1227L90.1264 51.2276L90.1189 51.3332L93.1112 51.547ZM93.3496 75.7825H90.3496V78.7825H93.3496V75.7825ZM108.288 74.1139L106.313 71.8561L106.289 71.877L106.265 71.8984L108.288 74.1139ZM108.209 61.4001L105.931 63.3525L105.951 63.3755L105.971 63.3982L108.209 61.4001ZM96.6075 60.0493L97.8037 62.8005L97.8532 62.779L97.9019 62.7557L96.6075 60.0493ZM94.0648 62.9099L91.2298 61.9285L91.2298 61.9285L94.0648 62.9099ZM85.483 82C85.4297 82 85.3994 81.9949 85.3865 81.9921C85.3743 81.9895 85.369 81.9872 85.3657 81.9856C85.3622 81.984 85.3491 81.9776 85.3255 81.9593C85.3012 81.9404 85.2608 81.905 85.2073 81.8433L80.6732 85.7729C81.9026 87.1914 83.563 88 85.483 88V82ZM85.2073 81.8433C85.0652 81.6793 84.9073 81.4066 84.9073 80.7886H78.9073C78.9073 82.6074 79.438 84.3476 80.6732 85.7729L85.2073 81.8433ZM84.9073 80.7886V45.0312H78.9073V80.7886H84.9073ZM84.9073 45.0312C84.9073 43.5565 85.1083 41.9741 85.5328 40.276L79.712 38.8208C79.183 40.9368 78.9073 43.0095 78.9073 45.0312H84.9073ZM85.513 40.3513C85.9187 38.8905 86.6565 37.4937 87.7816 36.1523L83.1844 32.2967C81.5548 34.2396 80.3856 36.3921 79.7319 38.7454L85.513 40.3513ZM87.7759 36.1591C88.8218 34.9195 90.3931 33.7936 92.6557 32.8701L90.3883 27.315C87.4595 28.5104 85.0048 30.1392 83.1901 32.2899L87.7759 36.1591ZM92.6557 32.8701C94.7597 32.0113 97.7232 31.5033 101.693 31.5033V25.5033C97.2929 25.5033 93.4758 26.0548 90.3883 27.315L92.6557 32.8701ZM101.693 31.5033C106.777 31.5033 110.288 32.7576 112.643 34.869L116.648 30.4016C112.858 27.0036 107.734 25.5033 101.693 25.5033V31.5033ZM112.643 34.869C114.887 36.881 116.254 40.0742 116.254 45.0312H122.254C122.254 38.9696 120.549 33.8989 116.648 30.4016L112.643 34.869ZM116.254 45.0312C116.254 46.8654 115.907 48.4744 115.254 49.9024L120.711 52.3969C121.753 50.1168 122.254 47.6467 122.254 45.0312H116.254ZM115.225 49.9679C114.668 51.2681 113.869 52.1581 112.821 52.7667L115.834 57.9555C118.07 56.657 119.708 54.7394 120.74 52.3314L115.225 49.9679ZM113.099 58.0979C115.223 59.0518 116.511 60.2618 117.248 61.6305L122.531 58.7859C121.043 56.0226 118.623 54.0012 115.556 52.6243L113.099 58.0979ZM117.277 61.6822C118.087 63.1187 118.638 65.3958 118.638 68.79H124.638C124.638 64.8737 124.023 61.4297 122.502 58.7342L117.277 61.6822ZM118.638 68.79C118.638 73.4286 117.231 76.5168 114.783 78.5695L118.639 83.1666C122.76 79.7099 124.638 74.7461 124.638 68.79H118.638ZM114.765 78.585C112.319 80.6703 108.161 82 101.693 82V88C108.786 88 114.641 86.575 118.657 83.1511L114.765 78.585ZM101.693 82H85.483V88H101.693V82ZM95.1217 55.8226C95.2995 55.6037 95.7964 55.1892 97.02 54.8095L95.2416 49.0791C93.3926 49.6529 91.6646 50.5627 90.4651 52.039L95.1217 55.8226ZM96.9928 54.8178C98.2374 54.4444 99.7894 54.2291 101.693 54.2291V48.2291C99.3587 48.2291 97.2025 48.4906 95.2687 49.0708L96.9928 54.8178ZM101.693 54.2291C104.312 54.2291 107.096 53.8036 108.9 51.9996L104.657 47.757C104.696 47.7183 104.582 47.8536 104.062 47.992C103.546 48.129 102.777 48.2291 101.693 48.2291V54.2291ZM108.9 51.9996C110.698 50.2016 111.209 47.5893 111.209 45.0312H105.209C105.209 47.0289 104.766 47.6479 104.657 47.757L108.9 51.9996ZM111.209 45.0312C111.209 42.0988 110.617 39.2236 108.661 37.2681L104.419 41.5108C104.688 41.7802 105.209 42.6661 105.209 45.0312H111.209ZM108.76 37.3714C106.942 35.3712 104.378 34.6413 101.693 34.6413V40.6413C103.352 40.6413 104.02 41.0769 104.32 41.4075L108.76 37.3714ZM101.693 34.6413C98.4246 34.6413 95.3183 35.2002 93.2017 37.0523L97.1527 41.5677C97.5789 41.1949 98.8165 40.6413 101.693 40.6413V34.6413ZM93.1544 37.0945C91.0125 39.0502 90.3496 42.0058 90.3496 45.0312H96.3496C96.3496 42.6532 96.9052 41.7947 97.2 41.5254L93.1544 37.0945ZM90.3496 45.0312C90.3496 46.649 90.3234 47.9147 90.2743 48.8465L96.266 49.1619C96.3229 48.0807 96.3496 46.6978 96.3496 45.0312H90.3496ZM90.2702 49.0042C90.2702 49.8521 90.2227 50.5534 90.1414 51.1227L96.0811 51.9712C96.2117 51.0572 96.2702 50.0635 96.2702 49.0042H90.2702ZM90.1189 51.3332C90.0752 51.9448 89.9859 52.6252 89.8448 53.3779L95.742 54.4837C95.9187 53.5412 96.0414 52.6324 96.1036 51.7607L90.1189 51.3332ZM93.3496 78.7825H101.693V72.7825H93.3496V78.7825ZM101.693 78.7825C105.015 78.7825 108.215 78.2434 110.311 76.3293L106.265 71.8984C105.925 72.2092 104.728 72.7825 101.693 72.7825V78.7825ZM110.264 76.3716C112.433 74.4739 113.195 71.6995 113.195 68.79H107.195C107.195 70.7541 106.687 71.5289 106.313 71.8561L110.264 76.3716ZM113.195 68.79C113.195 65.1029 112.513 61.7164 110.447 59.4021L105.971 63.3982C106.553 64.0504 107.195 65.5904 107.195 68.79H113.195ZM110.487 59.4477C108.386 56.9968 105.143 56.1752 101.693 56.1752V62.1752C104.388 62.1752 105.489 62.8369 105.931 63.3525L110.487 59.4477ZM101.693 56.1752C99.315 56.1752 97.1083 56.4843 95.3132 57.3429L97.9019 62.7557C98.5435 62.4488 99.7272 62.1752 101.693 62.1752V56.1752ZM95.4113 57.2981C93.3436 58.1971 91.9515 59.8438 91.2298 61.9285L96.8997 63.8912C97.1316 63.2213 97.4346 62.961 97.8037 62.8005L95.4113 57.2981ZM91.2298 61.9285C90.5915 63.7725 90.3496 66.1232 90.3496 68.79H96.3496C96.3496 66.3713 96.5845 64.8019 96.8997 63.8912L91.2298 61.9285ZM90.3496 68.79V75.7825H96.3496V68.79H90.3496ZM142.49 82.934L140.997 85.5361L141.013 85.5454L141.029 85.5545L142.49 82.934ZM135.1 73.8755L132.307 74.9713L132.313 74.9866L132.32 75.0018L135.1 73.8755ZM135.1 39.9457L132.325 38.807L132.318 38.8223L132.312 38.8377L135.1 39.9457ZM142.49 31.1255L141.063 28.4869L141.063 28.4869L142.49 31.1255ZM166.01 31.1255L164.565 33.7542L164.574 33.7592L164.583 33.7642L166.01 31.1255ZM173.321 39.9457L170.533 41.0537L170.539 41.0691L170.545 41.0843L173.321 39.9457ZM173.321 73.8755L170.54 72.7492L170.534 72.7644L170.528 72.7796L173.321 73.8755ZM166.01 82.934L167.489 85.5441L167.496 85.5401L167.503 85.5361L166.01 82.934ZM159.654 73.6371L158.009 71.1277L157.989 71.141L157.969 71.1547L159.654 73.6371ZM163.15 68.1543L160.293 67.24L160.284 67.266L160.276 67.2923L163.15 68.1543ZM163.15 45.6669L160.281 46.545L160.292 46.5804L160.304 46.6155L163.15 45.6669ZM159.654 40.4224L158.031 42.946L158.083 42.9793L158.136 43.0105L159.654 40.4224ZM148.847 40.4224L150.364 43.0105L150.397 42.9914L150.429 42.9714L148.847 40.4224ZM145.271 45.6669L142.419 44.7357L142.413 44.7538L142.408 44.772L145.271 45.6669ZM145.271 68.1543L142.398 69.0163L142.405 69.0426L142.414 69.0686L145.271 68.1543ZM148.847 73.6371L147.203 76.1465L147.203 76.1465L148.847 73.6371ZM154.25 82.6357C150.029 82.6357 146.638 81.8117 143.951 80.3136L141.029 85.5545C144.804 87.6586 149.254 88.6357 154.25 88.6357V82.6357ZM143.983 80.3319C141.449 78.8782 139.379 76.4479 137.881 72.7492L132.32 75.0018C134.212 79.6729 137.068 83.2817 140.997 85.5361L143.983 80.3319ZM137.893 72.7796C136.444 69.0885 135.637 63.8427 135.637 56.8708H129.637C129.637 64.2019 130.471 70.2926 132.307 74.9713L137.893 72.7796ZM135.637 56.8708C135.637 49.896 136.445 44.6839 137.888 41.0537L132.312 38.8377C130.471 43.4714 129.637 49.5428 129.637 56.8708H135.637ZM137.876 41.0843C139.367 37.4499 141.418 35.1161 143.917 33.7642L141.063 28.4869C137.099 30.6312 134.224 34.1775 132.325 38.807L137.876 41.0843ZM143.917 33.7642C146.613 32.3061 150.015 31.5033 154.25 31.5033V25.5033C149.267 25.5033 144.83 26.4487 141.063 28.4869L143.917 33.7642ZM154.25 31.5033C158.547 31.5033 161.938 32.3094 164.565 33.7542L167.456 28.4969C163.726 26.4453 159.277 25.5033 154.25 25.5033V31.5033ZM164.583 33.7642C167.072 35.1109 169.094 37.4327 170.533 41.0537L176.109 38.8377C174.263 34.1947 171.411 30.6365 167.438 28.4869L164.583 33.7642ZM170.545 41.0843C172.03 44.7031 172.864 49.9029 172.864 56.8708H178.864C178.864 49.5359 178.002 43.4522 176.096 38.807L170.545 41.0843ZM172.864 56.8708C172.864 63.8358 172.031 69.0694 170.54 72.7492L176.101 75.0018C178.001 70.3116 178.864 64.2089 178.864 56.8708H172.864ZM170.528 72.7796C169.082 76.4652 167.042 78.8836 164.517 80.3319L167.503 85.5361C171.442 83.2762 174.275 79.6556 176.113 74.9713L170.528 72.7796ZM164.531 80.324C161.912 81.8083 158.534 82.6357 154.25 82.6357V88.6357C159.29 88.6357 163.752 87.662 167.489 85.5441L164.531 80.324ZM154.25 78.1469C156.858 78.1469 159.273 77.521 161.338 76.1195L157.969 71.1547C157.068 71.7662 155.88 72.1469 154.25 72.1469V78.1469ZM161.298 76.1465C163.66 74.5988 165.124 72.0123 166.023 69.0163L160.276 67.2923C159.586 69.5937 158.72 70.6624 158.009 71.1277L161.298 76.1465ZM166.007 69.0686C166.995 65.9824 167.421 61.8586 167.421 56.8708H161.421C161.421 61.6303 161 65.0288 160.293 67.24L166.007 69.0686ZM167.421 56.8708C167.421 51.8444 166.998 47.7237 165.996 44.7182L160.304 46.6155C160.997 48.6955 161.421 52.0441 161.421 56.8708H167.421ZM166.018 44.7887C165.116 41.8395 163.624 39.2724 161.171 37.8344L158.136 43.0105C158.756 43.3736 159.595 44.3027 160.281 46.545L166.018 44.7887ZM161.276 37.8989C159.219 36.5765 156.827 35.9921 154.25 35.9921V41.9921C155.911 41.9921 157.122 42.3614 158.031 42.946L161.276 37.8989ZM154.25 35.9921C151.707 35.9921 149.341 36.5849 147.265 37.8735L150.429 42.9714C151.425 42.3529 152.662 41.9921 154.25 41.9921V35.9921ZM147.33 37.8344C144.898 39.2597 143.378 41.8008 142.419 44.7357L148.123 46.5981C148.86 44.3414 149.723 43.3863 150.364 43.0105L147.33 37.8344ZM142.408 44.772C141.476 47.7538 141.079 51.8521 141.079 56.8708H147.079C147.079 52.0365 147.477 48.6654 148.135 46.5617L142.408 44.772ZM141.079 56.8708C141.079 61.8502 141.479 65.9529 142.398 69.0163L148.145 67.2922C147.474 65.0583 147.079 61.6387 147.079 56.8708H141.079ZM142.414 69.0686C143.368 72.0504 144.861 74.6121 147.203 76.1465L150.491 71.1277C149.76 70.649 148.869 69.5556 148.128 67.24L142.414 69.0686ZM147.203 76.1465C149.287 77.512 151.675 78.1469 154.25 78.1469V72.1469C152.693 72.1469 151.479 71.7752 150.491 71.1277L147.203 76.1465ZM193.953 80.868L191.866 83.0233L191.883 83.0401L191.901 83.0566L193.953 80.868ZM202.534 73.6371L200.339 75.6813L200.357 75.7013L200.376 75.7209L202.534 73.6371ZM224.307 80.7886L222.287 78.5703L222.287 78.5703L224.307 80.7886ZM208.653 82.6357C202.713 82.6357 198.657 81.1662 196.005 78.6794L191.901 83.0566C196.029 86.9267 201.773 88.6357 208.653 88.6357V82.6357ZM196.04 78.7128C193.484 76.2384 191.947 72.302 191.947 66.3267H185.947C185.947 73.277 187.747 79.0348 191.866 83.0233L196.04 78.7128ZM191.947 66.3267V34.7013H185.947V66.3267H191.947ZM191.947 34.7013C191.947 33.0408 192.335 32.3547 192.581 32.0876C192.786 31.866 193.288 31.5033 194.668 31.5033V25.5033C192.234 25.5033 189.875 26.1737 188.173 28.018C186.512 29.8169 185.947 32.2298 185.947 34.7013H191.947ZM194.668 31.5033C196.048 31.5033 196.55 31.866 196.754 32.0876C197.001 32.3547 197.389 33.0408 197.389 34.7013H203.389C203.389 32.2298 202.824 29.8169 201.163 28.018C199.461 26.1737 197.102 25.5033 194.668 25.5033V31.5033ZM197.389 34.7013V66.3267H203.389V34.7013H197.389ZM197.389 66.3267C197.389 69.9953 198.16 73.341 200.339 75.6813L204.73 71.5928C204.049 70.8607 203.389 69.3328 203.389 66.3267H197.389ZM200.376 75.7209C202.543 77.9654 205.431 78.9415 208.653 78.9415V72.9415C206.683 72.9415 205.492 72.3813 204.693 71.5533L200.376 75.7209ZM208.653 78.9415C212.3 78.9415 215.585 78.0192 217.935 75.6503C220.279 73.2859 221.188 69.9878 221.188 66.3267H215.188C215.188 69.0754 214.508 70.5847 213.674 71.4253C212.845 72.2613 211.363 72.9415 208.653 72.9415V78.9415ZM221.188 66.3267V34.7013H215.188V66.3267H221.188ZM221.188 34.7013C221.188 33.0408 221.576 32.3547 221.823 32.0876C222.028 31.866 222.529 31.5033 223.909 31.5033V25.5033C221.476 25.5033 219.117 26.1737 217.414 28.018C215.754 29.8169 215.188 32.2298 215.188 34.7013H221.188ZM223.909 31.5033C225.29 31.5033 225.791 31.866 225.996 32.0876C226.242 32.3547 226.631 33.0408 226.631 34.7013H232.631C232.631 32.2298 232.065 29.8169 230.405 28.018C228.702 26.1737 226.343 25.5033 223.909 25.5033V31.5033ZM226.631 34.7013V66.3267H232.631V34.7013H226.631ZM226.631 66.3267C226.631 72.189 225.022 76.0805 222.287 78.5703L226.326 83.0069C230.69 79.0339 232.631 73.2841 232.631 66.3267H226.631ZM222.287 78.5703C219.489 81.1174 215.115 82.6357 208.653 82.6357V88.6357C215.965 88.6357 222.026 86.9226 226.326 83.0069L222.287 78.5703ZM255.917 84.7616L254.619 87.4662L254.683 87.4969L254.748 87.5245L255.917 84.7616ZM255.202 41.0581L253.402 38.6581L253.402 38.6581L255.202 41.0581ZM257.268 39.8662L258.13 42.7397L257.268 36.8662V39.8662ZM239.072 38.1975L236.388 39.5392L236.426 39.6137L236.467 39.686L239.072 38.1975ZM239.151 31.0461L241.724 32.5896L241.74 32.5622L241.756 32.5345L239.151 31.0461ZM280.232 31.0461L277.628 32.5345L277.643 32.5622L277.66 32.5895L280.232 31.0461ZM280.232 38.1975L277.599 36.761L277.587 36.7832L277.575 36.8055L280.232 38.1975ZM265.373 39.8662V36.8662H262.373V39.8662H265.373ZM263.704 84.6822L262.216 82.0774L262.188 82.0933L262.161 82.1097L263.704 84.6822ZM259.97 82.6357C259.096 82.6357 258.141 82.4451 257.086 81.9987L254.748 87.5245C256.448 88.2435 258.195 88.6357 259.97 88.6357V82.6357ZM257.215 82.057C256.937 81.9232 256.906 81.839 256.934 81.8811C256.944 81.8968 256.947 81.9085 256.945 81.9026C256.943 81.8938 256.931 81.8454 256.931 81.7421H250.931C250.931 82.9305 251.224 84.1185 251.921 85.1788C252.611 86.2275 253.573 86.9643 254.619 87.4662L257.215 82.057ZM256.931 81.7421V44.5544H250.931V81.7421H256.931ZM256.931 44.5544C256.931 43.937 257.011 43.5922 257.068 43.4342C257.115 43.3037 257.119 43.3702 257.002 43.4581L253.402 38.6581C251.436 40.1326 250.931 42.4865 250.931 44.5544H256.931ZM257.002 43.4581C257.359 43.1903 257.641 43.0045 257.853 42.8819C258.076 42.7534 258.161 42.7305 258.13 42.7397L256.406 36.9927C255.355 37.308 254.322 37.968 253.402 38.6581L257.002 43.4581ZM257.268 36.8662H241.932V42.8662H257.268V36.8662ZM241.932 36.8662C241.833 36.8662 241.782 36.8555 241.766 36.8515C241.752 36.8481 241.759 36.8484 241.775 36.8577C241.791 36.8669 241.793 36.8718 241.78 36.8586C241.766 36.8437 241.728 36.8001 241.676 36.7091L236.467 39.686C237.631 41.7241 239.574 42.8662 241.932 42.8662V36.8662ZM241.755 36.8559C241.366 36.0774 241.197 35.3425 241.197 34.6218H235.197C235.197 36.3379 235.612 37.9868 236.388 39.5392L241.755 36.8559ZM241.197 34.6218C241.197 33.8006 241.388 33.1492 241.724 32.5896L236.579 29.5026C235.643 31.0619 235.197 32.7943 235.197 34.6218H241.197ZM241.756 32.5345C241.812 32.4353 241.854 32.3856 241.872 32.3667C241.888 32.3495 241.887 32.355 241.867 32.367C241.858 32.3724 241.848 32.3771 241.84 32.3807C241.831 32.3844 241.826 32.3857 241.826 32.3857C241.826 32.3856 241.834 32.3836 241.85 32.3816C241.867 32.3796 241.894 32.3774 241.932 32.3774V26.3774C239.571 26.3774 237.682 27.5698 236.546 29.5576L241.756 32.5345ZM241.932 32.3774H277.451V26.3774H241.932V32.3774ZM277.451 32.3774C277.489 32.3774 277.516 32.3796 277.533 32.3816C277.55 32.3836 277.557 32.3856 277.557 32.3857C277.558 32.3857 277.552 32.3844 277.544 32.3807C277.535 32.3771 277.526 32.3724 277.517 32.367C277.497 32.355 277.495 32.3495 277.511 32.3667C277.529 32.3856 277.571 32.4353 277.628 32.5345L282.837 29.5576C281.701 27.5698 279.813 26.3774 277.451 26.3774V32.3774ZM277.66 32.5895C277.996 33.1492 278.186 33.8006 278.186 34.6218H284.186C284.186 32.7943 283.74 31.0619 282.805 29.5026L277.66 32.5895ZM278.186 34.6218C278.186 35.2941 278.016 35.9958 277.599 36.761L282.866 39.6341C283.72 38.0685 284.186 36.3863 284.186 34.6218H278.186ZM277.575 36.8055C277.533 36.8849 277.507 36.9144 277.506 36.9148C277.506 36.9153 277.51 36.9103 277.52 36.9023C277.53 36.8942 277.542 36.8852 277.556 36.8766C277.588 36.8576 277.609 36.8524 277.604 36.8536C277.597 36.8554 277.55 36.8662 277.451 36.8662V42.8662C278.534 42.8662 279.637 42.6253 280.643 42.0215C281.652 41.4165 282.385 40.554 282.89 39.5896L277.575 36.8055ZM277.451 36.8662H265.373V42.8662H277.451V36.8662ZM262.373 39.8662V81.7421H268.373V39.8662H262.373ZM262.373 81.7421C262.373 81.8634 262.36 81.9344 262.353 81.9669C262.345 81.997 262.341 82.0002 262.347 81.9896C262.353 81.9785 262.357 81.9763 262.348 81.9856C262.336 81.9964 262.299 82.0301 262.216 82.0774L265.193 87.2869C267.278 86.0952 268.373 84.0983 268.373 81.7421H262.373ZM262.161 82.1097C261.637 82.424 260.943 82.6357 259.97 82.6357V88.6357C261.857 88.6357 263.653 88.2117 265.248 87.2546L262.161 82.1097ZM331.691 90.7212L329.176 89.0862L329.129 89.1582L329.087 89.2328L331.691 90.7212ZM325.017 85.6357H328.017V82.7157L325.098 82.6368L325.017 85.6357ZM318.898 85.0795L319.343 82.1127L319.311 82.1079L319.28 82.1038L318.898 85.0795ZM313.892 83.8875L315.046 81.1183L315.032 81.1124L315.018 81.1067L313.892 83.8875ZM311.906 75.7031L314.027 77.8244L311.906 75.7031ZM321.361 74.829L321.919 71.8813L321.919 71.8813L321.361 74.829ZM333.598 74.1139L335.128 76.6947L335.128 76.6947L333.598 74.1139ZM334.075 65.0553L331.954 67.1766L331.98 67.2025L332.006 67.2277L334.075 65.0553ZM327.639 62.0358L326.784 64.9114L326.79 64.9132L327.639 62.0358ZM314.846 55.52L312.724 57.6413L312.735 57.652L312.746 57.6627L314.846 55.52ZM314.766 34.3834L312.544 32.3674L312.543 32.3696L314.766 34.3834ZM325.017 28.9006L325.569 31.8492L328.017 31.3904V28.9006H325.017ZM332.724 28.5828H329.724V31.3353L332.467 31.5717L332.724 28.5828ZM340.511 30.2515L339.397 33.0369L339.42 33.0461L339.443 33.0549L340.511 30.2515ZM342.419 38.5154L344.54 40.6367L344.54 40.6367L342.419 38.5154ZM333.757 39.4689L333.149 42.4067L333.198 42.4168L333.248 42.4253L333.757 39.4689ZM324.063 40.1841L325.753 42.6627L325.753 42.6627L324.063 40.1841ZM324.778 48.7658L326.706 46.4673L326.706 46.4673L324.778 48.7658ZM333.837 52.8183L332.972 55.6909L332.98 55.6934L332.989 55.696L333.837 52.8183ZM344.246 58.8574L341.846 60.6574L341.855 60.6695L341.864 60.6816L344.246 58.8574ZM343.372 79.4377L345.617 81.4282L345.617 81.4282L343.372 79.4377ZM332.724 85L332.149 82.0557L329.724 82.5295V85H332.724ZM329.724 86.1919C329.724 87.867 329.419 88.7128 329.176 89.0862L334.207 92.3561C335.341 90.6106 335.724 88.4369 335.724 86.1919H329.724ZM329.087 89.2328C329.03 89.332 328.988 89.3817 328.97 89.4006C328.954 89.4177 328.956 89.4123 328.976 89.4002C328.985 89.3949 328.994 89.3902 329.003 89.3865C329.011 89.3829 329.017 89.3816 329.016 89.3816C329.016 89.3816 329.009 89.3836 328.992 89.3856C328.975 89.3877 328.948 89.3899 328.91 89.3899V95.3899C331.272 95.3899 333.16 94.1974 334.296 92.2096L329.087 89.2328ZM328.91 89.3899C328.578 89.3899 328.428 89.3363 328.388 89.3195C328.367 89.3105 328.37 89.3123 328.358 89.2965C328.296 89.2163 328.017 88.7464 328.017 87.3838H322.017C322.017 89.3586 322.386 91.3917 323.622 92.9802C324.969 94.7119 326.92 95.3899 328.91 95.3899V89.3899ZM328.017 87.3838V85.6357H322.017V87.3838H328.017ZM325.098 82.6368C323.27 82.5874 321.352 82.4141 319.343 82.1127L318.453 88.0463C320.682 88.3806 322.843 88.578 324.936 88.6346L325.098 82.6368ZM319.28 82.1038C317.358 81.8575 315.978 81.5069 315.046 81.1183L312.738 86.6568C314.348 87.3277 316.306 87.7717 318.517 88.0551L319.28 82.1038ZM315.018 81.1067C314.277 80.8071 313.951 80.4996 313.804 80.3002C313.676 80.1268 313.555 79.8643 313.555 79.3583H307.555C307.555 80.9712 307.989 82.5231 308.974 83.8594C309.939 85.1698 311.282 86.0674 312.766 86.6684L315.018 81.1067ZM313.555 79.3583C313.555 78.4423 313.802 78.0494 314.027 77.8244L309.784 73.5818C308.208 75.1578 307.555 77.2017 307.555 79.3583H313.555ZM314.027 77.8244C314.193 77.6587 314.75 77.2728 316.355 77.2728V71.2728C313.935 71.2728 311.526 71.8404 309.784 73.5818L314.027 77.8244ZM316.355 77.2728C317.483 77.2728 318.954 77.4267 320.804 77.7767L321.919 71.8813C319.849 71.4897 317.982 71.2728 316.355 71.2728V77.2728ZM320.804 77.7767C322.889 78.1713 324.805 78.3852 326.526 78.3852V72.3852C325.281 72.3852 323.754 72.2284 321.919 71.8813L320.804 77.7767ZM326.526 78.3852C329.917 78.3852 332.967 77.9749 335.128 76.6947L332.069 71.533C331.369 71.948 329.704 72.3852 326.526 72.3852V78.3852ZM335.128 76.6947C337.907 75.0479 338.744 71.9716 338.744 68.9489H332.744C332.744 71.1177 332.15 71.4847 332.069 71.533L335.128 76.6947ZM338.744 68.9489C338.744 66.5916 337.851 64.5086 336.144 62.8829L332.006 67.2277C332.524 67.721 332.744 68.2337 332.744 68.9489H338.744ZM336.196 62.934C334.553 61.2905 331.74 60.1183 328.488 59.1585L326.79 64.9132C330 65.8604 331.478 66.7011 331.954 67.1766L336.196 62.934ZM328.494 59.1602C322.811 57.4708 319.087 55.4767 316.945 53.3774L312.746 57.6627C315.901 60.7548 320.706 63.1045 326.784 64.9114L328.494 59.1602ZM316.967 53.3987C315.006 51.4383 313.952 48.8739 313.952 45.4285H307.952C307.952 50.247 309.493 54.4103 312.724 57.6413L316.967 53.3987ZM313.952 45.4285C313.952 41.4581 315.044 38.5457 316.99 36.3973L312.543 32.3696C309.403 35.8364 307.952 40.2874 307.952 45.4285H313.952ZM316.988 36.3994C319.093 34.0795 321.896 32.538 325.569 31.8492L324.464 25.952C319.661 26.8524 315.631 28.9662 312.544 32.3675L316.988 36.3994ZM328.017 28.9006V28.7417H322.017V28.9006H328.017ZM328.017 28.7417C328.017 26.8314 328.327 25.9029 328.548 25.541C328.632 25.4042 328.67 25.4013 328.641 25.4172C328.618 25.4298 328.676 25.3848 328.91 25.3848V19.3848C326.625 19.3848 324.655 20.4101 323.432 22.4071C322.355 24.1642 322.017 26.4141 322.017 28.7417H328.017ZM328.91 25.3848C329.133 25.3848 329.182 25.4274 329.15 25.4101C329.112 25.3893 329.14 25.3836 329.216 25.5066C329.421 25.8405 329.724 26.727 329.724 28.5828H335.724C335.724 26.3066 335.392 24.0941 334.326 22.362C333.113 20.3911 331.162 19.3848 328.91 19.3848V25.3848ZM332.467 31.5717C335.341 31.8195 337.629 32.3297 339.397 33.0369L341.626 27.466C339.156 26.4781 336.252 25.8758 332.982 25.5939L332.467 31.5717ZM339.443 33.0549C340.162 33.3286 340.466 33.6178 340.599 33.7991C340.718 33.9597 340.849 34.2301 340.849 34.7807H346.849C346.849 33.1594 346.424 31.5889 345.43 30.2399C344.451 28.9113 343.086 28.0219 341.579 27.448L339.443 33.0549ZM340.849 34.7807C340.849 35.6418 340.608 36.083 340.297 36.3941L344.54 40.6367C346.136 39.0407 346.849 36.9921 346.849 34.7807H340.849ZM340.297 36.3941C340.211 36.4798 339.712 36.8662 338.048 36.8662V42.8662C340.41 42.8662 342.824 42.3521 344.54 40.6367L340.297 36.3941ZM338.048 36.8662C336.921 36.8662 335.664 36.7533 334.267 36.5125L333.248 42.4253C334.923 42.7143 336.526 42.8662 338.048 42.8662V36.8662ZM334.365 36.5311C332.64 36.1743 330.927 35.9921 329.228 35.9921V41.9921C330.496 41.9921 331.802 42.1279 333.149 42.4067L334.365 36.5311ZM329.228 35.9921C326.686 35.9921 324.257 36.4206 322.373 37.7054L325.753 42.6627C326.199 42.3584 327.215 41.9921 329.228 41.9921V35.9921ZM322.373 37.7054C320.138 39.229 319.315 41.657 319.315 44.1571H325.315C325.315 42.949 325.657 42.7284 325.753 42.6627L322.373 37.7054ZM319.315 44.1571C319.315 46.9653 320.723 49.2803 322.85 51.0644L326.706 46.4673C325.549 45.4967 325.315 44.7392 325.315 44.1571H319.315ZM322.85 51.0644C324.995 52.8631 328.529 54.3529 332.972 55.6909L334.702 49.9458C330.35 48.6351 327.846 47.4232 326.706 46.4673L322.85 51.0644ZM332.989 55.696C337.77 57.1051 340.507 58.8717 341.846 60.6574L346.646 57.0574C344.171 53.7575 339.969 51.4981 334.685 49.9407L332.989 55.696ZM341.864 60.6816C343.284 62.5354 344.107 65.028 344.107 68.3927H350.107C350.107 64.0232 349.022 60.1588 346.628 57.0331L341.864 60.6816ZM344.107 68.3927C344.107 72.3794 343.032 75.3002 341.127 77.4473L345.617 81.4282C348.692 77.9601 350.107 73.5175 350.107 68.3927H344.107ZM341.127 77.4473C339.174 79.6499 336.277 81.2491 332.149 82.0557L333.3 87.9443C338.389 86.9498 342.59 84.8409 345.617 81.4282L341.127 77.4473ZM329.724 85V86.1919H335.724V85H329.724ZM361.224 83.8081L363.491 81.8433L363.491 81.8433L361.224 83.8081ZM360.906 39.5484L358.016 38.7454L358.005 38.783L357.996 38.8208L360.906 39.5484ZM363.767 34.2245L361.474 32.2899L361.468 32.2967L363.767 34.2245ZM369.806 30.0925L368.672 27.315L368.672 27.315L369.806 30.0925ZM392.929 32.6353L394.932 30.4016L394.932 30.4016L392.929 32.6353ZM396.266 51.1497L393.538 49.9024L393.523 49.935L393.509 49.9679L396.266 51.1497ZM392.611 55.3611L391.105 52.7667L386.048 55.7029L391.382 58.0979L392.611 55.3611ZM398.173 60.2082L395.532 61.6305L395.546 61.6565L395.56 61.6822L398.173 60.2082ZM394.995 80.868L393.067 78.5695L393.058 78.5772L393.049 78.585L394.995 80.868ZM371.077 53.9308L368.129 53.3779L373.406 55.8226L371.077 53.9308ZM374.415 51.9443L373.552 49.0708L373.539 49.0749L373.525 49.0791L374.415 51.9443ZM385.062 49.8783L382.941 47.757L382.941 47.757L385.062 49.8783ZM384.824 39.3895L382.604 41.4075L382.652 41.4603L382.703 41.5108L384.824 39.3895ZM373.461 39.31L371.485 37.0523L371.462 37.0731L371.438 37.0945L373.461 39.31ZM371.554 49.0042L368.558 48.8465L368.554 48.9253V49.0042H371.554ZM371.395 51.547L368.425 51.1227L368.41 51.2276L368.403 51.3332L371.395 51.547ZM371.633 75.7825H368.633V78.7825H371.633V75.7825ZM386.572 74.1139L384.597 71.8561L384.573 71.877L384.549 71.8984L386.572 74.1139ZM386.493 61.4001L384.215 63.3525L384.235 63.3755L384.255 63.3982L386.493 61.4001ZM374.891 60.0493L376.087 62.8005L376.137 62.779L376.186 62.7557L374.891 60.0493ZM372.349 62.9099L369.514 61.9285L369.514 61.9285L372.349 62.9099ZM363.767 82C363.714 82 363.683 81.9949 363.67 81.9921C363.658 81.9895 363.653 81.9872 363.65 81.9856C363.646 81.984 363.633 81.9776 363.609 81.9593C363.585 81.9404 363.545 81.905 363.491 81.8433L358.957 85.7729C360.186 87.1914 361.847 88 363.767 88V82ZM363.491 81.8433C363.349 81.6793 363.191 81.4066 363.191 80.7886H357.191C357.191 82.6074 357.722 84.3476 358.957 85.7729L363.491 81.8433ZM363.191 80.7886V45.0312H357.191V80.7886H363.191ZM363.191 45.0312C363.191 43.5565 363.392 41.9741 363.817 40.276L357.996 38.8208C357.467 40.9368 357.191 43.0095 357.191 45.0312H363.191ZM363.797 40.3513C364.203 38.8905 364.94 37.4937 366.065 36.1523L361.468 32.2967C359.839 34.2396 358.669 36.3921 358.016 38.7454L363.797 40.3513ZM366.06 36.1591C367.106 34.9195 368.677 33.7936 370.939 32.8701L368.672 27.315C365.743 28.5104 363.289 30.1392 361.474 32.2899L366.06 36.1591ZM370.939 32.8701C373.043 32.0113 376.007 31.5033 379.977 31.5033V25.5033C375.577 25.5033 371.76 26.0548 368.672 27.315L370.939 32.8701ZM379.977 31.5033C385.06 31.5033 388.571 32.7576 390.926 34.869L394.932 30.4016C391.142 27.0036 386.018 25.5033 379.977 25.5033V31.5033ZM390.926 34.869C393.17 36.881 394.538 40.0742 394.538 45.0312H400.538C400.538 38.9696 398.832 33.8989 394.932 30.4016L390.926 34.869ZM394.538 45.0312C394.538 46.8654 394.191 48.4744 393.538 49.9024L398.995 52.3969C400.037 50.1168 400.538 47.6467 400.538 45.0312H394.538ZM393.509 49.9679C392.952 51.2681 392.153 52.1581 391.105 52.7667L394.117 57.9555C396.354 56.657 397.992 54.7394 399.024 52.3314L393.509 49.9679ZM391.382 58.0979C393.507 59.0518 394.795 60.2618 395.532 61.6305L400.815 58.7859C399.327 56.0226 396.907 54.0012 393.84 52.6243L391.382 58.0979ZM395.56 61.6822C396.371 63.1187 396.921 65.3958 396.921 68.79H402.921C402.921 64.8737 402.307 61.4297 400.786 58.7342L395.56 61.6822ZM396.921 68.79C396.921 73.4286 395.514 76.5168 393.067 78.5695L396.923 83.1666C401.044 79.7099 402.921 74.7461 402.921 68.79H396.921ZM393.049 78.585C390.602 80.6703 386.445 82 379.977 82V88C387.07 88 392.925 86.575 396.941 83.1511L393.049 78.585ZM379.977 82H363.767V88H379.977V82ZM373.406 55.8226C373.583 55.6037 374.08 55.1892 375.304 54.8095L373.525 49.0791C371.676 49.6529 369.948 50.5627 368.749 52.039L373.406 55.8226ZM375.277 54.8178C376.521 54.4444 378.073 54.2291 379.977 54.2291V48.2291C377.642 48.2291 375.486 48.4906 373.552 49.0708L375.277 54.8178ZM379.977 54.2291C382.595 54.2291 385.38 53.8036 387.184 51.9996L382.941 47.757C382.98 47.7183 382.866 47.8536 382.345 47.992C381.83 48.129 381.061 48.2291 379.977 48.2291V54.2291ZM387.184 51.9996C388.982 50.2016 389.493 47.5893 389.493 45.0312H383.493C383.493 47.0289 383.05 47.6479 382.941 47.757L387.184 51.9996ZM389.493 45.0312C389.493 42.0988 388.901 39.2236 386.945 37.2681L382.703 41.5108C382.972 41.7802 383.493 42.6661 383.493 45.0312H389.493ZM387.044 37.3714C385.225 35.3712 382.662 34.6413 379.977 34.6413V40.6413C381.635 40.6413 382.304 41.0769 382.604 41.4075L387.044 37.3714ZM379.977 34.6413C376.708 34.6413 373.602 35.2002 371.485 37.0523L375.437 41.5677C375.863 41.1949 377.1 40.6413 379.977 40.6413V34.6413ZM371.438 37.0945C369.296 39.0502 368.633 42.0058 368.633 45.0312H374.633C374.633 42.6532 375.189 41.7947 375.484 41.5254L371.438 37.0945ZM368.633 45.0312C368.633 46.649 368.607 47.9147 368.558 48.8465L374.55 49.1619C374.607 48.0807 374.633 46.6978 374.633 45.0312H368.633ZM368.554 49.0042C368.554 49.8521 368.506 50.5534 368.425 51.1227L374.365 51.9712C374.495 51.0572 374.554 50.0635 374.554 49.0042H368.554ZM368.403 51.3332C368.359 51.9448 368.27 52.6252 368.129 53.3779L374.026 54.4837C374.203 53.5412 374.325 52.6324 374.387 51.7607L368.403 51.3332ZM371.633 78.7825H379.977V72.7825H371.633V78.7825ZM379.977 78.7825C383.298 78.7825 386.498 78.2434 388.595 76.3293L384.549 71.8984C384.209 72.2092 383.012 72.7825 379.977 72.7825V78.7825ZM388.548 76.3716C390.716 74.4739 391.479 71.6995 391.479 68.79H385.479C385.479 70.7541 384.971 71.5289 384.597 71.8561L388.548 76.3716ZM391.479 68.79C391.479 65.1029 390.797 61.7164 388.73 59.4021L384.255 63.3982C384.837 64.0504 385.479 65.5904 385.479 68.79H391.479ZM388.77 59.4477C386.67 56.9968 383.427 56.1752 379.977 56.1752V62.1752C382.672 62.1752 383.773 62.8369 384.215 63.3525L388.77 59.4477ZM379.977 56.1752C377.599 56.1752 375.392 56.4843 373.597 57.3429L376.186 62.7557C376.827 62.4488 378.011 62.1752 379.977 62.1752V56.1752ZM373.695 57.2981C371.627 58.1971 370.235 59.8438 369.514 61.9285L375.184 63.8912C375.415 63.2213 375.718 62.961 376.087 62.8005L373.695 57.2981ZM369.514 61.9285C368.875 63.7725 368.633 66.1232 368.633 68.79H374.633C374.633 66.3713 374.868 64.8019 375.184 63.8912L369.514 61.9285ZM368.633 68.79V75.7825H374.633V68.79H368.633ZM414.02 84.2849L412.145 86.6275L412.182 86.6567L412.22 86.6849L414.02 84.2849ZM417.277 32.8737L419.266 35.12L419.268 35.1179L417.277 32.8737ZM445.566 32.7942L443.483 34.9537L443.503 34.9727L443.523 34.9912L445.566 32.7942ZM449.936 50.4345L452.93 50.6217L452.93 50.616L449.936 50.4345ZM449.459 54.0103L446.592 53.128L446.578 53.1742L446.565 53.2209L449.459 54.0103ZM445.089 60.685L443.328 58.2561L440.205 60.5202L443.168 62.9896L445.089 60.685ZM439.606 84.4438L437.732 86.7864L437.768 86.8157L437.806 86.8438L439.606 84.4438ZM436.666 64.1812L434.24 65.9458L434.265 65.9811L434.292 66.0156L436.666 64.1812ZM425.462 64.3402L423.204 62.3646L423.198 62.3716L425.462 64.3402ZM423.237 55.9173L420.291 55.3508L418.695 63.6507L425.167 58.2144L423.237 55.9173ZM426.733 53.7719L427.637 56.6326L427.681 56.6187L427.724 56.6035L426.733 53.7719ZM437.063 52.8183L436.451 49.8814L436.439 49.8841L436.426 49.8868L437.063 52.8183ZM438.414 39.7073L436.003 41.493L436.041 41.5434L436.08 41.5923L438.414 39.7073ZM425.939 39.7073L423.737 37.6691L423.717 37.6914L423.696 37.7142L425.939 39.7073ZM423.793 51.8648L420.813 51.5209L420.807 51.5732L420.803 51.6256L423.793 51.8648ZM418.31 82.4768C416.928 82.4768 416.202 82.1713 415.82 81.8849L412.22 86.6849C413.957 87.9876 416.091 88.4768 418.31 88.4768V82.4768ZM415.894 81.9422C415.646 81.744 415.43 81.4704 415.43 80.7091H409.43C409.43 83.0204 410.274 85.1305 412.145 86.6275L415.894 81.9422ZM415.43 80.7091V46.382H409.43V80.7091H415.43ZM415.43 46.382C415.43 40.7216 416.913 37.2028 419.266 35.12L415.289 30.6274C411.179 34.2657 409.43 39.7524 409.43 46.382H415.43ZM419.268 35.1179C421.762 32.9057 426.003 31.5033 432.613 31.5033V25.5033C425.345 25.5033 419.362 27.0145 415.287 30.6294L419.268 35.1179ZM432.613 31.5033C437.801 31.5033 441.258 32.8079 443.483 34.9537L447.648 30.6347C443.94 27.0593 438.762 25.5033 432.613 25.5033V31.5033ZM443.523 34.9912C445.763 37.0747 447.095 40.2525 447.095 45.0312H453.095C453.095 39.1091 451.407 34.129 447.608 30.5972L443.523 34.9912ZM447.095 45.0312C447.095 46.8282 447.043 48.5687 446.941 50.253L452.93 50.616C453.04 48.804 453.095 46.9423 453.095 45.0312H447.095ZM446.942 50.2474C446.836 51.9381 446.689 52.8124 446.592 53.128L452.326 54.8925C452.653 53.8308 452.824 52.3213 452.93 50.6217L446.942 50.2474ZM446.565 53.2209C445.921 55.5814 444.81 57.1816 443.328 58.2561L446.85 63.1138C449.606 61.1158 451.408 58.2663 452.353 54.7996L446.565 53.2209ZM443.168 62.9896C445.49 64.9241 446.38 66.8864 446.38 68.9489H452.38C452.38 64.7604 450.409 61.2135 447.009 58.3803L443.168 62.9896ZM446.38 68.9489V80.7091H452.38V68.9489H446.38ZM446.38 80.7091C446.38 81.801 446.091 82.0946 446.004 82.1726C445.856 82.3053 445.337 82.6357 443.897 82.6357V88.6357C446.112 88.6357 448.334 88.1449 450.014 86.6355C451.755 85.0713 452.38 82.9016 452.38 80.7091H446.38ZM443.897 82.6357C442.514 82.6357 441.788 82.3302 441.406 82.0438L437.806 86.8438C439.543 88.1465 441.677 88.6357 443.897 88.6357V82.6357ZM441.48 82.1012C441.283 81.9436 441.017 81.6524 441.017 80.7091H435.017C435.017 83.0502 435.81 85.2488 437.732 86.7864L441.48 82.1012ZM441.017 80.7091V70.2203H435.017V80.7091H441.017ZM441.017 70.2203C441.017 67.2284 440.582 64.3431 439.04 62.3469L434.292 66.0156C434.551 66.3503 435.017 67.4909 435.017 70.2203H441.017ZM439.092 62.4167C437.345 60.0145 434.265 59.4331 431.422 59.4331V65.4331C432.552 65.4331 433.304 65.5608 433.77 65.7162C434.217 65.865 434.275 65.9936 434.24 65.9458L439.092 62.4167ZM431.422 59.4331C428.271 59.4331 425.179 60.1079 423.204 62.3647L427.72 66.3157C427.97 66.0297 428.851 65.4331 431.422 65.4331V59.4331ZM423.198 62.3716C421.365 64.4797 420.873 67.7594 420.873 71.1738H426.873C426.873 67.9135 427.44 66.6374 427.726 66.3087L423.198 62.3716ZM420.873 71.1738V80.7091H426.873V71.1738H420.873ZM420.873 80.7091C420.873 81.7048 420.604 81.9435 420.53 82.0071C420.367 82.1465 419.806 82.4768 418.31 82.4768V88.4768C420.524 88.4768 422.743 88.0124 424.435 86.5626C426.214 85.037 426.873 82.8919 426.873 80.7091H420.873ZM425.167 58.2144C426.358 57.214 427.17 56.7799 427.637 56.6326L425.83 50.9111C424.283 51.3996 422.765 52.3957 421.307 53.6202L425.167 58.2144ZM427.724 56.6035C428.313 56.3975 429.427 56.2156 431.263 56.2156V50.2156C429.178 50.2156 427.273 50.4046 425.742 50.9403L427.724 56.6035ZM431.263 56.2156C433.942 56.2156 436.148 56.0873 437.701 55.7499L436.426 49.8868C435.541 50.0791 433.88 50.2156 431.263 50.2156V56.2156ZM437.675 55.7553C439.485 55.3782 441.372 54.416 442.275 52.3521L436.778 49.9472C436.802 49.8928 436.836 49.8373 436.877 49.789C436.917 49.742 436.947 49.7205 436.95 49.7188C436.951 49.7183 436.918 49.7402 436.836 49.7724C436.754 49.8048 436.629 49.8444 436.451 49.8814L437.675 55.7553ZM442.275 52.3521C442.904 50.9146 443.083 49.0736 443.083 47.1766H437.083C437.083 48.8819 436.891 49.6896 436.778 49.9472L442.275 52.3521ZM443.083 47.1766C443.083 43.4821 442.556 40.061 440.748 37.8223L436.08 41.5923C436.497 42.1082 437.083 43.6667 437.083 47.1766H443.083ZM440.825 37.9216C438.934 35.369 435.813 34.5619 432.613 34.5619V40.5619C435.029 40.5619 435.775 41.185 436.003 41.493L440.825 37.9216ZM432.613 34.5619C429.143 34.5619 425.894 35.3402 423.737 37.6691L428.14 41.7455C428.632 41.2138 429.833 40.5619 432.613 40.5619V34.5619ZM423.696 37.7142C421.663 40.0014 421.032 43.4488 421.032 47.1766H427.032C427.032 43.8059 427.671 42.2738 428.181 41.7004L423.696 37.7142ZM421.032 47.1766C421.032 48.838 420.956 50.2827 420.813 51.5209L426.773 52.2087C426.948 50.6923 427.032 49.0116 427.032 47.1766H421.032ZM420.803 51.6256C420.706 52.8342 420.536 54.0757 420.291 55.3508L426.183 56.4839C426.468 55.0043 426.669 53.5441 426.784 52.104L420.803 51.6256ZM465.328 84.2849L467.271 81.999L467.271 81.999L465.328 84.2849ZM468.188 33.1915L470.364 35.2568L470.364 35.2568L468.188 33.1915ZM491.152 84.2849L493.095 81.999L493.095 81.999L491.152 84.2849ZM489.563 61.1617H492.563V54.452L487.563 58.926L489.563 61.1617ZM486.226 63.4661L484.838 60.8063L484.814 60.8192L484.789 60.8324L486.226 63.4661ZM476.85 65.691L475.085 63.2648L475.058 63.2845L475.031 63.3047L476.85 65.691ZM474.704 57.0298L471.755 56.4769L469.968 66.0081L476.825 59.1511L474.704 57.0298ZM477.724 55.0432L476.63 52.2495L476.609 52.2579L476.588 52.2666L477.724 55.0432ZM486.703 53.8513L485.879 50.9668L485.86 50.9722L485.841 50.9779L486.703 53.8513ZM489.007 52.0237L491.722 53.3011L491.722 53.3011L489.007 52.0237ZM487.974 40.0251L485.574 41.8251L485.59 41.8462L485.606 41.867L487.974 40.0251ZM476.532 40.1046L474.022 38.4605L474.015 38.4714L474.008 38.4823L476.532 40.1046ZM475.022 53.613L478.02 53.724L478.02 53.724L475.022 53.613ZM472.181 80.3118C472.181 81.5897 471.854 82.0055 471.716 82.1375C471.553 82.293 471.042 82.6357 469.619 82.6357V88.6357C471.903 88.6357 474.173 88.0911 475.865 86.472C477.581 84.8293 478.181 82.5832 478.181 80.3118H472.181ZM469.619 82.6357C468.315 82.6357 467.644 82.3166 467.271 81.999L463.385 86.5707C465.13 88.0543 467.32 88.6357 469.619 88.6357V82.6357ZM467.271 81.999C467.048 81.8101 466.738 81.4249 466.738 80.3118H460.738C460.738 82.695 461.488 84.9585 463.385 86.5707L467.271 81.999ZM466.738 80.3118V48.8453H460.738V80.3118H466.738ZM466.738 48.8453C466.738 41.8051 468.192 37.5458 470.364 35.2568L466.012 31.1262C462.252 35.0881 460.738 41.2647 460.738 48.8453H466.738ZM470.364 35.2568C472.546 32.9584 476.23 31.5033 482.094 31.5033V25.5033C475.35 25.5033 469.764 27.1737 466.012 31.1262L470.364 35.2568ZM482.094 31.5033C488.121 31.5033 491.95 32.987 494.24 35.356L498.554 31.1859C494.699 27.1981 488.993 25.5033 482.094 25.5033V31.5033ZM494.24 35.356C496.517 37.7118 498.006 41.9534 498.006 48.8453H504.006C504.006 41.3283 502.422 35.187 498.554 31.1859L494.24 35.356ZM498.006 48.8453V80.3118H504.006V48.8453H498.006ZM498.006 80.3118C498.006 81.5897 497.679 82.0055 497.541 82.1375C497.378 82.293 496.867 82.6357 495.443 82.6357V88.6357C497.728 88.6357 499.998 88.0911 501.689 86.472C503.406 84.8293 504.006 82.5832 504.006 80.3118H498.006ZM495.443 82.6357C494.14 82.6357 493.469 82.3166 493.095 81.999L489.21 86.5707C490.955 88.0543 493.145 88.6357 495.443 88.6357V82.6357ZM493.095 81.999C492.873 81.8101 492.563 81.4249 492.563 80.3118H486.563C486.563 82.695 487.313 84.9585 489.21 86.5707L493.095 81.999ZM492.563 80.3118V61.1617H486.563V80.3118H492.563ZM487.563 58.926C486.745 59.6574 485.839 60.284 484.838 60.8063L487.614 66.1259C489.049 65.3769 490.368 64.4672 491.564 63.3975L487.563 58.926ZM484.789 60.8324C484.144 61.1846 483.28 61.4196 482.094 61.4196V67.4196C484.086 67.4196 485.977 67.019 487.662 66.0998L484.789 60.8324ZM482.094 61.4196C479.489 61.4196 476.993 61.8774 475.085 63.2648L478.614 68.1172C479.037 67.8095 480.038 67.4196 482.094 67.4196V61.4196ZM475.031 63.3047C472.836 64.9771 472.181 67.6396 472.181 70.2203H478.181C478.181 68.4571 478.638 68.1001 478.668 68.0773L475.031 63.3047ZM472.181 70.2203V80.3118H478.181V70.2203H472.181ZM476.825 59.1511C477.377 58.5993 478.044 58.1536 478.86 57.8199L476.588 52.2666C475.072 52.8865 473.726 53.765 472.583 54.9084L476.825 59.1511ZM478.817 57.837C479.601 57.5302 480.668 57.3281 482.094 57.3281V51.3281C480.13 51.3281 478.283 51.6027 476.63 52.2495L478.817 57.837ZM482.094 57.3281C484.202 57.3281 486.084 57.1689 487.565 56.7248L485.841 50.9779C485.202 51.1695 484.012 51.3281 482.094 51.3281V57.3281ZM487.527 56.7359C489.322 56.2229 490.868 55.1155 491.722 53.3011L486.293 50.7463C486.275 50.7848 486.265 50.7928 486.249 50.8056C486.223 50.8258 486.123 50.8968 485.879 50.9668L487.527 56.7359ZM491.722 53.3011C492.426 51.805 492.643 49.9551 492.643 48.0507H486.643C486.643 49.6426 486.436 50.4413 486.293 50.7463L491.722 53.3011ZM492.643 48.0507C492.643 45.9659 492.496 44.0979 492.163 42.4935C491.835 40.9154 491.286 39.3968 490.342 38.1833L485.606 41.867C485.775 42.0838 486.06 42.6179 486.288 43.715C486.511 44.7858 486.643 46.2154 486.643 48.0507H492.643ZM490.374 38.2251C488.441 35.6471 485.294 34.8002 482.014 34.8002V40.8002C484.456 40.8002 485.283 41.4366 485.574 41.8251L490.374 38.2251ZM482.014 34.8002C478.837 34.8002 475.804 35.7413 474.022 38.4605L479.041 41.7487C479.273 41.3954 479.895 40.8002 482.014 40.8002V34.8002ZM474.008 38.4823C473.225 39.7011 472.774 41.2039 472.503 42.7714C472.226 44.3735 472.101 46.2518 472.101 48.3685H478.101C478.101 46.4592 478.216 44.9473 478.415 43.7947C478.62 42.6075 478.885 41.9914 479.055 41.7269L474.008 38.4823ZM472.101 48.3685C472.101 50.4122 472.075 52.1208 472.024 53.5019L478.02 53.724C478.075 52.2445 478.101 50.4569 478.101 48.3685H472.101ZM472.024 53.5019C471.973 54.8669 471.875 55.8388 471.755 56.4769L477.653 57.5826C477.851 56.5256 477.964 55.2196 478.02 53.724L472.024 53.5019ZM517.105 29.7747L515.049 27.5901L515.049 27.5901L517.105 29.7747ZM525.846 84.3643L527.967 86.4856L527.967 86.4856L525.846 84.3643ZM521.634 82.6357C520.067 82.6357 519.452 82.2745 519.238 82.0808C519.081 81.9384 518.754 81.5429 518.754 80.3118H512.754C512.754 82.63 513.408 84.8964 515.211 86.5286C516.957 88.1095 519.282 88.6357 521.634 88.6357V82.6357ZM518.754 80.3118V33.8272H512.754V80.3118H518.754ZM518.754 33.8272C518.754 32.3883 519.109 32.0087 519.161 31.9593L515.049 27.5901C513.301 29.2358 512.754 31.558 512.754 33.8272H518.754ZM519.161 31.9593C519.257 31.8693 519.772 31.5033 521.396 31.5033V25.5033C519.1 25.5033 516.755 25.9849 515.049 27.5901L519.161 31.9593ZM521.396 31.5033C522.928 31.5033 523.517 31.8602 523.718 32.0445C523.87 32.1841 524.197 32.5843 524.197 33.8272H530.197C530.197 31.5208 529.557 29.2591 527.775 27.6241C526.042 26.0337 523.731 25.5033 521.396 25.5033V31.5033ZM524.197 33.8272V80.3118H530.197V33.8272H524.197ZM524.197 80.3118C524.197 81.6505 523.864 82.1035 523.725 82.243L527.967 86.4856C529.629 84.824 530.197 82.5754 530.197 80.3118H524.197ZM523.725 82.243C523.707 82.2604 523.281 82.6357 521.634 82.6357V88.6357C523.908 88.6357 526.289 88.1634 527.967 86.4856L523.725 82.243ZM543.656 84.2849L545.599 81.999L545.599 81.999L543.656 84.2849ZM544.053 37.1645L546.792 38.3875L546.796 38.3785L546.8 38.3695L544.053 37.1645ZM550.569 30.5693L549.324 27.8398L549.324 27.8398L550.569 30.5693ZM577.744 33.1915L575.711 35.3972L575.729 35.4137L575.747 35.4299L577.744 33.1915ZM573.056 84.2849L574.999 81.999L574.999 81.999L573.056 84.2849ZM569.401 40.7403L567.037 42.5872L567.069 42.6282L567.102 42.6681L569.401 40.7403ZM556.926 39.31L555.46 36.6925L555.46 36.6925L556.926 39.31ZM554.224 42.8063L557.097 43.6683L557.097 43.6683L554.224 42.8063ZM550.509 80.3118C550.509 81.5897 550.182 82.0055 550.044 82.1375C549.881 82.293 549.37 82.6357 547.947 82.6357V88.6357C550.231 88.6357 552.501 88.0911 554.193 86.472C555.909 84.8293 556.509 82.5832 556.509 80.3118H550.509ZM547.947 82.6357C546.643 82.6357 545.972 82.3166 545.599 81.999L541.713 86.5707C543.458 88.0543 545.648 88.6357 547.947 88.6357V82.6357ZM545.599 81.999C545.376 81.8101 545.066 81.4249 545.066 80.3118H539.066C539.066 82.695 539.816 84.9585 541.713 86.5707L545.599 81.999ZM545.066 80.3118V49.0837H539.066V80.3118H545.066ZM545.066 49.0837C545.066 44.3232 545.707 40.8196 546.792 38.3875L541.314 35.9416C539.751 39.4426 539.066 43.8851 539.066 49.0837H545.066ZM546.8 38.3695C547.826 36.0305 549.461 34.3721 551.814 33.2988L549.324 27.8398C545.638 29.5211 542.928 32.2596 541.306 35.9596L546.8 38.3695ZM551.814 33.2988C554.294 32.1676 557.843 31.5033 562.647 31.5033V25.5033C557.386 25.5033 552.883 26.2163 549.324 27.8398L551.814 33.2988ZM562.647 31.5033C568.902 31.5033 573.079 32.9709 575.711 35.3972L579.778 30.9858C575.629 27.1612 569.741 25.5033 562.647 25.5033V31.5033ZM575.747 35.4299C578.245 37.6591 579.909 41.8928 579.909 49.0837H585.909C585.909 41.2299 584.13 34.8689 579.742 30.9531L575.747 35.4299ZM579.909 49.0837V80.3118H585.909V49.0837H579.909ZM579.909 80.3118C579.909 81.5897 579.582 82.0055 579.444 82.1375C579.282 82.293 578.771 82.6357 577.347 82.6357V88.6357C579.632 88.6357 581.901 88.0911 583.593 86.472C585.309 84.8293 585.909 82.5832 585.909 80.3118H579.909ZM577.347 82.6357C576.044 82.6357 575.373 82.3166 574.999 81.999L571.113 86.5707C572.859 88.0543 575.048 88.6357 577.347 88.6357V82.6357ZM574.999 81.999C574.777 81.8101 574.467 81.4249 574.467 80.3118H568.467C568.467 82.695 569.217 84.9585 571.113 86.5707L574.999 81.999ZM574.467 80.3118V49.0837H568.467V80.3118H574.467ZM574.467 49.0837C574.467 44.9757 573.778 41.2901 571.7 38.8125L567.102 42.6681C567.779 43.4749 568.467 45.3515 568.467 49.0837H574.467ZM571.765 38.8934C569.64 36.1738 566.292 35.1975 562.647 35.1975V41.1975C565.358 41.1975 566.513 41.9165 567.037 42.5872L571.765 38.8934ZM562.647 35.1975C559.936 35.1975 557.432 35.5879 555.46 36.6925L558.391 41.9275C559.068 41.5488 560.378 41.1975 562.647 41.1975V35.1975ZM555.46 36.6925C553.39 37.8516 552.028 39.6854 551.35 41.9442L557.097 43.6683C557.373 42.7487 557.813 42.2517 558.391 41.9275L555.46 36.6925ZM551.35 41.9442C550.756 43.9244 550.509 46.3409 550.509 49.0837H556.509C556.509 46.635 556.738 44.8666 557.097 43.6683L551.35 41.9442ZM550.509 49.0837V80.3118H556.509V49.0837H550.509Z" fill="black" mask="url(#path-1-outside-1_431_211)"/>
</svg>
