<svg width="639" height="242" viewBox="0 0 639 242" fill="none" xmlns="http://www.w3.org/2000/svg">
<mask id="path-1-outside-1_431_210" maskUnits="userSpaceOnUse" x="34.9829" y="34.9871" width="565.046" height="173.078" fill="black">
<rect fill="white" x="34.9829" y="34.9871" width="565.046" height="173.078"/>
<path d="M92.5365 186.954C92.5901 191.212 91.8834 194.501 90.4165 196.821C89.066 199.255 87.0674 200.489 84.4207 200.522C78.7821 200.593 75.9171 197.004 75.8258 189.754L75.778 185.957C71.5188 185.895 67.0834 185.548 62.4717 184.916C57.9766 184.397 54.3409 183.58 51.5646 182.464C46.7068 180.568 44.249 177.319 44.191 172.716C44.149 169.379 45.0937 166.72 47.0254 164.739C49.0706 162.642 52.2796 161.565 56.6525 161.51C59.6444 161.473 63.2743 161.83 67.5422 162.582C71.8101 163.333 75.555 163.689 78.7771 163.649C85.9117 163.559 91.0209 162.574 94.1047 160.693C97.1885 158.813 98.6949 155.053 98.6239 149.415C98.5819 146.078 97.3381 143.274 94.8925 141.003C92.562 138.73 87.874 136.602 80.8284 134.619C68.0073 130.983 58.6845 126.382 52.8597 120.815C47.1501 115.248 44.2387 107.976 44.1257 99.0003C44.001 89.1039 46.662 81.0715 52.1088 74.903C57.6691 68.618 65.0414 64.5544 74.2256 62.7124L74.2212 62.3671C74.1053 53.1612 76.8666 48.5227 82.5053 48.4517C88.0288 48.3821 90.8471 52.8352 90.9602 61.811C97.6417 62.3023 103.296 63.4396 107.922 65.2228C112.778 67.0031 115.236 70.2523 115.295 74.9703C115.337 78.3074 114.336 81.0247 112.291 83.1222C110.359 85.1031 107.207 86.121 102.834 86.1761C99.957 86.2124 96.8464 85.9638 93.502 85.4305C90.1561 84.7821 86.8722 84.4782 83.6501 84.5187C78.7019 84.5811 74.9729 85.4912 72.463 87.2492C69.9531 89.0072 68.7235 91.9 68.7743 95.9276C68.8206 99.61 70.6463 102.925 74.2513 105.872C77.8563 108.819 84.4525 111.67 94.0399 114.427C105.012 117.511 112.605 121.789 116.817 127.261C121.028 132.617 123.186 139.495 123.292 147.896C123.417 157.792 120.813 165.824 115.482 171.991C110.15 178.158 102.491 182.283 92.5039 184.365L92.5365 186.954ZM151.306 183.624C149.12 183.652 147.268 182.812 145.75 181.105C144.232 179.397 143.457 177.22 143.424 174.574L142.445 96.8987C142.397 93.1012 142.865 89.1247 143.849 84.969C144.947 80.8118 146.97 76.9307 149.917 73.3257C152.978 69.6042 157.313 66.5572 162.922 64.1847C168.532 61.8122 175.882 60.5687 184.973 60.4542C197.056 60.302 206.472 63.1758 213.222 69.0756C219.971 74.9754 223.422 83.9091 223.572 95.8768C223.633 100.71 222.768 105.152 220.978 109.203C219.303 113.252 216.694 116.335 213.153 118.451C218.824 120.912 222.895 124.371 225.368 128.828C227.957 133.284 229.301 139.482 229.401 147.422C229.546 158.93 226.089 167.72 219.029 173.794C212.085 179.866 201.248 182.995 186.519 183.181L151.306 183.624ZM166.336 115.933C167.809 114.073 170.208 112.604 173.532 111.527C176.971 110.448 180.992 109.879 185.595 109.821C191.003 109.753 194.673 108.728 196.605 106.747C198.65 104.65 199.642 101.127 199.579 96.179C199.507 90.4253 198.247 86.3554 195.8 83.9693C193.467 81.4667 189.941 80.2451 185.223 80.3045C178.549 80.3886 173.846 81.6563 171.115 84.1076C168.498 86.5575 167.227 90.7168 167.301 96.5856C167.346 100.153 167.325 103.03 167.237 105.218C167.263 107.29 167.171 109.132 166.962 110.746C166.867 112.359 166.658 114.088 166.336 115.933ZM168.143 163.386L186.267 163.158C193.171 163.071 197.932 161.802 200.548 159.353C203.279 156.901 204.611 153.029 204.545 147.735C204.451 140.256 202.945 134.923 200.027 131.737C197.225 128.55 192.487 126.998 185.812 127.082C181.094 127.142 177.42 127.821 174.789 129.12C172.157 130.304 170.342 132.399 169.344 135.404C168.346 138.409 167.882 142.673 167.951 148.196L168.143 163.386ZM261.173 183.276C257.26 183.325 254.142 182.502 251.819 180.804C249.494 178.992 248.311 176.418 248.269 173.08L247.33 98.5124C247.162 85.1638 250.548 75.3383 257.49 69.0359C264.544 62.617 275.609 59.3126 290.684 59.1227C302.997 58.9676 312.414 61.9565 318.937 68.0893C325.573 74.1056 328.964 82.925 329.111 94.5475C329.161 98.5751 329.095 102.489 328.913 106.289C328.729 109.975 328.417 112.568 327.975 114.07C326.329 120.421 323.225 125.294 318.664 128.689C324.944 133.789 328.126 139.734 328.211 146.523L328.533 172.069C328.623 179.204 324.698 182.821 316.758 182.921C312.845 182.971 309.728 182.147 307.404 180.45C305.08 178.637 303.895 175.948 303.85 172.38L303.563 149.596C303.485 143.382 302.451 139.021 300.463 136.514C298.59 134.006 294.777 132.788 289.023 132.86C282.809 132.939 278.511 134.374 276.129 137.166C273.861 139.842 272.773 144.804 272.864 152.054L273.125 172.767C273.212 179.672 269.228 183.175 261.173 183.276ZM271.066 118.93C273.912 116.477 276.424 114.892 278.602 114.174C280.893 113.339 284.168 112.895 288.426 112.842C294.179 112.769 298.376 112.429 301.015 111.82C303.77 111.21 305.538 109.979 306.321 108.128C307.103 106.276 307.47 103.394 307.42 99.4819C307.322 91.6569 306.045 86.2636 303.591 83.3021C301.25 80.2241 297.031 78.7235 290.932 78.8003C284.142 78.8859 279.329 80.5002 276.491 83.6435C273.768 86.7853 272.456 92.2111 272.553 99.9211C272.601 103.719 272.471 107.115 272.163 110.112C271.969 112.991 271.604 115.931 271.066 118.93ZM375.939 170.609C376.036 178.319 372.057 182.225 364.002 182.326C360.09 182.376 356.97 181.437 354.644 179.509C352.318 177.582 351.131 174.72 351.083 170.922L350.222 102.568C350.022 86.688 353.101 75.3126 359.46 68.442C365.819 61.5715 375.845 58.05 389.539 57.8775C403.578 57.7007 413.978 61.0224 420.739 67.8428C427.5 74.6632 430.98 85.8984 431.177 101.548L432.038 169.902C432.135 177.612 428.156 181.518 420.101 181.62C416.188 181.669 413.069 180.73 410.743 178.803C408.417 176.875 407.23 174.013 407.182 170.216L406.658 128.616C404.496 130.6 402.101 132.299 399.471 133.713C396.957 135.126 393.974 135.854 390.522 135.898C385.458 135.962 381.672 136.93 379.164 138.803C376.771 140.675 375.604 143.969 375.663 148.687L375.939 170.609ZM374.266 120.047C376.084 118.183 378.253 116.717 380.771 115.649C383.405 114.58 386.563 114.022 390.245 113.976C394.618 113.921 397.951 113.534 400.244 112.814C402.652 112.093 404.304 110.749 405.2 108.781C406.095 106.813 406.52 103.931 406.472 100.133C406.364 91.6178 405.083 85.8218 402.627 82.7452C400.17 79.5536 395.835 77.9969 389.621 78.0752C383.867 78.1476 379.918 79.8662 377.773 83.2309C375.743 86.4791 374.782 92.476 374.893 101.222C374.949 105.709 374.939 109.508 374.863 112.616C374.788 115.725 374.589 118.202 374.266 120.047ZM468.364 181.012C459.849 181.119 455.543 177.318 455.445 169.608L454.174 68.6301C454.123 64.6026 455.064 61.6558 456.997 59.79C458.93 57.9242 462.026 56.9645 466.283 56.9108C474.684 56.805 478.932 60.6071 479.03 68.3171L480.301 169.295C480.351 173.207 479.41 176.154 477.478 178.135C475.66 179.999 472.622 180.958 468.364 181.012ZM528.828 168.683C528.925 176.393 524.946 180.299 516.891 180.4C512.978 180.45 509.859 179.511 507.533 177.583C505.207 175.656 504.02 172.794 503.972 168.996L503.118 101.16C502.981 90.3433 504.311 81.6946 507.107 75.2142C509.901 68.6188 514.559 63.7838 521.08 60.7092C527.602 57.6347 536.329 56.0285 547.261 55.8909C561.76 55.7082 572.735 58.9652 580.185 65.6618C587.749 72.2419 591.634 83.7022 591.84 100.043L592.694 167.879C592.791 175.589 588.812 179.495 580.757 179.596C576.845 179.645 573.725 178.706 571.399 176.779C569.073 174.852 567.886 171.989 567.838 168.192L566.984 100.356C566.876 91.8403 565.304 85.8178 562.268 82.2881C559.344 78.642 554.43 76.8624 547.526 76.9494C542.118 77.0175 537.985 77.8752 535.128 79.5225C532.272 81.1698 530.348 83.726 529.355 87.1913C528.363 90.6566 527.903 95.2085 527.974 100.847L528.828 168.683Z"/>
</mask>
<path d="M92.5365 186.954C92.5901 191.212 91.8834 194.501 90.4165 196.821C89.066 199.255 87.0674 200.489 84.4207 200.522C78.7821 200.593 75.9171 197.004 75.8258 189.754L75.778 185.957C71.5188 185.895 67.0834 185.548 62.4717 184.916C57.9766 184.397 54.3409 183.58 51.5646 182.464C46.7068 180.568 44.249 177.319 44.191 172.716C44.149 169.379 45.0937 166.72 47.0254 164.739C49.0706 162.642 52.2796 161.565 56.6525 161.51C59.6444 161.473 63.2743 161.83 67.5422 162.582C71.8101 163.333 75.555 163.689 78.7771 163.649C85.9117 163.559 91.0209 162.574 94.1047 160.693C97.1885 158.813 98.6949 155.053 98.6239 149.415C98.5819 146.078 97.3381 143.274 94.8925 141.003C92.562 138.73 87.874 136.602 80.8284 134.619C68.0073 130.983 58.6845 126.382 52.8597 120.815C47.1501 115.248 44.2387 107.976 44.1257 99.0003C44.001 89.1039 46.662 81.0715 52.1088 74.903C57.6691 68.618 65.0414 64.5544 74.2256 62.7124L74.2212 62.3671C74.1053 53.1612 76.8666 48.5227 82.5053 48.4517C88.0288 48.3821 90.8471 52.8352 90.9602 61.811C97.6417 62.3023 103.296 63.4396 107.922 65.2228C112.778 67.0031 115.236 70.2523 115.295 74.9703C115.337 78.3074 114.336 81.0247 112.291 83.1222C110.359 85.1031 107.207 86.121 102.834 86.1761C99.957 86.2124 96.8464 85.9638 93.502 85.4305C90.1561 84.7821 86.8722 84.4782 83.6501 84.5187C78.7019 84.5811 74.9729 85.4912 72.463 87.2492C69.9531 89.0072 68.7235 91.9 68.7743 95.9276C68.8206 99.61 70.6463 102.925 74.2513 105.872C77.8563 108.819 84.4525 111.67 94.0399 114.427C105.012 117.511 112.605 121.789 116.817 127.261C121.028 132.617 123.186 139.495 123.292 147.896C123.417 157.792 120.813 165.824 115.482 171.991C110.15 178.158 102.491 182.283 92.5039 184.365L92.5365 186.954ZM151.306 183.624C149.12 183.652 147.268 182.812 145.75 181.105C144.232 179.397 143.457 177.22 143.424 174.574L142.445 96.8987C142.397 93.1012 142.865 89.1247 143.849 84.969C144.947 80.8118 146.97 76.9307 149.917 73.3257C152.978 69.6042 157.313 66.5572 162.922 64.1847C168.532 61.8122 175.882 60.5687 184.973 60.4542C197.056 60.302 206.472 63.1758 213.222 69.0756C219.971 74.9754 223.422 83.9091 223.572 95.8768C223.633 100.71 222.768 105.152 220.978 109.203C219.303 113.252 216.694 116.335 213.153 118.451C218.824 120.912 222.895 124.371 225.368 128.828C227.957 133.284 229.301 139.482 229.401 147.422C229.546 158.93 226.089 167.72 219.029 173.794C212.085 179.866 201.248 182.995 186.519 183.181L151.306 183.624ZM166.336 115.933C167.809 114.073 170.208 112.604 173.532 111.527C176.971 110.448 180.992 109.879 185.595 109.821C191.003 109.753 194.673 108.728 196.605 106.747C198.65 104.65 199.642 101.127 199.579 96.179C199.507 90.4253 198.247 86.3554 195.8 83.9693C193.467 81.4667 189.941 80.2451 185.223 80.3045C178.549 80.3886 173.846 81.6563 171.115 84.1076C168.498 86.5575 167.227 90.7168 167.301 96.5856C167.346 100.153 167.325 103.03 167.237 105.218C167.263 107.29 167.171 109.132 166.962 110.746C166.867 112.359 166.658 114.088 166.336 115.933ZM168.143 163.386L186.267 163.158C193.171 163.071 197.932 161.802 200.548 159.353C203.279 156.901 204.611 153.029 204.545 147.735C204.451 140.256 202.945 134.923 200.027 131.737C197.225 128.55 192.487 126.998 185.812 127.082C181.094 127.142 177.42 127.821 174.789 129.12C172.157 130.304 170.342 132.399 169.344 135.404C168.346 138.409 167.882 142.673 167.951 148.196L168.143 163.386ZM261.173 183.276C257.26 183.325 254.142 182.502 251.819 180.804C249.494 178.992 248.311 176.418 248.269 173.08L247.33 98.5124C247.162 85.1638 250.548 75.3383 257.49 69.0359C264.544 62.617 275.609 59.3126 290.684 59.1227C302.997 58.9676 312.414 61.9565 318.937 68.0893C325.573 74.1056 328.964 82.925 329.111 94.5475C329.161 98.5751 329.095 102.489 328.913 106.289C328.729 109.975 328.417 112.568 327.975 114.07C326.329 120.421 323.225 125.294 318.664 128.689C324.944 133.789 328.126 139.734 328.211 146.523L328.533 172.069C328.623 179.204 324.698 182.821 316.758 182.921C312.845 182.971 309.728 182.147 307.404 180.45C305.08 178.637 303.895 175.948 303.85 172.38L303.563 149.596C303.485 143.382 302.451 139.021 300.463 136.514C298.59 134.006 294.777 132.788 289.023 132.86C282.809 132.939 278.511 134.374 276.129 137.166C273.861 139.842 272.773 144.804 272.864 152.054L273.125 172.767C273.212 179.672 269.228 183.175 261.173 183.276ZM271.066 118.93C273.912 116.477 276.424 114.892 278.602 114.174C280.893 113.339 284.168 112.895 288.426 112.842C294.179 112.769 298.376 112.429 301.015 111.82C303.77 111.21 305.538 109.979 306.321 108.128C307.103 106.276 307.47 103.394 307.42 99.4819C307.322 91.6569 306.045 86.2636 303.591 83.3021C301.25 80.2241 297.031 78.7235 290.932 78.8003C284.142 78.8859 279.329 80.5002 276.491 83.6435C273.768 86.7853 272.456 92.2111 272.553 99.9211C272.601 103.719 272.471 107.115 272.163 110.112C271.969 112.991 271.604 115.931 271.066 118.93ZM375.939 170.609C376.036 178.319 372.057 182.225 364.002 182.326C360.09 182.376 356.97 181.437 354.644 179.509C352.318 177.582 351.131 174.72 351.083 170.922L350.222 102.568C350.022 86.688 353.101 75.3126 359.46 68.442C365.819 61.5715 375.845 58.05 389.539 57.8775C403.578 57.7007 413.978 61.0224 420.739 67.8428C427.5 74.6632 430.98 85.8984 431.177 101.548L432.038 169.902C432.135 177.612 428.156 181.518 420.101 181.62C416.188 181.669 413.069 180.73 410.743 178.803C408.417 176.875 407.23 174.013 407.182 170.216L406.658 128.616C404.496 130.6 402.101 132.299 399.471 133.713C396.957 135.126 393.974 135.854 390.522 135.898C385.458 135.962 381.672 136.93 379.164 138.803C376.771 140.675 375.604 143.969 375.663 148.687L375.939 170.609ZM374.266 120.047C376.084 118.183 378.253 116.717 380.771 115.649C383.405 114.58 386.563 114.022 390.245 113.976C394.618 113.921 397.951 113.534 400.244 112.814C402.652 112.093 404.304 110.749 405.2 108.781C406.095 106.813 406.52 103.931 406.472 100.133C406.364 91.6178 405.083 85.8218 402.627 82.7452C400.17 79.5536 395.835 77.9969 389.621 78.0752C383.867 78.1476 379.918 79.8662 377.773 83.2309C375.743 86.4791 374.782 92.476 374.893 101.222C374.949 105.709 374.939 109.508 374.863 112.616C374.788 115.725 374.589 118.202 374.266 120.047ZM468.364 181.012C459.849 181.119 455.543 177.318 455.445 169.608L454.174 68.6301C454.123 64.6026 455.064 61.6558 456.997 59.79C458.93 57.9242 462.026 56.9645 466.283 56.9108C474.684 56.805 478.932 60.6071 479.03 68.3171L480.301 169.295C480.351 173.207 479.41 176.154 477.478 178.135C475.66 179.999 472.622 180.958 468.364 181.012ZM528.828 168.683C528.925 176.393 524.946 180.299 516.891 180.4C512.978 180.45 509.859 179.511 507.533 177.583C505.207 175.656 504.02 172.794 503.972 168.996L503.118 101.16C502.981 90.3433 504.311 81.6946 507.107 75.2142C509.901 68.6188 514.559 63.7838 521.08 60.7092C527.602 57.6347 536.329 56.0285 547.261 55.8909C561.76 55.7082 572.735 58.9652 580.185 65.6618C587.749 72.2419 591.634 83.7022 591.84 100.043L592.694 167.879C592.791 175.589 588.812 179.495 580.757 179.596C576.845 179.645 573.725 178.706 571.399 176.779C569.073 174.852 567.886 171.989 567.838 168.192L566.984 100.356C566.876 91.8403 565.304 85.8178 562.268 82.2881C559.344 78.642 554.43 76.8624 547.526 76.9494C542.118 77.0175 537.985 77.8752 535.128 79.5225C532.272 81.1698 530.348 83.726 529.355 87.1913C528.363 90.6566 527.903 95.2085 527.974 100.847L528.828 168.683Z" fill="#8D5B4F"/>
<path d="M90.4165 196.821L84.8642 193.311L84.7637 193.47L84.6725 193.634L90.4165 196.821ZM75.778 185.957L82.3463 185.874L82.2658 179.481L75.8727 179.389L75.778 185.957ZM62.4717 184.916L63.3642 178.408L63.2947 178.398L63.2249 178.39L62.4717 184.916ZM51.5646 182.464L54.0145 176.369L53.9834 176.356L53.9523 176.344L51.5646 182.464ZM67.5422 162.582L68.6819 156.112L68.6819 156.112L67.5422 162.582ZM94.1047 160.693L97.5244 166.302L97.5244 166.302L94.1047 160.693ZM94.8925 141.003L90.3065 145.706L90.3639 145.761L90.4226 145.816L94.8925 141.003ZM80.8284 134.619L79.0359 140.939L79.0488 140.943L80.8284 134.619ZM52.8597 120.815L48.2737 125.518L48.2975 125.542L48.3215 125.564L52.8597 120.815ZM52.1088 74.903L47.1889 70.5504L47.1848 70.5551L52.1088 74.903ZM74.2256 62.7124L75.5174 69.1529L80.8626 68.0808L80.7939 62.6296L74.2256 62.7124ZM90.9602 61.811L84.3919 61.8938L84.4678 67.9202L90.4785 68.3622L90.9602 61.811ZM107.922 65.2228L105.559 71.352L105.61 71.3716L105.661 71.3903L107.922 65.2228ZM112.291 83.1222L116.994 87.7082L116.994 87.7082L112.291 83.1222ZM93.502 85.4305L92.2522 91.8793L92.3595 91.9001L92.4675 91.9174L93.502 85.4305ZM72.463 87.2492L76.2315 92.6296L76.2315 92.6295L72.463 87.2492ZM74.2513 105.872L78.4088 100.786L78.4088 100.786L74.2513 105.872ZM94.0399 114.427L92.2247 120.74L92.2435 120.745L92.2623 120.751L94.0399 114.427ZM116.817 127.261L111.612 131.268L111.632 131.294L111.653 131.32L116.817 127.261ZM115.482 171.991L120.451 176.287L120.451 176.287L115.482 171.991ZM92.5039 184.365L91.163 177.934L85.8674 179.039L85.9355 184.448L92.5039 184.365ZM85.9682 187.037C86.0139 190.671 85.3737 192.505 84.8642 193.311L95.9687 200.331C98.3931 196.497 99.1663 191.753 99.1048 186.871L85.9682 187.037ZM84.6725 193.634C84.5538 193.848 84.4662 193.954 84.4313 193.992C84.3999 194.027 84.4068 194.012 84.4544 193.982C84.5033 193.952 84.545 193.938 84.5557 193.935C84.5619 193.933 84.4981 193.952 84.338 193.954L84.5035 207.09C89.6532 207.026 93.7389 204.372 96.1604 200.008L84.6725 193.634ZM84.338 193.954C83.6225 193.963 83.301 193.851 83.2232 193.819C83.1851 193.803 83.1985 193.813 83.1769 193.786C83.0495 193.626 82.4313 192.626 82.3941 189.671L69.2575 189.837C69.3116 194.132 70.1716 198.552 72.9091 201.981C75.8945 205.721 80.1692 207.145 84.5035 207.09L84.338 193.954ZM82.3941 189.671L82.3463 185.874L69.2097 186.039L69.2575 189.837L82.3941 189.671ZM75.8727 179.389C71.9036 179.331 67.7355 179.007 63.3642 178.408L61.5792 191.424C66.4312 192.089 71.1339 192.459 75.6832 192.525L75.8727 179.389ZM63.2249 178.39C59.0469 177.908 56.0451 177.185 54.0145 176.369L49.1147 188.559C52.6366 189.974 56.9062 190.886 61.7185 191.441L63.2249 178.39ZM53.9523 176.344C52.3426 175.716 51.634 175.062 51.3167 174.642C51.0418 174.279 50.773 173.723 50.7593 172.633L37.6227 172.799C37.6669 176.312 38.6561 179.682 40.8391 182.568C42.9796 185.398 45.9288 187.316 49.1769 188.583L53.9523 176.344ZM50.7593 172.633C50.7344 170.654 51.2571 169.808 51.7284 169.325L42.3224 160.153C38.9303 163.632 37.5635 168.104 37.6227 172.799L50.7593 172.633ZM51.7284 169.325C52.0705 168.974 53.2545 168.122 56.7352 168.079L56.5697 154.942C51.3048 155.008 46.0707 156.309 42.3224 160.153L51.7284 169.325ZM56.7352 168.079C59.1803 168.048 62.3757 168.341 66.4025 169.051L68.6819 156.112C64.1728 155.318 60.1085 154.897 56.5697 154.942L56.7352 168.079ZM66.4025 169.051C70.9456 169.851 75.1157 170.264 78.8598 170.217L78.6944 157.08C75.9944 157.114 72.6745 156.816 68.6819 156.112L66.4025 169.051ZM78.8598 170.217C86.2272 170.124 92.8542 169.149 97.5244 166.302L90.685 155.085C89.1876 155.998 85.5962 156.993 78.6944 157.08L78.8598 170.217ZM97.5244 166.302C103.539 162.634 105.275 155.906 105.192 149.332L92.0556 149.498C92.1148 154.201 90.8378 154.992 90.685 155.085L97.5244 166.302ZM105.192 149.332C105.128 144.197 103.125 139.683 99.3625 136.189L90.4226 145.816C91.5508 146.864 92.0362 147.958 92.0556 149.498L105.192 149.332ZM99.4785 136.3C95.8534 132.765 89.7003 130.292 82.608 128.296L79.0488 140.943C86.0477 142.912 89.2707 144.696 90.3065 145.706L99.4785 136.3ZM82.6209 128.3C70.2343 124.787 62.0999 120.559 57.398 116.066L48.3215 125.564C55.269 132.204 65.7804 137.179 79.0359 140.939L82.6209 128.3ZM57.4457 116.112C53.1446 111.918 50.7881 106.39 50.694 98.9176L37.5573 99.083C37.6893 109.562 41.1556 118.577 48.2737 125.518L57.4457 116.112ZM50.694 98.9176C50.5855 90.3028 52.875 83.9596 57.0328 79.2509L47.1848 70.5551C40.4491 78.1834 37.4165 87.9051 37.5573 99.083L50.694 98.9176ZM57.0286 79.2556C61.5298 74.1678 67.566 70.7477 75.5174 69.1529L72.9338 56.2718C62.5168 58.3611 53.8085 63.0681 47.1889 70.5504L57.0286 79.2556ZM80.7939 62.6296L80.7896 62.2844L67.6529 62.4499L67.6573 62.7951L80.7939 62.6296ZM80.7896 62.2844C80.7373 58.1383 81.3853 56.1241 81.8497 55.344C82.0239 55.0513 82.0999 55.0509 82.0282 55.0911C81.9695 55.124 82.0868 55.0263 82.588 55.02L82.4225 41.8834C77.4414 41.9461 73.173 44.2359 70.5609 48.6237C68.264 52.4821 67.5892 57.39 67.6529 62.4499L80.7896 62.2844ZM82.588 55.02C83.0652 55.014 83.1639 55.1039 83.0851 55.0624C82.9921 55.0136 83.0475 54.9939 83.211 55.2523C83.6591 55.9601 84.3411 57.8661 84.3919 61.8938L97.5285 61.7283C97.4662 56.7801 96.6826 51.9717 94.3123 48.2265C91.6135 43.9623 87.3318 41.8216 82.4225 41.8834L82.588 55.02ZM90.4785 68.3622C96.726 68.8216 101.705 69.8665 105.559 71.352L110.284 59.0935C104.886 57.0127 98.5575 55.7831 91.4419 55.2599L90.4785 68.3622ZM105.661 71.3903C107.222 71.9627 107.881 72.5775 108.169 72.9578C108.423 73.2935 108.712 73.8661 108.727 75.053L121.864 74.8876C121.819 71.3565 120.85 67.9454 118.646 65.032C116.476 62.1631 113.478 60.2632 110.183 59.0553L105.661 71.3903ZM108.727 75.053C108.75 76.9119 108.244 77.863 107.587 78.5362L116.994 87.7082C120.428 84.1865 121.924 79.703 121.864 74.8876L108.727 75.053ZM107.588 78.5362C107.417 78.7106 106.36 79.5624 102.751 79.6078L102.917 92.7444C108.053 92.6797 113.3 91.4955 116.994 87.7082L107.588 78.5362ZM102.751 79.6078C100.307 79.6386 97.5743 79.4281 94.5365 78.9436L92.4675 91.9174C96.1184 92.4996 99.607 92.7861 102.917 92.7444L102.751 79.6078ZM94.7518 78.9816C90.9921 78.253 87.2614 77.9039 83.5674 77.9504L83.7328 91.0871C86.4829 91.0524 89.3202 91.3111 92.2522 91.8793L94.7518 78.9816ZM83.5674 77.9504C78.04 78.02 72.765 79.0178 68.6945 81.8689L76.2315 92.6295C77.1808 91.9647 79.3638 91.1421 83.7328 91.0871L83.5674 77.9504ZM68.6945 81.8689C63.8638 85.2525 62.1374 90.5684 62.2059 96.0104L75.3426 95.8449C75.3097 93.2316 76.0424 92.762 76.2315 92.6296L68.6945 81.8689ZM62.2059 96.0104C62.283 102.13 65.4157 107.133 70.0938 110.957L78.4088 100.786C75.8769 98.7162 75.3583 97.0903 75.3426 95.8449L62.2059 96.0104ZM70.0938 110.957C74.8104 114.813 82.5379 117.955 92.2247 120.74L95.855 108.114C86.3671 105.386 80.9021 102.824 78.4088 100.786L70.0938 110.957ZM92.2623 120.751C102.682 123.68 108.664 127.438 111.612 131.268L122.022 123.253C116.546 116.14 107.343 111.343 95.8175 108.103L92.2623 120.751ZM111.653 131.32C114.78 135.298 116.632 140.678 116.724 147.978L129.86 147.813C129.741 138.313 127.276 129.936 121.981 123.201L111.653 131.32ZM116.724 147.978C116.833 156.629 114.58 162.99 110.512 167.695L120.451 176.287C127.047 168.658 130.001 158.955 129.86 147.813L116.724 147.978ZM110.512 167.695C106.339 172.522 100.1 176.071 91.163 177.934L93.8447 190.795C104.882 188.494 113.961 183.793 120.451 176.287L110.512 167.695ZM85.9355 184.448L85.9682 187.037L99.1048 186.871L99.0722 184.282L85.9355 184.448ZM145.75 181.105L150.659 176.74L150.659 176.74L145.75 181.105ZM143.849 84.969L137.498 83.2907L137.476 83.3732L137.456 83.4562L143.849 84.969ZM149.917 73.3257L144.843 69.1532L144.837 69.1607L144.831 69.1682L149.917 73.3257ZM162.922 64.1847L160.364 58.1347L160.364 58.1347L162.922 64.1847ZM213.222 69.0756L217.545 64.1298L217.545 64.1298L213.222 69.0756ZM220.978 109.203L214.97 106.547L214.938 106.619L214.908 106.691L220.978 109.203ZM213.153 118.451L209.783 112.812L198.793 119.38L210.538 124.477L213.153 118.451ZM225.368 128.828L219.625 132.015L219.656 132.072L219.688 132.127L225.368 128.828ZM219.029 173.794L214.745 168.815L214.725 168.832L214.705 168.849L219.029 173.794ZM166.336 115.933L159.865 114.804L171.486 120.011L166.336 115.933ZM173.532 111.527L171.565 105.259L171.535 105.268L171.506 105.278L173.532 111.527ZM196.605 106.747L191.902 102.161L191.902 102.161L196.605 106.747ZM195.8 83.9693L190.996 88.4488L191.102 88.5632L191.214 88.6723L195.8 83.9693ZM171.115 84.1076L166.727 79.2189L166.675 79.2653L166.625 79.3128L171.115 84.1076ZM167.237 105.218L160.674 104.956L160.667 105.128L160.669 105.301L167.237 105.218ZM166.962 110.746L160.448 109.899L160.418 110.129L160.404 110.361L166.962 110.746ZM168.143 163.386L161.574 163.469L161.657 170.037L168.225 169.954L168.143 163.386ZM200.548 159.353L196.16 154.464L196.109 154.51L196.058 154.558L200.548 159.353ZM200.027 131.737L195.094 136.074L195.138 136.124L195.183 136.173L200.027 131.737ZM174.789 129.12L177.484 135.111L177.592 135.062L177.698 135.01L174.789 129.12ZM169.344 135.404L163.11 133.333L163.11 133.333L169.344 135.404ZM151.224 177.056C151.111 177.057 151.049 177.047 151.024 177.042C151.002 177.038 150.994 177.034 150.99 177.033C150.986 177.031 150.961 177.019 150.912 176.982C150.862 176.944 150.775 176.871 150.659 176.74L140.841 185.469C143.56 188.527 147.203 190.245 151.389 190.193L151.224 177.056ZM150.659 176.74C150.356 176.399 150.009 175.823 149.992 174.491L136.855 174.656C136.905 178.618 138.109 182.396 140.841 185.469L150.659 176.74ZM149.992 174.491L149.013 96.816L135.877 96.9814L136.855 174.656L149.992 174.491ZM149.013 96.816C148.973 93.6173 149.366 90.1786 150.241 86.4817L137.456 83.4562C136.364 88.0708 135.821 92.5852 135.877 96.9814L149.013 96.816ZM150.199 86.6472C151.039 83.4706 152.6 80.4227 155.003 77.4832L144.831 69.1682C141.34 73.4387 138.855 78.153 137.498 83.2907L150.199 86.6472ZM154.99 77.4982C157.222 74.7847 160.597 72.3004 165.481 70.2347L160.364 58.1347C154.028 60.8141 148.733 64.4238 144.843 69.1532L154.99 77.4982ZM165.481 70.2347C170.02 68.3152 176.436 67.1311 185.056 67.0225L184.89 53.8859C175.328 54.0063 167.044 55.3092 160.364 58.1347L165.481 70.2347ZM185.056 67.0225C196.09 66.8835 203.738 69.5102 208.899 74.0214L217.545 64.1298C209.206 56.8414 198.021 53.7205 184.89 53.8859L185.056 67.0225ZM208.899 74.0214C213.814 78.318 216.869 85.201 217.004 95.9595L230.141 95.7941C229.975 82.6172 226.128 71.6327 217.545 64.1298L208.899 74.0214ZM217.004 95.9595C217.054 99.9374 216.346 103.435 214.97 106.547L226.986 111.858C229.191 106.869 230.212 101.482 230.141 95.7941L217.004 95.9595ZM214.908 106.691C213.737 109.521 212.034 111.468 209.783 112.812L216.523 124.09C221.355 121.202 224.868 116.982 227.048 111.714L214.908 106.691ZM210.538 124.477C215.172 126.488 217.993 129.074 219.625 132.015L231.112 125.641C227.798 119.667 222.476 115.336 215.768 112.425L210.538 124.477ZM219.688 132.127C221.482 135.215 222.74 140.136 222.832 147.505L235.969 147.34C235.862 138.828 234.432 131.353 231.049 125.529L219.688 132.127ZM222.832 147.505C222.959 157.57 219.991 164.301 214.745 168.815L223.314 178.773C232.186 171.14 236.132 160.289 235.969 147.34L222.832 147.505ZM214.705 168.849C209.462 173.434 200.482 176.435 186.436 176.612L186.602 189.749C202.015 189.555 214.709 186.298 223.353 178.739L214.705 168.849ZM186.436 176.612L151.224 177.056L151.389 190.193L186.602 189.749L186.436 176.612ZM171.486 120.011C171.858 119.542 172.915 118.632 175.558 117.775L171.506 105.278C167.5 106.577 163.76 108.605 161.186 111.856L171.486 120.011ZM175.498 117.794C178.186 116.951 181.546 116.441 185.678 116.389L185.512 103.253C180.438 103.317 175.756 103.944 171.565 105.259L175.498 117.794ZM185.678 116.389C191.368 116.318 197.423 115.317 201.308 111.333L191.902 102.161C191.993 102.068 191.76 102.361 190.638 102.675C189.527 102.985 187.864 103.223 185.512 103.253L185.678 116.389ZM201.308 111.333C205.179 107.364 206.218 101.658 206.148 96.0963L193.011 96.2618C193.066 100.596 192.122 101.936 191.902 102.161L201.308 111.333ZM206.148 96.0963C206.067 89.7216 204.702 83.475 200.386 79.2663L191.214 88.6723C191.792 89.2359 192.946 91.1291 193.011 96.2618L206.148 96.0963ZM200.605 79.4898C196.587 75.1802 190.982 73.6626 185.14 73.7362L185.306 86.8728C188.9 86.8275 190.347 87.7531 190.996 88.4488L200.605 79.4898ZM185.14 73.7362C178.037 73.8256 171.289 75.125 166.727 79.2189L175.502 88.9963C176.403 88.1875 179.061 86.9515 185.306 86.8728L185.14 73.7362ZM166.625 79.3128C162.01 83.6344 160.65 90.0909 160.733 96.6683L173.869 96.5029C173.804 91.3427 174.987 89.4806 175.605 88.9024L166.625 79.3128ZM160.733 96.6683C160.777 100.182 160.755 102.931 160.674 104.956L173.801 105.481C173.895 103.13 173.915 100.124 173.869 96.5029L160.733 96.6683ZM160.669 105.301C160.692 107.141 160.608 108.663 160.448 109.899L173.476 111.593C173.735 109.601 173.835 107.438 173.806 105.136L160.669 105.301ZM160.404 110.361C160.326 111.688 160.151 113.167 159.865 114.804L172.807 117.062C173.166 115.009 173.408 113.029 173.519 111.132L160.404 110.361ZM168.225 169.954L186.349 169.726L186.184 156.589L168.06 156.818L168.225 169.954ZM186.349 169.726C193.567 169.635 200.521 168.377 205.038 164.147L196.058 154.558C195.342 155.228 192.775 156.506 186.184 156.589L186.349 169.726ZM204.935 164.241C209.61 160.046 211.193 153.981 211.113 147.653L197.976 147.818C198.03 152.077 196.948 153.756 196.16 154.464L204.935 164.241ZM211.113 147.653C211.012 139.639 209.437 132.285 204.872 127.301L195.183 136.173C196.453 137.56 197.889 140.872 197.976 147.818L211.113 147.653ZM204.96 127.399C200.316 122.117 193.23 120.419 185.73 120.514L185.895 133.65C191.743 133.577 194.134 134.983 195.094 136.074L204.96 127.399ZM185.73 120.514C180.56 120.579 175.767 121.311 171.881 123.23L177.698 135.01C179.073 134.33 181.628 133.704 185.895 133.65L185.73 120.514ZM172.094 123.129C167.613 125.145 164.624 128.772 163.11 133.333L175.578 137.474C176.059 136.025 176.701 135.463 177.484 135.111L172.094 123.129ZM163.11 133.333C161.771 137.364 161.31 142.484 161.383 148.279L174.52 148.114C174.453 142.862 174.921 139.453 175.578 137.474L163.11 133.333ZM161.383 148.279L161.574 163.469L174.711 163.303L174.52 148.114L161.383 148.279ZM251.819 180.804L247.781 185.985L247.861 186.048L247.944 186.109L251.819 180.804ZM257.49 69.0359L261.905 73.8992L261.91 73.8946L257.49 69.0359ZM318.937 68.0893L314.437 72.8749L314.481 72.9158L314.525 72.9558L318.937 68.0893ZM328.913 106.289L335.474 106.617L335.474 106.604L328.913 106.289ZM327.975 114.07L321.673 112.217L321.643 112.319L321.617 112.421L327.975 114.07ZM318.664 128.689L314.742 123.42L307.967 128.463L314.523 133.788L318.664 128.689ZM307.404 180.45L303.366 185.63L303.447 185.693L303.529 185.754L307.404 180.45ZM300.463 136.514L295.2 140.444L295.257 140.521L295.316 140.596L300.463 136.514ZM276.129 137.166L271.132 132.903L271.125 132.911L271.119 132.918L276.129 137.166ZM271.066 118.93L264.6 117.771L261.334 135.987L275.354 123.906L271.066 118.93ZM278.602 114.174L280.659 120.412L280.755 120.381L280.85 120.346L278.602 114.174ZM301.015 111.82L299.595 105.407L299.567 105.413L299.539 105.419L301.015 111.82ZM303.591 83.3021L298.362 87.2783L298.446 87.3877L298.533 87.4936L303.591 83.3021ZM276.491 83.6435L271.615 79.2416L271.571 79.2911L271.527 79.3416L276.491 83.6435ZM272.163 110.112L265.629 109.441L265.617 109.555L265.609 109.67L272.163 110.112ZM261.09 176.708C258.094 176.746 256.52 176.103 255.694 175.5L247.944 186.109C251.765 188.9 256.426 189.905 261.256 189.845L261.09 176.708ZM255.858 175.624C255.328 175.211 254.858 174.638 254.837 172.998L241.701 173.163C241.764 178.197 243.661 182.774 247.781 185.985L255.858 175.624ZM254.837 172.998L253.898 98.4297L240.762 98.5952L241.701 173.163L254.837 172.998ZM253.898 98.4297C253.743 86.1421 256.866 78.4745 261.905 73.8992L253.074 64.1726C244.23 72.2021 240.58 84.1855 240.762 98.5952L253.898 98.4297ZM261.91 73.8946C267.253 69.0331 276.412 65.8718 290.767 65.691L290.601 52.5544C274.807 52.7533 261.835 56.2008 253.069 64.1772L261.91 73.8946ZM290.767 65.691C302.027 65.5492 309.557 68.2865 314.437 72.8749L323.437 63.3037C315.272 55.6264 303.966 52.386 290.601 52.5544L290.767 65.691ZM314.525 72.9558C319.436 77.4081 322.412 84.2595 322.542 94.6302L335.679 94.4647C335.517 81.5905 331.71 70.803 323.349 63.2227L314.525 72.9558ZM322.542 94.6302C322.591 98.5329 322.527 102.314 322.352 105.975L335.474 106.604C335.663 102.664 335.731 98.6172 335.679 94.4647L322.542 94.6302ZM322.352 105.962C322.169 109.638 321.874 111.535 321.673 112.217L334.278 115.922C334.96 113.601 335.29 110.312 335.474 106.617L322.352 105.962ZM321.617 112.421C320.285 117.557 317.921 121.053 314.742 123.42L322.587 133.958C328.529 129.534 332.373 123.284 334.334 115.718L321.617 112.421ZM314.523 133.788C319.609 137.919 321.587 142.144 321.643 146.606L334.78 146.44C334.665 137.324 330.278 129.659 322.806 123.59L314.523 133.788ZM321.643 146.606L321.965 172.152L335.102 171.987L334.78 146.44L321.643 146.606ZM321.965 172.152C321.995 174.515 321.377 175.144 321.205 175.303C320.901 175.583 319.796 176.314 316.675 176.353L316.841 189.49C321.66 189.429 326.488 188.301 330.108 184.964C333.861 181.505 335.162 176.759 335.102 171.987L321.965 172.152ZM316.675 176.353C313.679 176.391 312.105 175.749 311.279 175.145L303.529 185.754C307.35 188.545 312.011 189.55 316.841 189.49L316.675 176.353ZM311.443 175.269C311.026 174.944 310.444 174.335 310.418 172.298L297.282 172.463C297.346 177.561 299.134 182.331 303.366 185.63L311.443 175.269ZM310.418 172.298L310.131 149.513L296.995 149.678L297.282 172.463L310.418 172.298ZM310.131 149.513C310.049 143.012 309.027 136.741 305.61 132.433L295.316 140.596C295.876 141.302 296.92 143.752 296.995 149.678L310.131 149.513ZM305.727 132.584C301.85 127.392 295.12 126.214 288.94 126.292L289.106 139.429C291.558 139.398 293.19 139.654 294.2 139.977C295.166 140.286 295.285 140.558 295.2 140.444L305.727 132.584ZM288.94 126.292C282.091 126.378 275.374 127.93 271.132 132.903L281.127 141.429C281.648 140.818 283.527 139.499 289.106 139.429L288.94 126.292ZM271.119 132.918C267.181 137.563 266.202 144.718 266.296 152.137L279.433 151.971C279.343 144.89 280.541 142.12 281.14 141.414L271.119 132.918ZM266.296 152.137L266.557 172.85L279.693 172.685L279.433 151.971L266.296 152.137ZM266.557 172.85C266.584 175.003 266.01 175.512 265.865 175.64C265.528 175.936 264.332 176.667 261.09 176.708L261.256 189.845C266.069 189.784 270.892 188.713 274.54 185.506C278.379 182.131 279.753 177.436 279.693 172.685L266.557 172.85ZM275.354 123.906C277.911 121.702 279.659 120.742 280.659 120.412L276.545 107.935C273.19 109.042 269.913 111.252 266.778 113.954L275.354 123.906ZM280.85 120.346C282.114 119.886 284.524 119.46 288.508 119.41L288.343 106.273C283.812 106.33 279.673 106.793 276.354 108.002L280.85 120.346ZM288.508 119.41C294.33 119.337 299.123 118.998 302.492 118.221L299.539 105.419C297.629 105.86 294.029 106.202 288.343 106.273L288.508 119.41ZM302.436 118.233C306.366 117.363 310.458 115.214 312.371 110.685L300.27 105.571C300.322 105.447 300.398 105.321 300.489 105.212C300.577 105.104 300.646 105.054 300.655 105.048C300.66 105.044 300.594 105.091 300.42 105.162C300.245 105.233 299.977 105.322 299.595 105.407L302.436 118.233ZM312.371 110.685C313.703 107.534 314.04 103.522 313.989 99.3992L300.852 99.5646C300.899 103.267 300.503 105.018 300.27 105.571L312.371 110.685ZM313.989 99.3992C313.887 91.372 312.65 83.939 308.649 79.1106L298.533 87.4936C299.44 88.5882 300.756 91.9417 300.852 99.5646L313.989 99.3992ZM308.82 79.326C304.628 73.8137 297.807 72.1444 290.849 72.232L291.014 85.3687C296.255 85.3027 297.873 86.6346 298.362 87.2783L308.82 79.326ZM290.849 72.232C283.304 72.3271 276.25 74.108 271.615 79.2416L281.367 88.0453C282.408 86.8925 284.981 85.4447 291.014 85.3687L290.849 72.232ZM271.527 79.3416C267.16 84.3805 265.882 91.903 265.984 100.004L279.121 99.8384C279.029 92.5193 280.377 89.19 281.455 87.9454L271.527 79.3416ZM265.984 100.004C266.03 103.611 265.905 106.75 265.629 109.441L278.698 110.782C279.037 107.481 279.171 103.826 279.121 99.8384L265.984 100.004ZM265.609 109.67C265.432 112.296 265.098 114.996 264.6 117.771L277.532 120.089C278.11 116.866 278.506 113.686 278.717 110.553L265.609 109.67ZM354.644 179.509L358.835 174.451L358.835 174.451L354.644 179.509ZM359.46 68.442L364.281 72.9038L364.281 72.9038L359.46 68.442ZM410.743 178.803L414.934 173.744L414.934 173.744L410.743 178.803ZM406.658 128.616L413.226 128.534L413.041 113.843L402.216 123.776L406.658 128.616ZM399.471 133.713L396.36 127.928L396.306 127.957L396.253 127.987L399.471 133.713ZM379.164 138.803L375.234 133.54L375.175 133.583L375.117 133.628L379.164 138.803ZM374.266 120.047L367.795 118.918L364.146 139.835L378.969 124.633L374.266 120.047ZM380.771 115.649L378.301 109.563L378.254 109.582L378.208 109.601L380.771 115.649ZM400.244 112.814L398.36 106.521L398.318 106.534L398.277 106.547L400.244 112.814ZM405.2 108.781L411.178 111.503L411.178 111.503L405.2 108.781ZM402.627 82.7452L397.422 86.7524L397.457 86.7981L397.493 86.8431L402.627 82.7452ZM377.773 83.2309L372.234 79.7005L372.219 79.7245L372.204 79.7487L377.773 83.2309ZM374.863 112.616L381.43 112.777L381.43 112.777L374.863 112.616ZM369.371 170.692C369.406 173.459 368.709 174.356 368.426 174.633C368.091 174.962 367.005 175.719 363.919 175.758L364.085 188.895C369.055 188.832 373.986 187.585 377.629 184.009C381.326 180.38 382.57 175.469 382.508 170.526L369.371 170.692ZM363.919 175.758C361.096 175.793 359.643 175.121 358.835 174.451L350.453 184.567C354.297 187.752 359.083 188.958 364.085 188.895L363.919 175.758ZM358.835 174.451C358.362 174.059 357.682 173.247 357.652 170.839L344.515 171.005C344.58 176.193 346.274 181.105 350.453 184.567L358.835 174.451ZM357.652 170.839L356.791 102.485L343.654 102.651L344.515 171.005L357.652 170.839ZM356.791 102.485C356.598 87.1968 359.638 77.9212 364.281 72.9038L354.639 63.9803C346.565 72.704 343.446 86.1792 343.654 102.651L356.791 102.485ZM364.281 72.9038C368.944 67.8657 376.89 64.6062 389.622 64.4458L389.456 51.3092C374.8 51.4938 362.694 55.2773 354.639 63.9803L364.281 72.9038ZM389.622 64.4458C402.705 64.281 411.048 67.3976 416.074 72.4674L425.404 63.2182C416.908 54.6473 404.45 51.1203 389.456 51.3092L389.622 64.4458ZM416.074 72.4674C421.072 77.5086 424.42 86.6656 424.609 101.631L437.745 101.466C437.539 85.1313 433.929 71.8178 425.404 63.2182L416.074 72.4674ZM424.609 101.631L425.469 169.985L438.606 169.82L437.745 101.466L424.609 101.631ZM425.469 169.985C425.504 172.753 424.807 173.649 424.525 173.926C424.189 174.256 423.103 175.012 420.018 175.051L420.183 188.188C425.153 188.125 430.084 186.878 433.728 183.302C437.424 179.674 438.668 174.762 438.606 169.82L425.469 169.985ZM420.018 175.051C417.195 175.087 415.742 174.414 414.934 173.744L406.552 183.861C410.396 187.046 415.181 188.251 420.183 188.188L420.018 175.051ZM414.934 173.744C414.46 173.352 413.78 172.54 413.75 170.133L400.613 170.298C400.679 175.486 402.373 180.399 406.552 183.861L414.934 173.744ZM413.75 170.133L413.226 128.534L400.09 128.699L400.613 170.298L413.75 170.133ZM402.216 123.776C400.464 125.385 398.517 126.768 396.36 127.928L402.583 139.498C405.684 137.83 408.528 135.816 411.099 133.456L402.216 123.776ZM396.253 127.987C394.869 128.764 393.008 129.297 390.439 129.329L390.604 142.466C394.939 142.411 399.045 141.488 402.689 139.44L396.253 127.987ZM390.439 129.329C384.775 129.401 379.353 130.464 375.234 133.54L383.094 144.066C383.992 143.396 386.142 142.522 390.604 142.466L390.439 129.329ZM375.117 133.628C370.377 137.336 369.024 143.157 369.095 148.77L382.231 148.605C382.183 144.782 383.165 144.013 383.21 143.978L375.117 133.628ZM369.095 148.77L369.371 170.692L382.508 170.526L382.231 148.605L369.095 148.77ZM378.969 124.633C380.148 123.425 381.578 122.442 383.335 121.697L378.208 109.601C374.927 110.992 372.021 112.941 369.563 115.461L378.969 124.633ZM383.242 121.736C384.929 121.051 387.234 120.583 390.328 120.544L390.163 107.408C385.892 107.462 381.881 108.109 378.301 109.563L383.242 121.736ZM390.328 120.544C394.908 120.487 399 120.089 402.21 119.082L398.277 106.547C396.902 106.978 394.328 107.355 390.163 107.408L390.328 120.544ZM402.128 119.107C406.026 117.94 409.366 115.484 411.178 111.503L399.221 106.059C399.197 106.111 399.182 106.132 399.179 106.135C399.177 106.138 399.169 106.149 399.142 106.171C399.094 106.21 398.885 106.364 398.36 106.521L402.128 119.107ZM411.178 111.503C412.671 108.224 413.092 104.19 413.04 100.051L399.903 100.216C399.947 103.671 399.52 105.403 399.221 106.059L411.178 111.503ZM413.04 100.051C412.983 95.5197 412.614 91.462 411.844 87.9816C411.087 84.5582 409.851 81.266 407.761 78.6474L397.493 86.8431C397.859 87.301 398.492 88.4451 399.016 90.8178C399.528 93.1333 399.853 96.2314 399.903 100.216L413.04 100.051ZM407.832 78.738C403.547 73.1722 396.669 71.417 389.538 71.5069L389.703 84.6435C395 84.5768 396.793 85.935 397.422 86.7524L407.832 78.738ZM389.538 71.5069C382.626 71.5939 376.043 73.7244 372.234 79.7005L383.313 86.7613C383.793 86.0081 385.108 84.7014 389.703 84.6435L389.538 71.5069ZM372.204 79.7487C370.53 82.4259 369.591 85.7103 369.044 89.1261C368.485 92.6176 368.266 96.7045 368.324 101.304L381.461 101.139C381.409 96.9931 381.615 93.7087 382.016 91.2034C382.43 88.6222 382.986 87.2841 383.343 86.7132L372.204 79.7487ZM368.324 101.304C368.38 105.743 368.37 109.455 368.297 112.456L381.43 112.777C381.509 109.56 381.518 105.676 381.461 101.139L368.324 101.304ZM368.297 112.456C368.224 115.421 368.037 117.532 367.795 118.918L380.738 121.176C381.14 118.871 381.351 116.028 381.43 112.777L368.297 112.456ZM456.997 59.79L452.435 55.0637L452.435 55.0637L456.997 59.79ZM477.478 178.135L482.181 182.721L482.181 182.721L477.478 178.135ZM468.282 174.443C464.884 174.486 463.552 173.72 463.095 173.317C462.764 173.024 462.047 172.19 462.014 169.525L448.877 169.69C448.941 174.735 450.426 179.657 454.401 183.166C458.25 186.564 463.329 187.644 468.447 187.58L468.282 174.443ZM462.014 169.525L460.742 68.5474L447.605 68.7129L448.877 169.69L462.014 169.525ZM460.742 68.5474C460.703 65.4288 461.461 64.6114 461.559 64.5164L452.435 55.0637C448.667 58.7003 447.543 63.7763 447.605 68.7129L460.742 68.5474ZM461.559 64.5164C461.751 64.3314 462.844 63.5235 466.366 63.4792L466.201 50.3425C461.207 50.4054 456.11 51.517 452.435 55.0637L461.559 64.5164ZM466.366 63.4792C469.687 63.4373 470.962 64.1952 471.39 64.5781C471.71 64.8644 472.427 65.7091 472.461 68.3998L485.598 68.2343C485.535 63.2151 484.079 58.3037 480.151 54.788C476.33 51.3688 471.28 50.2785 466.201 50.3425L466.366 63.4792ZM472.461 68.3998L473.733 169.377L486.87 169.212L485.598 68.2343L472.461 68.3998ZM473.733 169.377C473.77 172.277 473.061 173.255 472.775 173.549L482.181 182.721C485.758 179.053 486.932 174.137 486.87 169.212L473.733 169.377ZM472.775 173.549C472.752 173.573 471.852 174.398 468.282 174.443L468.447 187.58C473.392 187.518 478.568 186.426 482.181 182.721L472.775 173.549ZM507.533 177.583L511.724 172.525L511.724 172.525L507.533 177.583ZM507.107 75.2142L513.138 77.8162L513.147 77.7965L513.155 77.7767L507.107 75.2142ZM521.08 60.7092L518.279 54.7676L518.279 54.7676L521.08 60.7092ZM580.185 65.6618L575.794 70.5472L575.834 70.5828L575.874 70.6178L580.185 65.6618ZM571.399 176.779L575.59 171.721L575.59 171.721L571.399 176.779ZM562.268 82.2881L557.143 86.3971L557.214 86.486L557.288 86.5724L562.268 82.2881ZM535.128 79.5225L531.847 73.832L531.847 73.832L535.128 79.5225ZM529.355 87.1913L535.67 88.9995L535.67 88.9995L529.355 87.1913ZM522.26 168.766C522.295 171.533 521.598 172.43 521.315 172.707C520.98 173.037 519.894 173.793 516.808 173.832L516.974 186.969C521.944 186.906 526.875 185.659 530.518 182.083C534.215 178.455 535.459 173.543 535.396 168.601L522.26 168.766ZM516.808 173.832C513.985 173.868 512.532 173.195 511.724 172.525L503.342 182.642C507.186 185.827 511.972 187.032 516.974 186.969L516.808 173.832ZM511.724 172.525C511.25 172.133 510.571 171.321 510.54 168.914L497.404 169.079C497.469 174.267 499.163 179.179 503.342 182.642L511.724 172.525ZM510.54 168.914L509.686 101.078L496.549 101.243L497.404 169.079L510.54 168.914ZM509.686 101.078C509.556 90.7401 510.85 83.1199 513.138 77.8162L501.075 72.6122C497.772 80.2693 496.407 89.9464 496.549 101.243L509.686 101.078ZM513.155 77.7767C515.315 72.6793 518.811 69.0416 523.882 66.6509L518.279 54.7676C510.307 58.5259 504.487 64.5582 501.058 72.6517L513.155 77.7767ZM523.882 66.6509C529.228 64.1302 536.912 62.5906 547.344 62.4592L547.178 49.3225C535.746 49.4665 525.976 51.1391 518.279 54.7676L523.882 66.6509ZM547.344 62.4592C560.924 62.2881 570.023 65.3604 575.794 70.5472L584.576 60.7764C575.446 52.57 562.596 49.1283 547.178 49.3225L547.344 62.4592ZM575.874 70.6178C581.345 75.3775 585.075 84.5106 585.271 100.125L598.408 99.96C598.193 82.8937 594.153 69.1063 584.497 60.7058L575.874 70.6178ZM585.271 100.125L586.126 167.962L599.263 167.796L598.408 99.96L585.271 100.125ZM586.126 167.962C586.161 170.729 585.464 171.625 585.181 171.903C584.846 172.232 583.76 172.989 580.674 173.028L580.84 186.164C585.81 186.102 590.741 184.855 594.384 181.278C598.081 177.65 599.325 172.739 599.263 167.796L586.126 167.962ZM580.674 173.028C577.851 173.063 576.398 172.39 575.59 171.721L567.208 181.837C571.052 185.022 575.838 186.227 580.84 186.164L580.674 173.028ZM575.59 171.721C575.117 171.329 574.437 170.516 574.407 168.109L561.27 168.275C561.335 173.462 563.029 178.375 567.208 181.837L575.59 171.721ZM574.407 168.109L573.552 100.273L560.415 100.439L561.27 168.275L574.407 168.109ZM573.552 100.273C573.44 91.3462 571.841 83.3433 567.247 78.0039L557.288 86.5724C558.768 88.2922 560.313 92.3344 560.415 100.439L573.552 100.273ZM567.393 78.1792C562.689 72.3122 555.37 70.2812 547.443 70.3811L547.609 83.5177C553.491 83.4436 556 84.9718 557.143 86.3971L567.393 78.1792ZM547.443 70.3811C541.552 70.4553 536.112 71.3723 531.847 73.832L538.41 85.213C539.858 84.3781 542.683 83.5798 547.609 83.5177L547.443 70.3811ZM531.847 73.832C527.37 76.4138 524.454 80.4463 523.04 85.3832L535.67 88.9995C536.241 87.0058 537.174 85.9257 538.41 85.213L531.847 73.832ZM523.04 85.3832C521.802 89.7076 521.33 94.9692 521.405 100.93L534.542 100.764C534.475 95.4478 534.924 91.6056 535.67 88.9995L523.04 85.3832ZM521.405 100.93L522.26 168.766L535.396 168.601L534.542 100.764L521.405 100.93Z" fill="black" mask="url(#path-1-outside-1_431_210)"/>
</svg>
