<svg width="168" height="65" viewBox="0 0 168 65" fill="none" xmlns="http://www.w3.org/2000/svg">
<mask id="path-1-outside-1_431_213" maskUnits="userSpaceOnUse" x="17.7272" y="9.67121" width="132.556" height="46.659" fill="black">
<rect fill="white" x="17.7272" y="9.67121" width="132.556" height="46.659"/>
<path d="M32.7676 49.815C32.7815 50.9127 32.5993 51.7607 32.221 52.3589C31.8729 52.9864 31.3576 53.3045 30.6752 53.3131C29.2215 53.3314 28.4828 52.406 28.4593 50.5369L28.4469 49.5578C27.3488 49.542 26.2053 49.4525 25.0163 49.2895C23.8573 49.1557 22.92 48.9449 22.2042 48.6572C20.9517 48.1686 20.3181 47.3309 20.3031 46.1441C20.2923 45.2837 20.5359 44.5982 21.0339 44.0874C21.5612 43.5467 22.3885 43.2692 23.5159 43.255C24.2873 43.2453 25.2232 43.3373 26.3236 43.5312C27.4239 43.7251 28.3894 43.8168 29.2202 43.8063C31.0596 43.7831 32.3769 43.5291 33.172 43.0444C33.967 42.5596 34.3554 41.5903 34.3371 40.1365C34.3263 39.2761 34.0056 38.5532 33.3751 37.9677C32.7742 37.3818 31.5656 36.8332 29.749 36.3219C26.4435 35.3844 24.0398 34.198 22.5381 32.763C21.066 31.3275 20.3154 29.4527 20.2863 27.1386C20.2541 24.587 20.9402 22.5161 22.3445 20.9257C23.7781 19.3053 25.6788 18.2576 28.0467 17.7827L28.0456 17.6937C28.0157 15.3202 28.7276 14.1243 30.1814 14.106C31.6055 14.0881 32.3321 15.2362 32.3612 17.5503C34.0839 17.677 35.5416 17.9702 36.7343 18.43C37.9864 18.889 38.62 19.7267 38.6354 20.9431C38.6462 21.8035 38.388 22.5041 37.8607 23.0448C37.3626 23.5555 36.5499 23.818 35.4225 23.8322C34.6808 23.8415 33.8788 23.7775 33.0166 23.64C32.1539 23.4728 31.3073 23.3944 30.4765 23.4049C29.2008 23.421 28.2394 23.6556 27.5923 24.1089C26.9451 24.5621 26.6281 25.3079 26.6412 26.3463C26.6532 27.2957 27.1239 28.1503 28.0533 28.9101C28.9828 29.6699 30.6834 30.4052 33.1552 31.1159C35.9842 31.9111 37.9417 33.014 39.0277 34.4247C40.1134 35.8056 40.6698 37.579 40.6971 39.7448C40.7292 42.2963 40.058 44.3671 38.6834 45.9571C37.3088 47.5471 35.334 48.6105 32.7592 49.1474L32.7676 49.815ZM49.4374 49.2934C47.2419 49.3211 46.1316 48.341 46.1066 46.3532L45.7787 20.319C45.7656 19.2806 46.0082 18.5209 46.5066 18.0398C47.005 17.5588 47.8031 17.3113 48.9008 17.2975C51.0666 17.2702 52.162 18.2505 52.1871 20.2383L52.2431 24.6886C52.2895 28.3675 52.2133 30.5643 52.0146 31.2789C52.7762 30.4978 53.6002 29.9533 54.4866 29.6454C55.3729 29.3375 56.5429 29.1744 57.9967 29.1561L62.358 29.1012L62.2447 20.1116C62.2317 19.0732 62.4743 18.3135 62.9727 17.8324C63.4711 17.3514 64.2692 17.1039 65.3669 17.0901C67.5327 17.0628 68.6281 18.0431 68.6532 20.0309L68.9811 46.0651C68.9938 47.0738 68.7511 47.8335 68.2531 48.3443C67.7844 48.8249 67.0012 49.0722 65.9034 49.086C63.708 49.1137 62.5977 48.1336 62.5727 46.1458L62.4067 32.9729C62.2355 33.5092 61.6625 33.9615 60.6879 34.3299C59.713 34.6686 58.5728 34.8461 57.2674 34.8626C55.3983 34.8861 54.1125 35.2881 53.4102 36.0684C52.7372 36.8187 52.4134 38.2026 52.4388 40.2201L52.515 46.2725C52.5277 47.2812 52.2851 48.0409 51.787 48.5517C51.3183 49.0323 50.5351 49.2796 49.4374 49.2934ZM77.1735 48.588C76.6098 48.5951 76.1323 48.3785 75.741 47.9384C75.3497 47.4982 75.1497 46.9369 75.1412 46.2545L74.8788 25.4272C74.8437 22.6383 75.6787 20.61 77.3837 19.3423C79.0885 18.0448 81.8544 17.372 85.6817 17.3238L91.2446 17.2537C92.2236 17.2414 92.9835 17.4989 93.5243 18.0262C94.0944 18.5235 94.3854 19.2468 94.3973 20.1962C94.4089 21.1159 94.136 21.8315 93.5787 22.343C93.051 22.8541 92.2976 23.1158 91.3186 23.1281L85.4442 23.2021C83.9607 23.2208 82.8964 23.531 82.2512 24.1325C81.6059 24.7341 81.2917 25.7025 81.3085 27.0376C81.3145 27.5123 81.2923 28.106 81.242 28.8188C81.1912 29.5019 81.1121 30.2893 81.0046 31.1808C81.5038 30.7591 82.1375 30.4247 82.9059 30.1777C83.674 29.9009 84.4288 29.7579 85.1705 29.7485L89.5763 29.693C90.4071 29.6826 91.0481 29.9267 91.4995 30.4255C91.9805 30.9239 92.2267 31.6181 92.2379 32.5082C92.2491 33.3982 92.0207 34.1133 91.5527 34.6533C91.0848 35.1933 90.4503 35.4683 89.6492 35.4784L84.8874 35.5384C83.5226 35.5556 82.6065 35.849 82.1389 36.4187C81.6709 36.9587 81.4474 38.0595 81.4683 39.7209L81.5053 42.6581L91.563 42.5314C92.6607 42.5176 93.4499 42.745 93.9306 43.2137C94.4409 43.6821 94.7028 44.4503 94.7163 45.5184C94.729 46.5271 94.5008 47.257 94.0317 47.708C93.5626 48.159 92.7644 48.3916 91.6369 48.4058L77.1735 48.588ZM105.357 45.6069C105.382 47.5947 104.356 48.6017 102.279 48.6278C101.271 48.6405 100.466 48.3984 99.8667 47.9015C99.267 47.4047 98.9609 46.6667 98.9486 45.6876L98.7266 28.0645C98.675 23.9702 99.469 21.0374 101.108 19.266C102.748 17.4946 105.333 16.5867 108.863 16.5422C112.483 16.4966 115.164 17.353 116.907 19.1115C118.651 20.8699 119.548 23.7666 119.598 27.8016L119.82 45.4247C119.846 47.4125 118.82 48.4195 116.743 48.4456C115.734 48.4584 114.93 48.2163 114.33 47.7194C113.73 47.2225 113.424 46.4845 113.412 45.5054L113.277 34.7802C112.72 35.2917 112.102 35.7297 111.424 36.0944C110.776 36.4586 110.007 36.6463 109.117 36.6575C107.811 36.674 106.835 36.9237 106.188 37.4066C105.571 37.8891 105.271 38.7386 105.286 39.955L105.357 45.6069ZM104.926 32.5709C105.394 32.0902 105.954 31.7123 106.603 31.437C107.282 31.1614 108.096 31.0176 109.045 31.0057C110.173 30.9915 111.032 30.8916 111.623 30.7061C112.244 30.5203 112.67 30.1737 112.901 29.6663C113.132 29.159 113.241 28.4157 113.229 27.4367C113.201 25.2412 112.871 23.7469 112.238 22.9537C111.604 22.1308 110.486 21.7294 108.884 21.7496C107.401 21.7683 106.383 22.2114 105.83 23.0789C105.306 23.9163 105.059 25.4625 105.087 27.7173C105.102 28.8744 105.099 29.8536 105.08 30.655C105.06 31.4565 105.009 32.0951 104.926 32.5709ZM127.844 47.9497C127.28 47.9568 126.788 47.7553 126.367 47.3452C125.976 46.905 125.776 46.3586 125.768 45.7059L125.518 25.8576C125.479 22.772 126.28 20.4029 127.921 18.7502C129.591 17.0971 132.014 16.2506 135.189 16.2106C143.496 16.106 147.717 21.4385 147.853 32.2082C147.919 37.4596 146.93 41.3741 144.885 43.9517C142.84 46.4997 139.667 47.8008 135.365 47.855L127.844 47.9497ZM132.139 42.6435L135.298 42.6037C137.494 42.576 139.071 41.7105 140.028 40.007C141.015 38.2735 141.485 35.508 141.437 31.7104C141.392 28.0908 140.899 25.5303 139.961 24.0288C139.051 22.4972 137.513 21.7451 135.348 21.7724C133.033 21.8015 131.887 22.6616 131.908 24.3528L132.139 42.6435Z"/>
</mask>
<path d="M32.7676 49.815C32.7815 50.9127 32.5993 51.7607 32.221 52.3589C31.8729 52.9864 31.3576 53.3045 30.6752 53.3131C29.2215 53.3314 28.4828 52.406 28.4593 50.5369L28.4469 49.5578C27.3488 49.542 26.2053 49.4525 25.0163 49.2895C23.8573 49.1557 22.92 48.9449 22.2042 48.6572C20.9517 48.1686 20.3181 47.3309 20.3031 46.1441C20.2923 45.2837 20.5359 44.5982 21.0339 44.0874C21.5612 43.5467 22.3885 43.2692 23.5159 43.255C24.2873 43.2453 25.2232 43.3373 26.3236 43.5312C27.4239 43.7251 28.3894 43.8168 29.2202 43.8063C31.0596 43.7831 32.3769 43.5291 33.172 43.0444C33.967 42.5596 34.3554 41.5903 34.3371 40.1365C34.3263 39.2761 34.0056 38.5532 33.3751 37.9677C32.7742 37.3818 31.5656 36.8332 29.749 36.3219C26.4435 35.3844 24.0398 34.198 22.5381 32.763C21.066 31.3275 20.3154 29.4527 20.2863 27.1386C20.2541 24.587 20.9402 22.5161 22.3445 20.9257C23.7781 19.3053 25.6788 18.2576 28.0467 17.7827L28.0456 17.6937C28.0157 15.3202 28.7276 14.1243 30.1814 14.106C31.6055 14.0881 32.3321 15.2362 32.3612 17.5503C34.0839 17.677 35.5416 17.9702 36.7343 18.43C37.9864 18.889 38.62 19.7267 38.6354 20.9431C38.6462 21.8035 38.388 22.5041 37.8607 23.0448C37.3626 23.5555 36.5499 23.818 35.4225 23.8322C34.6808 23.8415 33.8788 23.7775 33.0166 23.64C32.1539 23.4728 31.3073 23.3944 30.4765 23.4049C29.2008 23.421 28.2394 23.6556 27.5923 24.1089C26.9451 24.5621 26.6281 25.3079 26.6412 26.3463C26.6532 27.2957 27.1239 28.1503 28.0533 28.9101C28.9828 29.6699 30.6834 30.4052 33.1552 31.1159C35.9842 31.9111 37.9417 33.014 39.0277 34.4247C40.1134 35.8056 40.6698 37.579 40.6971 39.7448C40.7292 42.2963 40.058 44.3671 38.6834 45.9571C37.3088 47.5471 35.334 48.6105 32.7592 49.1474L32.7676 49.815ZM49.4374 49.2934C47.2419 49.3211 46.1316 48.341 46.1066 46.3532L45.7787 20.319C45.7656 19.2806 46.0082 18.5209 46.5066 18.0398C47.005 17.5588 47.8031 17.3113 48.9008 17.2975C51.0666 17.2702 52.162 18.2505 52.1871 20.2383L52.2431 24.6886C52.2895 28.3675 52.2133 30.5643 52.0146 31.2789C52.7762 30.4978 53.6002 29.9533 54.4866 29.6454C55.3729 29.3375 56.5429 29.1744 57.9967 29.1561L62.358 29.1012L62.2447 20.1116C62.2317 19.0732 62.4743 18.3135 62.9727 17.8324C63.4711 17.3514 64.2692 17.1039 65.3669 17.0901C67.5327 17.0628 68.6281 18.0431 68.6532 20.0309L68.9811 46.0651C68.9938 47.0738 68.7511 47.8335 68.2531 48.3443C67.7844 48.8249 67.0012 49.0722 65.9034 49.086C63.708 49.1137 62.5977 48.1336 62.5727 46.1458L62.4067 32.9729C62.2355 33.5092 61.6625 33.9615 60.6879 34.3299C59.713 34.6686 58.5728 34.8461 57.2674 34.8626C55.3983 34.8861 54.1125 35.2881 53.4102 36.0684C52.7372 36.8187 52.4134 38.2026 52.4388 40.2201L52.515 46.2725C52.5277 47.2812 52.2851 48.0409 51.787 48.5517C51.3183 49.0323 50.5351 49.2796 49.4374 49.2934ZM77.1735 48.588C76.6098 48.5951 76.1323 48.3785 75.741 47.9384C75.3497 47.4982 75.1497 46.9369 75.1412 46.2545L74.8788 25.4272C74.8437 22.6383 75.6787 20.61 77.3837 19.3423C79.0885 18.0448 81.8544 17.372 85.6817 17.3238L91.2446 17.2537C92.2236 17.2414 92.9835 17.4989 93.5243 18.0262C94.0944 18.5235 94.3854 19.2468 94.3973 20.1962C94.4089 21.1159 94.136 21.8315 93.5787 22.343C93.051 22.8541 92.2976 23.1158 91.3186 23.1281L85.4442 23.2021C83.9607 23.2208 82.8964 23.531 82.2512 24.1325C81.6059 24.7341 81.2917 25.7025 81.3085 27.0376C81.3145 27.5123 81.2923 28.106 81.242 28.8188C81.1912 29.5019 81.1121 30.2893 81.0046 31.1808C81.5038 30.7591 82.1375 30.4247 82.9059 30.1777C83.674 29.9009 84.4288 29.7579 85.1705 29.7485L89.5763 29.693C90.4071 29.6826 91.0481 29.9267 91.4995 30.4255C91.9805 30.9239 92.2267 31.6181 92.2379 32.5082C92.2491 33.3982 92.0207 34.1133 91.5527 34.6533C91.0848 35.1933 90.4503 35.4683 89.6492 35.4784L84.8874 35.5384C83.5226 35.5556 82.6065 35.849 82.1389 36.4187C81.6709 36.9587 81.4474 38.0595 81.4683 39.7209L81.5053 42.6581L91.563 42.5314C92.6607 42.5176 93.4499 42.745 93.9306 43.2137C94.4409 43.6821 94.7028 44.4503 94.7163 45.5184C94.729 46.5271 94.5008 47.257 94.0317 47.708C93.5626 48.159 92.7644 48.3916 91.6369 48.4058L77.1735 48.588ZM105.357 45.6069C105.382 47.5947 104.356 48.6017 102.279 48.6278C101.271 48.6405 100.466 48.3984 99.8667 47.9015C99.267 47.4047 98.9609 46.6667 98.9486 45.6876L98.7266 28.0645C98.675 23.9702 99.469 21.0374 101.108 19.266C102.748 17.4946 105.333 16.5867 108.863 16.5422C112.483 16.4966 115.164 17.353 116.907 19.1115C118.651 20.8699 119.548 23.7666 119.598 27.8016L119.82 45.4247C119.846 47.4125 118.82 48.4195 116.743 48.4456C115.734 48.4584 114.93 48.2163 114.33 47.7194C113.73 47.2225 113.424 46.4845 113.412 45.5054L113.277 34.7802C112.72 35.2917 112.102 35.7297 111.424 36.0944C110.776 36.4586 110.007 36.6463 109.117 36.6575C107.811 36.674 106.835 36.9237 106.188 37.4066C105.571 37.8891 105.271 38.7386 105.286 39.955L105.357 45.6069ZM104.926 32.5709C105.394 32.0902 105.954 31.7123 106.603 31.437C107.282 31.1614 108.096 31.0176 109.045 31.0057C110.173 30.9915 111.032 30.8916 111.623 30.7061C112.244 30.5203 112.67 30.1737 112.901 29.6663C113.132 29.159 113.241 28.4157 113.229 27.4367C113.201 25.2412 112.871 23.7469 112.238 22.9537C111.604 22.1308 110.486 21.7294 108.884 21.7496C107.401 21.7683 106.383 22.2114 105.83 23.0789C105.306 23.9163 105.059 25.4625 105.087 27.7173C105.102 28.8744 105.099 29.8536 105.08 30.655C105.06 31.4565 105.009 32.0951 104.926 32.5709ZM127.844 47.9497C127.28 47.9568 126.788 47.7553 126.367 47.3452C125.976 46.905 125.776 46.3586 125.768 45.7059L125.518 25.8576C125.479 22.772 126.28 20.4029 127.921 18.7502C129.591 17.0971 132.014 16.2506 135.189 16.2106C143.496 16.106 147.717 21.4385 147.853 32.2082C147.919 37.4596 146.93 41.3741 144.885 43.9517C142.84 46.4997 139.667 47.8008 135.365 47.855L127.844 47.9497ZM132.139 42.6435L135.298 42.6037C137.494 42.576 139.071 41.7105 140.028 40.007C141.015 38.2735 141.485 35.508 141.437 31.7104C141.392 28.0908 140.899 25.5303 139.961 24.0288C139.051 22.4972 137.513 21.7451 135.348 21.7724C133.033 21.8015 131.887 22.6616 131.908 24.3528L132.139 42.6435Z" fill="#226CE6"/>
<path d="M32.221 52.3589L30.5306 51.2901L30.5 51.3385L30.4722 51.3886L32.221 52.3589ZM28.4469 49.5578L30.4468 49.5326L30.4222 47.5861L28.4758 47.558L28.4469 49.5578ZM25.0163 49.2895L25.288 47.308L25.2668 47.3051L25.2456 47.3026L25.0163 49.2895ZM22.2042 48.6572L22.9501 46.8015L22.9407 46.7977L22.9312 46.794L22.2042 48.6572ZM21.0339 44.0874L22.4658 45.4837L21.0339 44.0874ZM26.3236 43.5312L26.6706 41.5615L26.6706 41.5615L26.3236 43.5312ZM33.172 43.0444L34.2132 44.752L34.2132 44.752L33.172 43.0444ZM33.3751 37.9677L31.9788 39.3996L31.9962 39.4166L32.0141 39.4332L33.3751 37.9677ZM29.749 36.3219L29.2033 38.2461L29.2072 38.2472L29.749 36.3219ZM22.5381 32.763L21.1418 34.1949L21.149 34.2019L21.1563 34.2089L22.5381 32.763ZM22.3445 20.9257L20.8466 19.6005L20.8453 19.602L22.3445 20.9257ZM28.0467 17.7827L28.44 19.7437L30.0674 19.4173L30.0465 17.7575L28.0467 17.7827ZM32.3612 17.5503L30.3614 17.5755L30.3845 19.4104L32.2146 19.545L32.3612 17.5503ZM36.7343 18.43L36.015 20.2961L36.0304 20.3021L36.0459 20.3078L36.7343 18.43ZM37.8607 23.0448L39.2926 24.4411L39.2926 24.4411L37.8607 23.0448ZM33.0166 23.64L32.6361 25.6034L32.6687 25.6098L32.7016 25.615L33.0166 23.64ZM27.5923 24.1089L28.7396 25.747L28.7397 25.747L27.5923 24.1089ZM28.0533 28.9101L29.3191 27.3617L29.3191 27.3617L28.0533 28.9101ZM33.1552 31.1159L32.6026 33.038L32.614 33.0413L33.1552 31.1159ZM39.0277 34.4247L37.443 35.6447L37.4492 35.6528L37.4554 35.6607L39.0277 34.4247ZM38.6834 45.9571L40.1964 47.2651L40.1964 47.2651L38.6834 45.9571ZM32.7592 49.1474L32.351 47.1895L30.7386 47.5257L30.7594 49.1726L32.7592 49.1474ZM30.7678 49.8402C30.7792 50.7479 30.6173 51.153 30.5306 51.2901L33.9115 53.4277C34.5813 52.3684 34.7837 51.0775 34.7675 49.7898L30.7678 49.8402ZM30.4722 51.3886C30.4518 51.4253 30.4428 51.4327 30.4517 51.4229C30.4616 51.412 30.4851 51.3896 30.5229 51.3662C30.5611 51.3426 30.599 51.3274 30.6294 51.3191C30.6584 51.3112 30.6679 51.313 30.65 51.3133L30.7004 55.3129C32.1449 55.2947 33.2956 54.5445 33.9699 53.3292L30.4722 51.3886ZM30.65 51.3133C30.4979 51.3152 30.4577 51.2911 30.4836 51.3018C30.5216 51.3175 30.5672 51.3515 30.594 51.3851C30.6128 51.4087 30.5797 51.3791 30.5405 51.2355C30.5005 51.0889 30.4634 50.8559 30.4591 50.5117L26.4594 50.5621C26.4738 51.7007 26.7011 52.9199 27.4678 53.8804C28.3099 54.9355 29.5123 55.3279 30.7004 55.3129L30.65 51.3133ZM30.4591 50.5117L30.4468 49.5326L26.4471 49.583L26.4594 50.5621L30.4591 50.5117ZM28.4758 47.558C27.466 47.5435 26.4038 47.461 25.288 47.308L24.7445 51.2709C26.0067 51.444 27.2316 51.5405 28.4181 51.5576L28.4758 47.558ZM25.2456 47.3026C24.1832 47.18 23.4389 46.998 22.9501 46.8015L21.4583 50.5129C22.4011 50.8919 23.5314 51.1314 24.787 51.2763L25.2456 47.3026ZM22.9312 46.794C22.5544 46.647 22.4239 46.5078 22.3846 46.4559C22.3583 46.421 22.3058 46.3433 22.303 46.1189L18.3033 46.1693C18.3154 47.1316 18.5872 48.0662 19.1945 48.869C19.7889 49.6548 20.6016 50.1788 21.4772 50.5204L22.9312 46.794ZM22.303 46.1189C22.2973 45.672 22.4124 45.5385 22.4658 45.4837L19.602 42.6912C18.6593 43.6579 18.2872 44.8954 18.3033 46.1693L22.303 46.1189ZM22.4658 45.4837C22.4746 45.4747 22.6853 45.2656 23.5411 45.2548L23.4908 41.2552C22.0917 41.2728 20.6478 41.6186 19.602 42.6912L22.4658 45.4837ZM23.5411 45.2548C24.146 45.2472 24.9496 45.32 25.9766 45.5009L26.6706 41.5615C25.4968 41.3547 24.4286 41.2433 23.4908 41.2552L23.5411 45.2548ZM25.9766 45.5009C27.1607 45.7095 28.2557 45.8186 29.2454 45.8061L29.195 41.8064C28.5232 41.8149 27.6871 41.7406 26.6706 41.5615L25.9766 45.5009ZM29.2454 45.8061C31.1557 45.7821 32.9351 45.5313 34.2132 44.752L32.1308 41.3367C31.8187 41.527 30.9636 41.7842 29.195 41.8064L29.2454 45.8061ZM34.2132 44.752C35.9006 43.723 36.3588 41.8497 36.3369 40.1113L32.3373 40.1617C32.3443 40.7215 32.2689 41.0454 32.203 41.2099C32.1725 41.286 32.1478 41.3188 32.1408 41.3274C32.1354 41.3341 32.1342 41.3347 32.1308 41.3367L34.2132 44.752ZM36.3369 40.1113C36.3192 38.7036 35.7676 37.4601 34.736 36.5021L32.0141 39.4332C32.2435 39.6462 32.3333 39.8486 32.3373 40.1617L36.3369 40.1113ZM34.7714 36.5357C33.7763 35.5655 32.1216 34.912 30.2909 34.3967L29.2072 38.2472C31.0095 38.7544 31.7721 39.1981 31.9788 39.3996L34.7714 36.5357ZM30.2948 34.3978C27.1215 33.4978 25.0797 32.4254 23.9199 31.317L21.1563 34.2089C22.9999 35.9707 25.7654 37.2709 29.2033 38.246L30.2948 34.3978ZM23.9344 31.331C22.8912 30.3138 22.3095 28.9698 22.2861 27.1134L18.2864 27.1637C18.3213 29.9356 19.2409 32.3413 21.1418 34.1949L23.9344 31.331ZM22.2861 27.1134C22.2589 24.9521 22.8318 23.3955 23.8437 22.2495L20.8453 19.602C19.0486 21.6368 18.2494 24.222 18.2864 27.1637L22.2861 27.1134ZM23.8424 22.251C24.9535 20.9951 26.4475 20.1433 28.44 19.7437L27.6534 15.8218C24.9101 16.372 22.6026 17.6156 20.8466 19.6005L23.8424 22.251ZM30.0465 17.7575L30.0454 17.6685L26.0457 17.7189L26.0468 17.8079L30.0465 17.7575ZM30.0454 17.6685C30.0322 16.6209 30.1986 16.1691 30.2756 16.0397C30.2965 16.0047 30.279 16.0454 30.2082 16.0851C30.1414 16.1226 30.1197 16.107 30.2066 16.1059L30.1562 12.1062C28.7711 12.1236 27.5695 12.7658 26.8386 13.9936C26.2036 15.0602 26.029 16.3931 26.0457 17.7189L30.0454 17.6685ZM30.2066 16.1059C30.2875 16.1048 30.261 16.1198 30.1883 16.0816C30.1114 16.0412 30.0875 15.9965 30.1044 16.0232C30.1297 16.0632 30.1956 16.1896 30.2546 16.4599C30.3131 16.7278 30.3553 17.0935 30.3614 17.5755L34.3611 17.5251C34.3447 16.2279 34.1403 14.9205 33.4844 13.8841C32.7284 12.6896 31.5221 12.089 30.1562 12.1062L30.2066 16.1059ZM32.2146 19.545C33.8051 19.6619 35.0573 19.927 36.015 20.2961L37.4536 16.5638C36.0258 16.0134 34.3627 15.6921 32.5079 15.5557L32.2146 19.545ZM36.0459 20.3078C36.408 20.4405 36.5233 20.5691 36.5536 20.6091C36.5736 20.6355 36.6324 20.7169 36.6355 20.9683L40.6352 20.9179C40.6231 19.9528 40.3573 19.0072 39.7436 18.1959C39.1402 17.3982 38.3126 16.8784 37.4227 16.5522L36.0459 20.3078ZM36.6355 20.9683C36.6407 21.3786 36.5332 21.5414 36.4287 21.6485L39.2926 24.4411C40.2427 23.4667 40.6517 22.2284 40.6352 20.9179L36.6355 20.9683ZM36.4287 21.6485C36.467 21.6093 36.2922 21.8211 35.3973 21.8324L35.4477 25.832C36.8077 25.8149 38.2582 25.5018 39.2926 24.4411L36.4287 21.6485ZM35.3973 21.8324C34.7874 21.84 34.1005 21.7875 33.3315 21.6649L32.7016 25.615C33.6572 25.7674 34.5742 25.843 35.4477 25.832L35.3973 21.8324ZM33.3971 21.6765C32.4085 21.4849 31.4258 21.3928 30.4513 21.405L30.5017 25.4047C31.1887 25.3961 31.8994 25.4607 32.6361 25.6034L33.3971 21.6765ZM30.4513 21.405C28.9993 21.4233 27.5671 21.6847 26.4449 22.4707L28.7397 25.747C28.9116 25.6266 29.4023 25.4186 30.5017 25.4047L30.4513 21.405ZM26.4449 22.4707C25.0911 23.4189 24.6229 24.9025 24.6414 26.3715L28.6411 26.3212C28.6371 26.0043 28.6857 25.8472 28.7098 25.7905C28.7258 25.7528 28.7309 25.7531 28.7396 25.747L26.4449 22.4707ZM24.6414 26.3715C24.6627 28.0629 25.5313 29.4317 26.7875 30.4586L29.3191 27.3617C28.7164 26.869 28.6437 26.5286 28.6411 26.3212L24.6414 26.3715ZM26.7875 30.4586C28.0554 31.4951 30.1005 32.3186 32.6026 33.038L33.7079 29.1938C31.2663 28.4918 29.9101 27.8448 29.3191 27.3617L26.7875 30.4586ZM32.614 33.0413C35.2747 33.7892 36.7418 34.734 37.443 35.6447L40.6125 33.2046C39.1416 31.2941 36.6937 30.033 33.6965 29.1905L32.614 33.0413ZM37.4554 35.6607C38.211 36.6219 38.6742 37.9391 38.6973 39.77L42.6969 39.7197C42.6654 37.2189 42.0157 34.9894 40.6 33.1886L37.4554 35.6607ZM38.6973 39.77C38.7246 41.9422 38.1601 43.5043 37.1704 44.6491L40.1964 47.2651C41.9559 45.2299 42.7339 42.6505 42.6969 39.7197L38.6973 39.77ZM37.1704 44.6491C36.1484 45.8312 34.6061 46.7193 32.351 47.1895L33.1675 51.1053C36.062 50.5018 38.4691 49.263 40.1964 47.2651L37.1704 44.6491ZM30.7594 49.1726L30.7678 49.8402L34.7675 49.7898L34.7591 49.1222L30.7594 49.1726ZM46.5066 18.0398L45.1177 16.6008L45.1177 16.6008L46.5066 18.0398ZM52.0146 31.2789L50.0877 30.7431L53.4465 32.6752L52.0146 31.2789ZM54.4866 29.6454L55.1429 31.5347L55.1429 31.5347L54.4866 29.6454ZM62.358 29.1012L62.3832 31.101L64.383 31.0758L64.3578 29.076L62.358 29.1012ZM62.9727 17.8324L61.5837 16.3934L61.5837 16.3934L62.9727 17.8324ZM68.2531 48.3443L66.8212 46.948L66.8212 46.948L68.2531 48.3443ZM62.4067 32.9729L64.4066 32.9477L60.5016 32.3644L62.4067 32.9729ZM60.6879 34.3299L61.3442 36.2191L61.3698 36.2103L61.3951 36.2007L60.6879 34.3299ZM53.4102 36.0684L51.9236 34.7305L51.9214 34.733L53.4102 36.0684ZM51.787 48.5517L53.219 49.948L53.219 49.948L51.787 48.5517ZM49.4122 47.2936C48.5763 47.3041 48.3203 47.1138 48.2816 47.0797C48.2812 47.0793 48.1144 46.9596 48.1064 46.328L44.1067 46.3784C44.1238 47.7347 44.5247 49.0988 45.6345 50.0785C46.7061 51.0245 48.103 51.3104 49.4625 51.2933L49.4122 47.2936ZM48.1064 46.328L47.7785 20.2938L43.7788 20.3442L44.1067 46.3784L48.1064 46.328ZM47.7785 20.2938C47.7689 19.5321 47.9558 19.4207 47.8956 19.4788L45.1177 16.6008C44.0607 17.621 43.7623 19.029 43.7788 20.3442L47.7785 20.2938ZM47.8956 19.4788C47.8638 19.5096 48.0524 19.3083 48.926 19.2973L48.8756 15.2977C47.5538 15.3143 46.1463 15.608 45.1177 16.6008L47.8956 19.4788ZM48.926 19.2973C49.7411 19.2871 49.9819 19.4747 50.013 19.5026C50.0287 19.5166 50.0608 19.5481 50.0965 19.6427C50.1365 19.7486 50.1832 19.9428 50.1872 20.2635L54.1869 20.2131C54.1699 18.8647 53.7775 17.5036 52.6804 16.5218C51.6162 15.5695 50.2263 15.2806 48.8756 15.2977L48.926 19.2973ZM50.1872 20.2635L50.2433 24.7138L54.243 24.6634L54.1869 20.2131L50.1872 20.2635ZM50.2433 24.7138C50.2663 26.5396 50.2585 27.973 50.222 29.026C50.2037 29.5531 50.1788 29.9669 50.1495 30.277C50.1349 30.4315 50.1202 30.5493 50.1069 30.6353C50.0928 30.7265 50.0842 30.7558 50.0877 30.7431L53.9415 31.8147C54.1149 31.1909 54.1828 30.2241 54.2195 29.1647C54.2592 28.0209 54.2663 26.5164 54.243 24.6634L50.2433 24.7138ZM53.4465 32.6752C54.0266 32.0803 54.5941 31.7253 55.1429 31.5347L53.8303 27.7562C52.6064 28.1813 51.5258 28.9154 50.5827 29.8826L53.4465 32.6752ZM55.1429 31.5347C55.7465 31.325 56.6785 31.1729 58.0219 31.156L57.9715 27.1563C56.4074 27.176 54.9992 27.3501 53.8303 27.7562L55.1429 31.5347ZM58.0219 31.156L62.3832 31.101L62.3328 27.1013L57.9715 27.1563L58.0219 31.156ZM64.3578 29.076L64.2446 20.0864L60.2449 20.1368L60.3581 29.1264L64.3578 29.076ZM64.2446 20.0864C64.235 19.3247 64.4219 19.2133 64.3617 19.2714L61.5837 16.3934C60.5268 17.4136 60.2283 18.8216 60.2449 20.1368L64.2446 20.0864ZM64.3617 19.2714C64.3298 19.3022 64.5184 19.1009 65.3921 19.0899L65.3417 15.0903C64.0199 15.1069 62.6123 15.4006 61.5837 16.3934L64.3617 19.2714ZM65.3921 19.0899C66.2072 19.0797 66.448 19.2673 66.4791 19.2952C66.4948 19.3092 66.5269 19.3407 66.5626 19.4353C66.6026 19.5412 66.6493 19.7354 66.6533 20.0561L70.653 20.0057C70.636 18.6573 70.2436 17.2962 69.1465 16.3144C68.0823 15.3621 66.6924 15.0732 65.3417 15.0903L65.3921 19.0899ZM66.6533 20.0561L66.9812 46.0903L70.9809 46.0399L70.653 20.0057L66.6533 20.0561ZM66.9812 46.0903C66.9856 46.434 66.9447 46.6538 66.9034 46.7829C66.8653 46.9023 66.829 46.94 66.8212 46.948L69.685 49.7405C70.684 48.7161 70.9975 47.3569 70.9809 46.0399L66.9812 46.0903ZM66.8212 46.948C66.8631 46.905 66.8587 46.9367 66.7121 46.983C66.5579 47.0316 66.2928 47.081 65.8783 47.0862L65.9286 51.0859C67.2356 51.0694 68.6699 50.7816 69.685 49.7405L66.8212 46.948ZM65.8783 47.0862C65.0424 47.0967 64.7863 46.9064 64.7477 46.8723C64.7472 46.8719 64.5805 46.7522 64.5725 46.1206L60.5728 46.171C60.5899 47.5272 60.9908 48.8914 62.1006 49.8711C63.1722 50.8171 64.569 51.103 65.9286 51.0859L65.8783 47.0862ZM64.5725 46.1206L64.4066 32.9477L60.4069 32.9981L60.5728 46.171L64.5725 46.1206ZM60.5016 32.3644C60.5685 32.1549 60.6749 32.0928 60.6093 32.1446C60.5363 32.2022 60.3511 32.3191 59.9808 32.4591L61.3951 36.2007C62.4866 35.7881 63.8454 35.0422 64.3119 33.5814L60.5016 32.3644ZM60.0316 32.4406C59.3053 32.6929 58.3869 32.8483 57.2422 32.8627L57.2926 36.8624C58.7587 36.844 60.1206 36.6442 61.3442 36.2191L60.0316 32.4406ZM57.2422 32.8627C55.2196 32.8882 53.2037 33.3082 51.9236 34.7305L54.8968 37.4064C55.0214 37.2679 55.5769 36.884 57.2926 36.8624L57.2422 32.8627ZM51.9214 34.733C50.7077 36.086 50.4126 38.157 50.4389 40.2453L54.4386 40.1949C54.4141 38.2482 54.7666 37.5515 54.899 37.4039L51.9214 34.733ZM50.4389 40.2453L50.5152 46.2977L54.5148 46.2473L54.4386 40.1949L50.4389 40.2453ZM50.5152 46.2977C50.5195 46.6414 50.4786 46.8612 50.4374 46.9903C50.3992 47.1097 50.3629 47.1474 50.3551 47.1554L53.219 49.948C54.2179 48.9235 54.5314 47.5643 54.5148 46.2473L50.5152 46.2977ZM50.3551 47.1554C50.397 47.1124 50.3926 47.1441 50.246 47.1904C50.0918 47.2391 49.8267 47.2884 49.4122 47.2936L49.4625 51.2933C50.7695 51.2768 52.2038 50.989 53.219 49.948L50.3551 47.1554ZM75.741 47.9384L74.2462 49.2672L74.2462 49.2672L75.741 47.9384ZM77.3837 19.3423L78.5771 20.9472L78.5861 20.9406L78.595 20.9338L77.3837 19.3423ZM93.5243 18.0262L92.128 19.4581L92.1678 19.4969L92.2096 19.5334L93.5243 18.0262ZM93.5787 22.343L92.2264 20.8694L92.2066 20.8876L92.1872 20.9064L93.5787 22.343ZM82.2512 24.1325L80.8873 22.6697L80.8873 22.6697L82.2512 24.1325ZM81.242 28.8188L83.2365 28.967L83.237 28.9598L81.242 28.8188ZM81.0046 31.1808L79.019 30.9415L78.4104 35.991L82.2954 32.7086L81.0046 31.1808ZM82.9059 30.1777L83.5181 32.0817L83.5512 32.071L83.5839 32.0592L82.9059 30.1777ZM91.4995 30.4255L90.0166 31.7675L90.0382 31.7913L90.0605 31.8145L91.4995 30.4255ZM91.5527 34.6533L93.0642 35.9631L93.0642 35.9631L91.5527 34.6533ZM82.1389 36.4187L83.6503 37.7285L83.6678 37.7083L83.6848 37.6876L82.1389 36.4187ZM81.5053 42.6581L79.5054 42.6833L79.5306 44.6831L81.5305 44.6579L81.5053 42.6581ZM93.9306 43.2137L92.5343 44.6457L92.556 44.6668L92.5783 44.6873L93.9306 43.2137ZM77.1483 46.5881C77.1396 46.5882 77.1451 46.5874 77.1613 46.5906C77.1779 46.594 77.1981 46.6001 77.2186 46.6094C77.2389 46.6187 77.2518 46.6275 77.2566 46.6311C77.2609 46.6343 77.2533 46.6294 77.2358 46.6096L74.2462 49.2672C75.0032 50.1187 76.026 50.6026 77.1987 50.5878L77.1483 46.5881ZM77.2358 46.6096C77.2141 46.5852 77.1445 46.5115 77.141 46.2294L73.1413 46.2797C73.1549 47.3624 73.4853 48.4112 74.2462 49.2672L77.2358 46.6096ZM77.141 46.2294L76.8787 25.402L72.879 25.4524L73.1413 46.2797L77.141 46.2294ZM76.8787 25.402C76.8488 23.0343 77.5409 21.7176 78.5771 20.9472L76.1904 17.7373C73.8164 19.5024 72.8385 22.2423 72.879 25.4524L76.8787 25.402ZM78.595 20.9338C79.7802 20.0318 82.0112 19.3702 85.7069 19.3237L85.6565 15.324C81.6977 15.3738 78.3968 16.0579 76.1725 17.7508L78.595 20.9338ZM85.7069 19.3237L91.2697 19.2536L91.2194 15.2539L85.6565 15.324L85.7069 19.3237ZM91.2697 19.2536C91.8824 19.2459 92.0702 19.4018 92.128 19.4581L94.9206 16.5943C93.8969 15.596 92.5648 15.237 91.2194 15.2539L91.2697 19.2536ZM92.2096 19.5334C92.2459 19.5651 92.3907 19.6851 92.3975 20.2214L96.3972 20.171C96.38 18.8086 95.9428 17.4819 94.839 16.5191L92.2096 19.5334ZM92.3975 20.2214C92.4036 20.7055 92.2754 20.8245 92.2264 20.8694L94.9309 23.8166C95.9966 22.8386 96.4142 21.5264 96.3972 20.171L92.3975 20.2214ZM92.1872 20.9064C92.1348 20.9572 91.9359 21.1202 91.2934 21.1283L91.3437 25.128C92.6593 25.1114 93.9672 24.751 94.9701 23.7796L92.1872 20.9064ZM91.2934 21.1283L85.419 21.2023L85.4694 25.202L91.3437 25.128L91.2934 21.1283ZM85.419 21.2023C83.7531 21.2233 82.075 21.5623 80.8873 22.6697L83.615 25.5954C83.7178 25.4996 84.1684 25.2184 85.4694 25.202L85.419 21.2023ZM80.8873 22.6697C79.6575 23.8163 79.2884 25.4534 79.3087 27.0628L83.3084 27.0124C83.295 25.9515 83.5543 25.652 83.615 25.5954L80.8873 22.6697ZM79.3087 27.0628C79.3137 27.4619 79.2951 27.9958 79.2469 28.6778L83.237 28.9598C83.2895 28.2163 83.3153 27.5626 83.3084 27.0124L79.3087 27.0628ZM79.2474 28.6707C79.1995 29.3157 79.1239 30.0715 79.019 30.9415L82.9903 31.4202C83.1003 30.507 83.1829 29.6882 83.2365 28.967L79.2474 28.6707ZM82.2954 32.7086C82.5542 32.4899 82.9417 32.267 83.5181 32.0817L82.2937 28.2737C81.3334 28.5824 80.4534 29.0283 79.7139 29.6531L82.2954 32.7086ZM83.5839 32.0592C84.1634 31.8504 84.6979 31.7547 85.1957 31.7484L85.1454 27.7487C84.1597 27.7611 83.1845 27.9514 82.228 28.2961L83.5839 32.0592ZM85.1957 31.7484L89.6015 31.6929L89.5511 27.6932L85.1454 27.7487L85.1957 31.7484ZM89.6015 31.6929C89.8169 31.6902 89.927 31.7216 89.9683 31.7373C89.9999 31.7494 90.007 31.7569 90.0166 31.7675L92.9824 29.0835C92.0578 28.0618 90.8097 27.6774 89.5511 27.6932L89.6015 31.6929ZM90.0605 31.8145C90.0954 31.8506 90.2313 32.0021 90.238 32.5334L94.2377 32.483C94.222 31.2341 93.8657 29.9971 92.9385 29.0365L90.0605 31.8145ZM90.238 32.5334C90.2447 33.0587 90.1151 33.2583 90.0413 33.3435L93.0642 35.9631C93.9263 34.9682 94.2535 33.7378 94.2377 32.483L90.238 32.5334ZM90.0413 33.3435C89.9951 33.3968 89.9309 33.4747 89.624 33.4786L89.6744 37.4783C90.9696 37.462 92.1744 36.9898 93.0642 35.9631L90.0413 33.3435ZM89.624 33.4786L84.8622 33.5386L84.9126 37.5382L89.6744 37.4783L89.624 33.4786ZM84.8622 33.5386C83.3725 33.5573 81.6535 33.8577 80.5929 35.1498L83.6848 37.6876C83.61 37.7787 83.5851 37.7406 83.7867 37.6761C83.9949 37.6094 84.3529 37.5453 84.9126 37.5382L84.8622 33.5386ZM80.6274 35.1089C80.0743 35.7472 79.805 36.5384 79.6602 37.2513C79.5102 37.9899 79.457 38.834 79.4685 39.7461L83.4681 39.6957C83.4587 38.9463 83.5067 38.4094 83.5802 38.0473C83.659 37.6594 83.7354 37.6303 83.6503 37.7285L80.6274 35.1089ZM79.4685 39.7461L79.5054 42.6833L83.5051 42.6329L83.4681 39.6957L79.4685 39.7461ZM81.5305 44.6579L91.5881 44.5313L91.5378 40.5316L81.4801 40.6583L81.5305 44.6579ZM91.5881 44.5313C92.0027 44.526 92.269 44.5686 92.4243 44.6134C92.572 44.656 92.5772 44.6875 92.5343 44.6457L95.3269 41.7818C94.2858 40.7667 92.8447 40.5151 91.5378 40.5316L91.5881 44.5313ZM92.5783 44.6873C92.5069 44.6217 92.7062 44.7321 92.7164 45.5436L96.7161 45.4932C96.6994 44.1685 96.375 42.7424 95.2829 41.7402L92.5783 44.6873ZM92.7164 45.5436C92.7209 45.9003 92.6805 46.1144 92.6458 46.2255C92.6144 46.3258 92.5982 46.3117 92.6455 46.2663L95.4178 49.1497C96.4594 48.1483 96.732 46.7551 96.7161 45.4932L92.7164 45.5436ZM92.6455 46.2663C92.6996 46.2143 92.6945 46.2502 92.5217 46.3006C92.3454 46.3519 92.0542 46.4004 91.6118 46.406L91.6621 50.4056C92.9549 50.3894 94.3937 50.1344 95.4178 49.1497L92.6455 46.2663ZM91.6118 46.406L77.1483 46.5881L77.1987 50.5878L91.6621 50.4056L91.6118 46.406ZM99.8667 47.9015L101.143 46.3615L101.143 46.3615L99.8667 47.9015ZM101.108 19.266L102.576 20.6245L102.576 20.6245L101.108 19.266ZM114.33 47.7194L115.606 46.1793L115.606 46.1793L114.33 47.7194ZM113.277 34.7802L115.277 34.755L115.22 30.2822L111.925 33.3067L113.277 34.7802ZM111.424 36.0944L110.477 34.333L110.46 34.3417L110.444 34.3508L111.424 36.0944ZM106.188 37.4066L104.992 35.8041L104.974 35.8174L104.956 35.8311L106.188 37.4066ZM104.926 32.5709L102.956 32.2271L101.844 38.5958L106.358 33.9672L104.926 32.5709ZM106.603 31.437L105.851 29.5839L105.836 29.5896L105.822 29.5956L106.603 31.437ZM111.623 30.7061L111.05 28.7902L111.037 28.7939L111.024 28.7979L111.623 30.7061ZM112.901 29.6663L114.721 30.495L114.721 30.495L112.901 29.6663ZM112.238 22.9537L110.653 24.1737L110.664 24.1876L110.675 24.2013L112.238 22.9537ZM105.83 23.0789L104.143 22.004L104.139 22.0113L104.134 22.0186L105.83 23.0789ZM105.08 30.655L107.079 30.7039L107.079 30.7039L105.08 30.655ZM103.357 45.6321C103.361 45.9606 103.32 46.1649 103.282 46.2799C103.247 46.3843 103.215 46.4166 103.205 46.4257C103.196 46.4349 103.006 46.6185 102.254 46.628L102.305 50.6277C103.63 50.611 104.991 50.278 106.007 49.2803C107.04 48.2667 107.374 46.9067 107.357 45.5817L103.357 45.6321ZM102.254 46.628C101.577 46.6365 101.28 46.4755 101.143 46.3615L98.5907 49.4416C99.6526 50.3214 100.964 50.6446 102.305 50.6277L102.254 46.628ZM101.143 46.3615C101.107 46.3319 100.955 46.2182 100.948 45.6624L96.9488 45.7128C96.9664 47.1152 97.4269 48.4774 98.5907 49.4416L101.143 46.3615ZM100.948 45.6624L100.726 28.0393L96.7268 28.0896L96.9488 45.7128L100.948 45.6624ZM100.726 28.0393C100.677 24.1251 101.459 21.8316 102.576 20.6245L99.6405 17.9075C97.4789 20.2431 96.6729 23.8153 96.7268 28.0896L100.726 28.0393ZM102.576 20.6245C103.699 19.411 105.651 18.5828 108.888 18.5421L108.838 14.5424C105.015 14.5905 101.796 15.5782 99.6405 17.9075L102.576 20.6245ZM108.888 18.5421C112.217 18.5001 114.272 19.2941 115.487 20.5195L118.328 17.7034C116.056 15.412 112.748 14.4931 108.838 14.5424L108.888 18.5421ZM115.487 20.5195C116.693 21.7363 117.55 24.0002 117.599 27.8267L121.598 27.7764C121.545 23.533 120.608 20.0036 118.328 17.7034L115.487 20.5195ZM117.599 27.8267L117.821 45.4499L121.82 45.3995L121.598 27.7764L117.599 27.8267ZM117.821 45.4499C117.825 45.7784 117.784 45.9827 117.745 46.0977C117.71 46.2021 117.678 46.2344 117.669 46.2435C117.659 46.2527 117.469 46.4363 116.718 46.4458L116.768 50.4455C118.093 50.4288 119.454 50.0959 120.471 49.0981C121.503 48.0845 121.837 46.7245 121.82 45.3995L117.821 45.4499ZM116.718 46.4458C116.041 46.4543 115.744 46.2933 115.606 46.1793L113.054 49.2594C114.116 50.1392 115.428 50.4624 116.768 50.4455L116.718 46.4458ZM115.606 46.1793C115.57 46.1498 115.419 46.036 115.412 45.4802L111.412 45.5306C111.43 46.933 111.89 48.2952 113.054 49.2594L115.606 46.1793ZM115.412 45.4802L115.277 34.755L111.277 34.8054L111.412 45.5306L115.412 45.4802ZM111.925 33.3067C111.492 33.7038 111.011 34.0457 110.477 34.333L112.371 37.8557C113.193 37.4138 113.947 36.8796 114.629 36.2538L111.925 33.3067ZM110.444 34.3508C110.14 34.5216 109.713 34.6499 109.091 34.6577L109.142 38.6574C110.301 38.6428 111.411 38.3956 112.404 37.8379L110.444 34.3508ZM109.091 34.6577C107.603 34.6764 106.129 34.955 104.992 35.8041L107.385 39.0091C107.541 38.8923 108.019 38.6715 109.142 38.6574L109.091 34.6577ZM104.956 35.8311C103.625 36.8726 103.267 38.4913 103.286 39.9802L107.286 39.9298C107.28 39.4803 107.336 39.2129 107.385 39.0733C107.428 38.9519 107.455 38.9554 107.42 38.9821L104.956 35.8311ZM103.286 39.9802L103.357 45.6321L107.357 45.5817L107.286 39.9298L103.286 39.9802ZM106.358 33.9672C106.632 33.6862 106.966 33.4553 107.383 33.2784L105.822 29.5956C104.941 29.9692 104.157 30.4942 103.494 31.1746L106.358 33.9672ZM107.355 33.2902C107.746 33.1316 108.3 33.0152 109.071 33.0055L109.02 29.0058C107.892 29.02 106.818 29.1913 105.851 29.5839L107.355 33.2902ZM109.071 33.0055C110.261 32.9905 111.352 32.8876 112.222 32.6144L111.024 28.7979C110.713 28.8957 110.085 28.9924 109.02 29.0058L109.071 33.0055ZM112.197 32.6221C113.271 32.3004 114.211 31.6152 114.721 30.495L111.081 28.8376C111.084 28.8305 111.092 28.8155 111.106 28.7973C111.12 28.7789 111.135 28.7647 111.146 28.7556C111.157 28.7468 111.159 28.7473 111.146 28.754C111.132 28.7609 111.102 28.7746 111.05 28.7902L112.197 32.6221ZM114.721 30.495C115.134 29.5883 115.242 28.4947 115.229 27.4115L111.229 27.4619C111.24 28.3368 111.13 28.7296 111.081 28.8376L114.721 30.495ZM115.229 27.4115C115.214 26.2306 115.118 25.1621 114.913 24.2376C114.713 23.3304 114.38 22.4315 113.801 21.706L110.675 24.2013C110.729 24.269 110.878 24.5139 111.008 25.1011C111.134 25.6709 111.216 26.4473 111.229 27.4619L115.229 27.4115ZM113.823 21.7336C112.633 20.1879 110.741 19.7261 108.859 19.7498L108.91 23.7495C110.232 23.7328 110.576 24.0737 110.653 24.1737L113.823 21.7336ZM108.859 19.7498C107.023 19.7729 105.203 20.3414 104.143 22.004L107.517 24.1538C107.563 24.0814 107.779 23.7637 108.91 23.7495L108.859 19.7498ZM104.134 22.0186C103.672 22.758 103.421 23.6502 103.277 24.5503C103.129 25.4735 103.072 26.5459 103.087 27.7425L107.087 27.6921C107.074 26.6338 107.127 25.8057 107.226 25.1828C107.33 24.5368 107.464 24.2372 107.526 24.1391L104.134 22.0186ZM103.087 27.7425C103.102 28.8846 103.099 29.8376 103.08 30.6062L107.079 30.7039C107.099 29.8696 107.102 28.8641 107.087 27.6921L103.087 27.7425ZM103.08 30.6062C103.062 31.3641 103.014 31.8913 102.956 32.2271L106.896 32.9147C107.003 32.2989 107.058 31.5488 107.079 30.7039L103.08 30.6062ZM126.367 47.3452L124.872 48.674L124.92 48.7273L124.971 48.7771L126.367 47.3452ZM127.921 18.7502L126.514 17.3286L126.508 17.3348L126.502 17.3411L127.921 18.7502ZM144.885 43.9517L146.445 45.2036L146.452 45.1946L144.885 43.9517ZM132.139 42.6435L130.139 42.6687L130.164 44.6685L132.164 44.6433L132.139 42.6435ZM140.028 40.007L138.29 39.0174L138.285 39.0268L140.028 40.007ZM139.961 24.0288L138.241 25.05L138.253 25.0696L138.265 25.0891L139.961 24.0288ZM127.818 45.9499C127.801 45.9501 127.794 45.9487 127.796 45.949C127.799 45.9494 127.804 45.9507 127.81 45.9531C127.815 45.9554 127.815 45.9562 127.809 45.9522C127.803 45.948 127.787 45.9367 127.763 45.9133L124.971 48.7771C125.753 49.5402 126.75 49.9637 127.869 49.9496L127.818 45.9499ZM127.862 46.0164C127.826 45.9756 127.771 45.9082 127.768 45.6807L123.768 45.7311C123.782 46.809 124.126 47.8345 124.872 48.674L127.862 46.0164ZM127.768 45.6807L127.518 25.8324L123.518 25.8828L123.768 45.7311L127.768 45.6807ZM127.518 25.8324C127.483 23.1024 128.188 21.3195 129.34 20.1593L126.502 17.3411C124.372 19.4864 123.475 22.4417 123.518 25.8828L127.518 25.8324ZM129.328 20.1718C130.516 18.9958 132.371 18.2463 135.214 18.2105L135.163 14.2108C131.657 14.255 128.667 15.1985 126.514 17.3286L129.328 20.1718ZM135.214 18.2105C138.9 18.164 141.377 19.3012 143.017 21.3729C144.734 23.5422 145.788 27.0499 145.853 32.2334L149.853 32.183C149.782 26.5969 148.657 22.0534 146.153 18.8902C143.572 15.6294 139.784 14.1526 135.163 14.2108L135.214 18.2105ZM145.853 32.2334C145.917 37.2816 144.95 40.6513 143.318 42.7088L146.452 45.1946C148.909 42.0969 149.921 37.6376 149.853 32.183L145.853 32.2334ZM143.325 42.6999C141.765 44.6438 139.247 45.806 135.339 45.8552L135.39 49.8548C140.086 49.7957 143.915 48.3557 146.445 45.2036L143.325 42.6999ZM135.339 45.8552L127.818 45.9499L127.869 49.9496L135.39 49.8548L135.339 45.8552ZM132.164 44.6433L135.324 44.6035L135.273 40.6038L132.114 40.6436L132.164 44.6433ZM135.324 44.6035C138.127 44.5682 140.415 43.4001 141.772 40.9872L138.285 39.0268C137.726 40.0208 136.861 40.5838 135.273 40.6038L135.324 44.6035ZM141.766 40.9966C143.027 38.7834 143.486 35.5695 143.437 31.6852L139.437 31.7356C139.484 35.4465 139.004 37.7637 138.29 39.0174L141.766 40.9966ZM143.437 31.6852C143.391 28.0094 142.906 24.9668 141.656 22.9685L138.265 25.0891C138.893 26.0938 139.392 28.1723 139.437 31.7356L143.437 31.6852ZM141.68 23.0076C140.322 20.7199 138.021 19.7385 135.322 19.7725L135.373 23.7722C137.005 23.7516 137.78 24.2746 138.241 25.05L141.68 23.0076ZM135.322 19.7725C133.981 19.7894 132.616 20.0412 131.552 20.8395C130.372 21.7247 129.891 23.0246 129.908 24.3779L133.908 24.3276C133.906 24.1313 133.938 24.0544 133.941 24.0473C133.943 24.0432 133.942 24.046 133.939 24.0504C133.935 24.0546 133.937 24.0504 133.952 24.0391C134.035 23.9774 134.4 23.7845 135.373 23.7722L135.322 19.7725ZM129.908 24.3779L130.139 42.6687L134.139 42.6183L133.908 24.3276L129.908 24.3779Z" fill="white" mask="url(#path-1-outside-1_431_213)"/>
</svg>
